<svg version="1.1" id="Layer_1" xmlns="http://www.w3.org/2000/svg" xmlns:xlink="http://www.w3.org/1999/xlink" x="0px" y="0px"
	 width="100%" viewBox="0 0 512 512" enable-background="new 0 0 512 512" xml:space="preserve">
<path fill="#FFFFFF" opacity="1.000000" stroke="none" 
	d="
M72.000000,513.000000 
	C48.406994,513.000000 24.813992,513.000000 1.000000,513.000000 
	C1.000000,489.979584 1.000000,466.958435 1.384237,443.522705 
	C2.900286,446.771393 4.032097,450.434662 5.163908,454.097961 
	C4.748727,446.904083 3.120964,439.891052 3.111571,432.875824 
	C2.954164,315.312622 2.988464,197.749176 3.042780,80.185791 
	C3.044641,76.158714 3.697867,72.131927 4.042862,68.158302 
	C2.906891,69.219177 1.953446,70.109589 1.000000,71.000000 
	C1.000000,47.739292 1.000000,24.478586 1.000000,1.000000 
	C24.353777,1.000000 47.708229,1.000000 71.470627,1.387866 
	C67.890022,2.874145 63.901489,3.972558 59.912952,5.070971 
	C67.117805,4.746438 74.131302,3.120811 81.146965,3.111428 
	C198.684235,2.954233 316.221802,2.988453 433.759247,3.042602 
	C437.823090,3.044475 441.886597,3.694250 446.001343,4.046415 
	C444.527985,2.924663 443.263977,1.962330 442.000000,0.999998 
	C465.593536,1.000000 489.187042,1.000000 513.000000,1.000000 
	C513.000000,24.353769 513.000000,47.708225 512.612183,71.470627 
	C511.125885,67.890060 510.027466,63.901543 508.929047,59.913025 
	C509.253052,67.117531 510.879272,74.130974 510.888641,81.146584 
	C511.045898,198.682510 511.011627,316.218719 510.957489,433.754822 
	C510.955597,437.819885 510.306458,441.884644 509.954803,445.998474 
	C511.069427,444.534912 512.034729,443.267456 513.000000,442.000000 
	C513.000000,465.593536 513.000000,489.187042 513.000000,513.000000 
	C489.646240,513.000000 466.291779,513.000000 442.529358,512.612183 
	C446.109924,511.125854 450.098450,510.027466 454.087006,508.929047 
	C446.882141,509.253540 439.868622,510.879181 432.852966,510.888550 
	C315.315674,511.045807 197.778137,511.011597 80.240662,510.957489 
	C76.176849,510.955627 72.113335,510.305786 67.998672,509.953613 
	C69.464935,511.069946 70.732468,512.034973 72.000000,513.000000 
M493.886200,31.713610 
	C493.794708,31.661816 493.703217,31.610022 493.611725,31.558226 
	C493.745422,31.702099 493.879089,31.845970 494.102478,32.288074 
	C494.190125,32.343204 494.277802,32.398335 494.365448,32.453468 
	C494.240509,32.306362 494.115601,32.159260 493.886200,31.713610 
M17.554090,35.204449 
	C17.277424,35.409981 17.096083,35.679634 16.717804,36.120388 
	C16.807236,36.076763 16.896667,36.033138 17.442780,35.798439 
	C17.718966,35.592854 17.900446,35.323460 18.282713,34.883705 
	C18.192022,34.926937 18.101334,34.970173 17.554090,35.204449 
M495.900269,34.712765 
	C495.811859,34.657314 495.723480,34.601864 495.635071,34.546413 
	C495.761230,34.694141 495.887390,34.841866 496.216095,35.440807 
	C496.407898,35.732132 496.674255,35.914684 497.037109,36.588444 
	C497.361298,37.054691 497.685455,37.520943 498.207825,38.443424 
	C498.399719,38.737885 498.667877,38.920277 499.039642,39.589485 
	C499.362946,40.055573 499.686249,40.521660 500.107910,41.291061 
	C500.199005,41.345055 500.290131,41.399048 500.381226,41.453030 
	C500.249969,41.305328 500.118713,41.157627 499.959412,40.411095 
	C499.636597,39.944698 499.313812,39.478306 498.796539,38.552845 
	C498.602692,38.258347 498.332703,38.077507 497.965820,37.410252 
	C497.640228,36.945107 497.314636,36.479965 496.787750,35.562412 
	C496.596466,35.270405 496.330200,35.087635 495.900269,34.712765 
M20.288469,31.897663 
	C20.196198,31.934748 20.103928,31.971832 19.715872,32.115936 
	C19.807310,32.073185 19.898746,32.030430 20.288469,31.897663 
M477.883514,16.717022 
	C477.791656,16.666628 477.699799,16.616236 477.607941,16.565853 
	C477.743195,16.706953 477.878418,16.848053 478.204498,17.445683 
	C478.409180,17.723078 478.678467,17.904743 479.119385,18.283638 
	C479.210327,18.333782 479.301239,18.383926 479.392151,18.434088 
	C479.258179,18.293695 479.124207,18.153303 478.799896,17.555740 
	C478.593475,17.280106 478.323547,17.099215 477.883514,16.717022 
M31.713610,20.116751 
	C31.804863,20.074518 31.896118,20.032284 32.288635,19.900896 
	C32.195515,19.937943 32.102394,19.974987 31.713610,20.116751 
M481.884247,19.715187 
	C481.791779,19.665220 481.699310,19.615255 481.606842,19.565292 
	C481.741913,19.706985 481.877014,19.848677 482.102203,20.288933 
	C482.191803,20.342421 482.281372,20.395908 482.370972,20.449398 
	C482.244415,20.303408 482.117828,20.157417 481.884247,19.715187 
M35.440628,17.783655 
	C35.731884,17.591848 35.914478,17.325527 36.588421,16.962965 
	C37.054546,16.638687 37.520672,16.314409 38.443203,15.792133 
	C38.737797,15.600325 38.920258,15.332199 39.589478,14.960364 
	C40.055569,14.637073 40.521664,14.313781 41.291058,13.892129 
	C41.197350,13.932272 41.103638,13.972416 40.411095,14.040628 
	C39.944695,14.363412 39.478298,14.686195 38.552975,15.203603 
	C38.259102,15.397935 38.078293,15.667980 37.410522,16.035131 
	C36.945293,16.360401 36.480061,16.685671 35.562553,17.212458 
	C35.270702,17.403809 35.087925,17.670046 34.713043,18.099806 
	C34.805202,18.061987 34.897362,18.024170 35.440628,17.783655 
M496.555542,478.206146 
	C496.277863,478.410126 496.095825,478.678894 495.716949,479.119476 
	C495.806976,479.076416 495.897003,479.033325 496.444061,478.799652 
	C496.719238,478.592804 496.899902,478.322723 497.281586,477.883179 
	C497.191498,477.926910 497.101410,477.970673 496.555542,478.206146 
M17.787855,478.559448 
	C17.594416,478.267883 17.326658,478.085297 16.962049,477.411743 
	C16.638178,476.945435 16.314304,476.479095 15.791969,475.556732 
	C15.599604,475.262848 15.331403,475.080505 14.959290,474.410858 
	C14.636462,473.944519 14.313635,473.478180 13.892115,472.708496 
	C13.800806,472.654663 13.709497,472.600830 13.618185,472.546997 
	C13.749504,472.694794 13.880823,472.842590 14.039574,473.589294 
	C14.362823,474.055420 14.686072,474.521545 15.203458,475.446960 
	C15.397235,475.741577 15.667217,475.922516 16.034163,476.589783 
	C16.359795,477.054871 16.685429,477.519928 17.211725,478.439819 
	C17.402605,478.734436 17.669832,478.917755 18.102602,479.288666 
	C18.190367,479.343903 18.278131,479.399139 18.365894,479.454376 
	C18.240742,479.307190 18.115589,479.160004 17.787855,478.559448 
M19.899899,481.712341 
	C19.811426,481.657104 19.722956,481.601868 19.634491,481.546631 
	C19.760551,481.694519 19.886614,481.842377 20.117119,482.285980 
	C20.207350,482.337860 20.297583,482.389740 20.387814,482.441620 
	C20.255072,482.298798 20.122328,482.156006 19.899899,481.712341 
M36.116722,497.282196 
	C36.208294,497.332794 36.299862,497.383362 36.391434,497.433929 
	C36.256203,497.293030 36.120975,497.152161 35.794449,496.555145 
	C35.590511,496.277313 35.321671,496.095306 34.880741,495.716034 
	C34.789646,495.665955 34.698555,495.615875 34.607479,495.565796 
	C34.741505,495.706329 34.875534,495.846893 35.199837,496.444641 
	C35.406719,496.719940 35.676914,496.900482 36.116722,497.282196 
M479.286926,495.896729 
	C479.195770,495.934479 479.104584,495.972260 478.560577,496.213226 
	C478.269409,496.406677 478.086487,496.674133 477.411865,497.038025 
	C476.945496,497.361877 476.479126,497.685730 475.556671,498.207977 
	C475.262756,498.400360 475.080444,498.668579 474.410858,499.040680 
	C473.944519,499.363525 473.478149,499.686340 472.708496,500.107849 
	C472.802460,500.067871 472.896423,500.027893 473.589294,499.960510 
	C474.055420,499.637238 474.521545,499.313965 475.446960,498.796570 
	C475.741577,498.602783 475.922516,498.332794 476.589752,497.965759 
	C477.054779,497.640106 477.519775,497.314423 478.438873,496.787079 
	C478.732910,496.596069 478.916412,496.329041 479.286926,495.896729 
M494.284393,481.881287 
	C494.193695,481.924072 494.102997,481.966858 493.710999,482.099243 
	C493.804321,482.062286 493.897675,482.025330 494.284393,481.881287 
M31.900553,493.711395 
	C31.810143,493.657776 31.719734,493.604156 31.629345,493.550537 
	C31.756863,493.697266 31.884380,493.844025 32.118977,494.283661 
	C32.210045,494.333618 32.301113,494.383575 32.392178,494.433563 
	C32.258175,494.293213 32.124172,494.152863 31.900553,493.711395 
M481.712585,494.103333 
	C481.804199,494.065674 481.895782,494.028015 482.285675,493.886322 
	C482.193939,493.928619 482.102173,493.970917 481.712585,494.103333 
M501.887512,43.712090 
	C501.797028,43.658340 501.706543,43.604588 501.616058,43.550861 
	C501.748688,43.696873 501.881348,43.842884 502.033936,44.592987 
	C502.359039,45.059868 502.684143,45.526749 503.035156,46.595943 
	C503.359497,47.061172 503.683807,47.526405 504.015747,48.485580 
	C504.131714,48.771290 504.247681,49.056999 504.363647,49.342686 
	C504.491364,49.254234 504.619110,49.165783 504.746857,49.077351 
	C504.495422,48.719963 504.243958,48.362572 503.961853,47.406269 
	C503.638000,46.940800 503.314178,46.475330 502.962921,45.410461 
	C502.638489,44.944782 502.314087,44.479103 501.887512,43.712090 
M506.029053,53.479656 
	C506.141418,53.766773 506.253784,54.053886 506.366119,54.341022 
	C506.493256,54.251797 506.620361,54.162575 506.747467,54.073341 
	C506.493927,53.718552 506.240387,53.363758 505.976746,52.517025 
	C505.863617,52.231304 505.750488,51.945583 505.637360,51.659870 
	C505.510010,51.747803 505.382629,51.835735 505.255280,51.923649 
	C505.508087,52.277718 505.760895,52.631790 506.029053,53.479656 
M14.505508,39.333111 
	C14.342317,39.892838 14.179125,40.452568 13.718204,41.107964 
	C13.808133,41.066765 13.898062,41.025566 14.494116,40.666492 
	C14.657504,40.106945 14.820892,39.547394 15.282519,38.892967 
	C15.192294,38.933777 15.102070,38.974590 14.505508,39.333111 
M12.112473,470.287842 
	C12.202958,470.341583 12.293443,470.395325 12.383937,470.449097 
	C12.251288,470.303070 12.118639,470.157043 11.966188,469.406830 
	C11.641554,468.939667 11.316919,468.472504 10.968513,467.402344 
	C10.643103,466.936676 10.317692,466.471008 9.983006,465.512939 
	C9.867309,465.227814 9.751611,464.942688 9.635918,464.657593 
	C9.508520,464.746033 9.381122,464.834503 9.253693,464.922943 
	C9.505095,465.279297 9.756498,465.635651 10.037026,466.592010 
	C10.360656,467.058655 10.684286,467.525330 11.037134,468.590790 
	C11.361525,469.056030 11.685915,469.521271 12.112473,470.287842 
M8.021282,461.480164 
	C8.134778,461.766937 8.248274,462.053711 8.361770,462.340485 
	C8.489753,462.252594 8.617736,462.164703 8.745721,462.076843 
	C8.492837,461.720825 8.239953,461.364807 7.969034,460.517456 
	C7.857027,460.231354 7.745019,459.945282 7.632998,459.659180 
	C7.506508,459.748474 7.380018,459.837769 7.253537,459.927094 
	C7.507036,460.279968 7.760534,460.632812 8.021282,461.480164 
M41.107960,500.281799 
	C41.197968,500.334259 41.287975,500.386719 41.377979,500.439178 
	C41.246777,500.296783 41.115574,500.154419 40.666500,499.505920 
	C40.106945,499.342529 39.547394,499.179138 38.892750,498.717316 
	C38.802589,498.664703 38.712429,498.612122 38.622250,498.559540 
	C38.753292,498.702423 38.884338,498.845306 39.333076,499.494507 
	C39.892815,499.657715 40.452553,499.820892 41.107960,500.281799 
M52.517193,8.023185 
	C52.231495,8.136273 51.945801,8.249363 51.660103,8.362452 
	C51.747952,8.489851 51.835796,8.617250 51.923645,8.744649 
	C52.277653,8.491796 52.631657,8.238943 53.479382,7.970293 
	C53.766518,7.858099 54.053650,7.745904 54.340782,7.633710 
	C54.251530,7.506639 54.162273,7.379569 54.073021,7.252498 
	C53.718376,7.506098 53.363731,7.759698 52.517193,8.023185 
M499.494843,474.667236 
	C499.657990,474.107452 499.821136,473.547638 500.282745,472.892242 
	C500.192444,472.933289 500.102142,472.974365 499.505341,473.332977 
	C499.342102,473.892700 499.178864,474.452393 498.716980,475.107086 
	C498.807373,475.066284 498.897797,475.025513 499.494843,474.667236 
M475.106995,15.282898 
	C475.197144,15.335551 475.287323,15.388205 475.377502,15.440850 
	C475.246582,15.297823 475.115662,15.154796 474.667236,14.505186 
	C474.107452,14.342039 473.547638,14.178892 472.892212,13.717358 
	C472.801880,13.664870 472.711578,13.612382 472.621246,13.559884 
	C472.752655,13.702633 472.884033,13.845382 473.333008,14.494630 
	C473.892700,14.657880 474.452393,14.821130 475.106995,15.282898 
M44.593128,11.966183 
	C45.060234,11.641438 45.527340,11.316694 46.597008,10.968201 
	C47.061760,10.642597 47.526516,10.316994 48.485229,9.984154 
	C48.770969,9.868296 49.056705,9.752439 49.342445,9.636582 
	C49.254093,9.508789 49.165745,9.380997 49.077393,9.253203 
	C48.720062,9.504745 48.362732,9.756287 47.406635,10.038831 
	C46.940575,10.361974 46.474518,10.685117 45.409565,11.037705 
	C44.944183,11.361907 44.478802,11.686109 43.712124,12.112487 
	C43.804379,12.070317 43.896637,12.028149 44.593128,11.966183 
M461.482849,505.976837 
	C461.768524,505.863739 462.054230,505.750641 462.339935,505.637573 
	C462.252075,505.510193 462.164215,505.382782 462.076385,505.255371 
	C461.722382,505.508209 461.368347,505.761047 460.520538,506.029694 
	C460.233398,506.141876 459.946259,506.254059 459.659119,506.366272 
	C459.748352,506.493378 459.837585,506.620453 459.926880,506.747559 
	C460.281555,506.493958 460.636261,506.240356 461.482849,505.976837 
M466.593842,503.961151 
	C467.060364,503.637512 467.526855,503.313873 468.591370,502.960907 
	C469.056335,502.637085 469.521301,502.313263 470.287476,501.887482 
	C470.195435,501.929779 470.103394,501.972046 469.407959,502.035095 
	C468.942261,502.360291 468.476593,502.685486 467.406982,503.034943 
	C466.941071,503.359650 466.475159,503.684387 465.515289,504.016968 
	C465.229431,504.132507 464.943573,504.248047 464.657715,504.363617 
	C464.746155,504.491364 464.834564,504.619110 464.922974,504.746887 
	C465.280090,504.495148 465.637177,504.243378 466.593842,503.961151 
M58.659470,507.528717 
	C58.058727,507.436951 57.457985,507.345184 56.857246,507.253418 
	C56.835590,507.459778 56.813934,507.666138 56.792278,507.872498 
	C57.533646,507.909546 58.275013,507.946625 59.429665,508.560059 
	C61.215679,509.113190 63.001694,509.666290 64.787704,510.219421 
	C64.887207,509.807587 64.986710,509.395752 65.086212,508.983917 
	C63.054569,508.660645 61.022923,508.337341 58.659470,507.528717 
M5.439891,59.429649 
	C4.886378,61.215542 4.332865,63.001434 3.779352,64.787331 
	C4.191704,64.884789 4.604056,64.982254 5.016409,65.079720 
	C5.339582,63.050236 5.662755,61.020756 6.471298,58.659481 
	C6.563051,58.058731 6.654804,57.457981 6.746557,56.857231 
	C6.540192,56.836098 6.333827,56.814964 6.127462,56.793831 
	C6.090420,57.534679 6.053377,58.275524 5.439891,59.429649 
M508.560394,454.570801 
	C509.113373,452.784576 509.666351,450.998352 510.219330,449.212097 
	C509.807495,449.112610 509.395630,449.013123 508.983795,448.913666 
	C508.660614,450.945343 508.337402,452.977051 507.529785,455.341675 
	C507.437836,455.941895 507.345856,456.542114 507.253876,457.142334 
	C507.460175,457.163483 507.666443,457.184662 507.872742,457.205811 
	C507.909668,456.465057 507.946594,455.724274 508.560394,454.570801 
M455.341736,6.470173 
	C455.941925,6.562129 456.542114,6.654084 457.142303,6.746039 
	C457.163452,6.539771 457.184631,6.333503 457.205780,6.127235 
	C456.465027,6.090302 455.724274,6.053369 454.570801,5.439592 
	C452.784607,4.886606 450.998413,4.333619 449.212219,3.780633 
	C449.114990,4.192829 449.017731,4.605026 448.920502,5.017222 
	C450.949921,5.340102 452.979340,5.662981 455.341736,6.470173 
M331.029541,244.930740 
	C331.075592,249.623764 331.121674,254.316772 331.030334,259.936127 
	C331.080170,265.963776 331.130005,271.991394 331.047150,278.945526 
	C331.088318,292.636505 331.129517,306.327515 331.039459,320.945312 
	C331.082397,329.631836 331.125305,338.318329 331.019623,347.926941 
	C331.019623,351.397522 331.019623,354.868134 331.019623,358.564667 
	C326.568665,358.066132 322.538635,357.614716 317.480988,357.048218 
	C320.718384,360.462494 323.624908,362.964172 325.827942,365.979797 
	C329.359070,370.813416 333.705688,371.198212 339.279327,370.586121 
	C364.705139,367.794037 390.183289,365.479858 415.639648,362.963745 
	C425.326416,362.006287 435.005249,360.967926 445.253387,359.907928 
	C445.253387,355.283447 445.253387,351.157135 445.674408,346.189209 
	C446.179657,336.473175 446.684906,326.757111 447.604309,316.334900 
	C448.271515,305.232758 448.938690,294.130646 449.859497,282.151306 
	C450.266968,273.773926 450.674438,265.396515 451.464874,256.303253 
	C451.631104,252.202774 451.797333,248.102280 452.221130,243.208740 
	C452.521210,237.484863 452.821259,231.760971 453.507019,225.311386 
	C453.896484,218.547699 454.285950,211.783997 454.915558,204.141922 
	C455.228027,198.097534 455.540527,192.053162 456.051697,185.162399 
	C456.297516,181.112381 456.543304,177.062347 456.970764,172.151001 
	C457.146790,168.738739 457.322845,165.326477 457.522827,161.449661 
	C415.126404,163.328476 373.237518,165.184784 331.260468,167.044998 
	C331.260468,169.415741 331.260468,171.215714 331.112885,173.920334 
	C331.164551,177.284302 331.216187,180.648270 331.118164,184.937241 
	C331.160706,193.963974 331.203247,202.990723 331.099548,212.941254 
	C331.119873,218.631165 331.140198,224.321075 331.030273,230.931137 
	C331.075806,235.290237 331.121307,239.649323 331.029541,244.930740 
M57.765507,241.917404 
	C57.835670,247.944443 57.905830,253.971497 57.775303,260.918030 
	C57.836082,274.610962 57.896858,288.303925 57.755180,302.916077 
	C57.825836,310.276825 57.896496,317.637604 57.756134,325.913635 
	C57.827206,331.275543 57.898273,336.637482 57.749634,342.914642 
	C57.749634,348.840485 57.749634,354.766296 57.749634,360.952759 
	C103.489090,363.460114 148.734268,365.940399 194.218979,368.433777 
	C194.218979,365.713806 194.218979,363.603058 194.575897,360.669739 
	C194.559891,321.260040 194.546066,281.850311 194.512909,242.440628 
	C194.512222,241.624359 194.287720,240.808273 194.474274,239.109207 
	C194.371780,232.089706 194.269287,225.070190 194.476913,217.155319 
	C194.374237,210.453476 194.271561,203.751633 194.480637,196.154846 
	C194.383789,189.441193 194.286942,182.727524 194.511841,175.144348 
	C194.511841,171.238327 194.511841,167.332291 194.511841,163.336349 
	C154.535980,158.836777 115.239906,154.645050 76.027481,149.779327 
	C69.250641,148.938431 66.453819,150.957611 63.637169,156.590088 
	C59.887138,164.089066 55.696075,171.180695 57.773674,180.938828 
	C57.835258,187.958405 57.896847,194.977966 57.770226,202.919022 
	C57.833359,209.278534 57.896492,215.638046 57.766880,222.917938 
	C57.832859,228.944733 57.898834,234.971542 57.765507,241.917404 
M326.045929,275.077362 
	C325.992126,265.051666 325.938324,255.025970 326.045776,244.075073 
	C325.990326,224.385681 325.934845,204.696304 326.042847,184.081192 
	C325.993744,175.389435 325.944641,166.697678 326.057739,157.081009 
	C326.057739,151.840164 326.057739,146.599319 326.057739,141.249161 
	C324.406921,141.249161 323.583588,141.221237 322.762604,141.253159 
	C285.310333,142.709000 247.867447,144.610641 210.401199,145.388199 
	C197.539276,145.655121 187.975876,152.378479 177.366974,158.099594 
	C183.914688,158.685349 190.462418,159.271103 197.859146,160.092545 
	C198.381821,161.829559 199.321518,163.557419 199.359940,165.305084 
	C199.621902,177.219559 199.694275,189.138184 199.619095,201.966766 
	C199.691666,212.977158 199.764236,223.987534 199.620316,235.858719 
	C199.691833,246.252533 199.763336,256.646332 199.542023,267.922455 
	C199.634613,284.626190 199.727203,301.329956 199.530289,318.917572 
	C199.530289,326.193207 199.530289,333.468872 199.530289,341.181915 
	C241.848862,345.361664 283.671051,349.492371 325.886505,353.661926 
	C325.886505,339.878174 325.886505,326.440033 326.048096,312.076416 
	C325.993134,300.051880 325.938202,288.027374 326.045929,275.077362 
M462.342438,8.464714 
	C461.571167,7.963479 460.799896,7.462244 460.028595,6.961009 
	C459.865723,7.266461 459.702820,7.571913 459.539948,7.877365 
	C460.327576,8.196140 461.115204,8.514915 462.342438,8.464714 
M506.826660,460.083832 
	C506.172241,460.594940 505.517822,461.106079 504.863434,461.617218 
	C505.159546,461.901917 505.455688,462.186615 505.751831,462.471313 
	C506.130310,461.867950 506.508789,461.264557 506.826660,460.083832 
M54.337959,506.463501 
	C53.566349,505.962219 52.794735,505.460907 52.023125,504.959625 
	C51.860287,505.264862 51.697445,505.570099 51.534607,505.875336 
	C52.322762,506.194519 53.110916,506.513702 54.337959,506.463501 
M7.536491,54.337921 
	C8.037771,53.566101 8.539050,52.794281 9.040330,52.022461 
	C8.735147,51.859688 8.429962,51.696915 8.124779,51.534142 
	C7.805610,52.322395 7.486442,53.110653 7.536491,54.337921 
M456.803619,507.749725 
	C456.972534,507.629639 457.141418,507.509521 457.310333,507.389496 
	C457.072815,507.414459 456.835327,507.439423 456.803619,507.749725 
M57.404472,6.524496 
	C57.174362,6.468778 56.944248,6.413061 56.714138,6.357343 
	C56.860935,6.495079 57.007736,6.632814 57.404472,6.524496 
M6.475531,457.405548 
	C6.531331,457.174774 6.587130,456.944000 6.642938,456.713226 
	C6.504820,456.860504 6.366703,457.007751 6.475531,457.405548 
M507.762756,56.813709 
	C507.589661,56.872704 507.416565,56.931694 507.243469,56.990696 
	C507.418671,57.048698 507.593872,57.106697 507.762756,56.813709 
M12.479734,43.611336 
	C12.479734,43.611336 12.398064,43.473270 12.479734,43.611336 
M49.519093,504.394135 
	C49.519093,504.394135 49.611595,504.526459 49.519093,504.394135 
M11.606033,45.514404 
	C11.606033,45.514404 11.473892,45.604122 11.606033,45.514404 
M47.380543,503.479980 
	C47.380543,503.479980 47.517570,503.397675 47.380543,503.479980 
M45.476208,502.606079 
	C45.476208,502.606079 45.385536,502.474518 45.476208,502.606079 
M43.477238,501.605957 
	C43.477238,501.605957 43.385952,501.474213 43.477238,501.605957 
M10.606008,47.514057 
	C10.606008,47.514057 10.473808,47.603897 10.606008,47.514057 
M9.393799,49.481304 
	C9.393799,49.481304 9.526178,49.388851 9.393799,49.481304 
M464.518829,9.395468 
	C464.518829,9.395468 464.609894,9.526117 464.518829,9.395468 
M466.618256,10.519791 
	C466.618256,10.519791 466.482880,10.600658 466.618256,10.519791 
M468.393036,11.479874 
	C468.393036,11.479874 468.528595,11.399733 468.393036,11.479874 
M470.390503,12.479862 
	C470.390503,12.479862 470.526703,12.399745 470.390503,12.479862 
M501.520081,470.391266 
	C501.520081,470.391266 501.600159,470.527313 501.520081,470.391266 
M502.520142,468.393036 
	C502.520142,468.393036 502.600281,468.528687 502.520142,468.393036 
M503.520142,466.393188 
	C503.520142,466.393188 503.600250,466.528839 503.520142,466.393188 
M504.604492,464.518860 
	C504.604492,464.518860 504.473877,464.609894 504.604492,464.518860 
z"/>
<path fill="#DCDCDD" opacity="1.000000" stroke="none" 
	d="
M1.000000,71.468658 
	C1.953446,70.109589 2.906891,69.219177 4.042862,68.158302 
	C3.697867,72.131927 3.044641,76.158714 3.042780,80.185791 
	C2.988464,197.749176 2.954164,315.312622 3.111571,432.875824 
	C3.120964,439.891052 4.748727,446.904083 5.163908,454.097961 
	C4.032097,450.434662 2.900286,446.771393 1.384237,443.054077 
	C1.000000,319.312439 1.000000,195.624878 1.000000,71.468658 
z"/>
<path fill="#DCDCDD" opacity="1.000000" stroke="none" 
	d="
M441.531342,0.999998 
	C443.263977,1.962330 444.527985,2.924663 446.001343,4.046415 
	C441.886597,3.694250 437.823090,3.044475 433.759247,3.042602 
	C316.221802,2.988453 198.684235,2.954233 81.146965,3.111428 
	C74.131302,3.120811 67.117805,4.746438 59.912952,5.070971 
	C63.901489,3.972558 67.890022,2.874145 71.939285,1.387866 
	C195.020889,1.000000 318.041779,1.000000 441.531342,0.999998 
z"/>
<path fill="#DCDCDD" opacity="1.000000" stroke="none" 
	d="
M72.468658,513.000000 
	C70.732468,512.034973 69.464935,511.069946 67.998672,509.953613 
	C72.113335,510.305786 76.176849,510.955627 80.240662,510.957489 
	C197.778137,511.011597 315.315674,511.045807 432.852966,510.888550 
	C439.868622,510.879181 446.882141,509.253540 454.087006,508.929047 
	C450.098450,510.027466 446.109924,511.125854 442.060699,512.612183 
	C318.979095,513.000000 195.958206,513.000000 72.468658,513.000000 
z"/>
<path fill="#DCDCDD" opacity="1.000000" stroke="none" 
	d="
M513.000000,441.531342 
	C512.034729,443.267456 511.069427,444.534912 509.954803,445.998474 
	C510.306458,441.884644 510.955597,437.819885 510.957489,433.754822 
	C511.011627,316.218719 511.045898,198.682510 510.888641,81.146584 
	C510.879272,74.130974 509.253052,67.117531 508.929047,59.913025 
	C510.027466,63.901543 511.125885,67.890060 512.612183,71.939285 
	C513.000000,195.020889 513.000000,318.041779 513.000000,441.531342 
z"/>
<path fill="#046DFF" opacity="1.000000" stroke="none" 
	d="
M325.886505,313.001953 
	C325.886505,326.440033 325.886505,339.878174 325.886505,353.661926 
	C283.671051,349.492371 241.848862,345.361664 199.530289,341.181915 
	C199.530289,333.468872 199.530289,326.193207 200.058197,318.463379 
	C209.019440,318.006287 217.452759,318.003357 225.963501,318.449432 
	C226.040894,321.177338 226.040894,323.456238 226.040894,325.995972 
	C227.808517,326.112518 229.090897,326.268585 230.373505,326.270508 
	C242.652298,326.289185 254.931137,326.283875 267.209961,326.281342 
	C279.662170,326.278778 290.239868,322.253876 298.268860,312.122498 
	C300.256073,312.495758 301.867004,312.880890 303.482269,312.900238 
	C310.949707,312.989777 318.418304,312.977631 325.886505,313.001953 
z"/>
<path fill="#FF0607" opacity="1.000000" stroke="none" 
	d="
M194.218994,361.492340 
	C194.218979,363.603058 194.218979,365.713806 194.218979,368.433777 
	C148.734268,365.940399 103.489090,363.460114 57.749634,360.952759 
	C57.749634,354.766296 57.749634,348.840485 58.330200,342.457336 
	C103.838341,342.007233 148.765915,342.014465 193.753494,342.485229 
	C193.948654,349.130005 194.083832,355.311157 194.218994,361.492340 
z"/>
<path fill="#FC4655" opacity="1.000000" stroke="none" 
	d="
M57.943459,180.016495 
	C55.696075,171.180695 59.887138,164.089066 63.637169,156.590088 
	C66.453819,150.957611 69.250641,148.938431 76.027481,149.779327 
	C115.239906,154.645050 154.535980,158.836777 194.511841,163.336349 
	C194.511841,167.332291 194.511841,171.238327 193.939758,175.574738 
	C186.248550,176.265076 179.128036,176.770142 172.010559,176.730835 
	C159.558853,176.662064 147.109573,176.175751 134.657715,176.088409 
	C132.856339,176.075760 131.046234,177.305313 128.789459,177.758163 
	C120.470337,177.518555 112.601028,177.411224 104.734467,177.513748 
	C103.469589,177.530228 102.216911,178.483002 100.545990,179.055145 
	C98.028229,179.402847 95.924889,179.938416 93.817642,179.954178 
	C81.860100,180.043716 69.901619,180.008957 57.943459,180.016495 
z"/>
<path fill="#029DFF" opacity="1.000000" stroke="none" 
	d="
M325.895569,158.005920 
	C325.944641,166.697678 325.993744,175.389435 325.501068,184.542358 
	C315.927399,185.015289 306.895477,185.027023 297.594574,184.840790 
	C293.398071,176.600189 286.850098,170.900986 278.245575,170.216049 
	C261.234558,168.861969 244.108521,168.950851 227.029129,168.475555 
	C226.792389,168.468979 226.543915,168.884369 225.882187,169.479233 
	C225.882187,179.736343 225.882187,190.368484 225.420929,200.999756 
	C216.582382,201.017776 208.205109,201.036621 199.827835,201.055481 
	C199.694275,189.138184 199.621902,177.219559 199.359940,165.305084 
	C199.321518,163.557419 198.381821,161.829559 197.535721,159.589233 
	C198.899414,158.723145 200.586105,158.045883 202.273712,158.043579 
	C243.480942,157.987442 284.688263,158.003128 325.895569,158.005920 
z"/>
<path fill="#1B1A1D" opacity="1.000000" stroke="none" 
	d="
M445.253387,347.030853 
	C445.253387,351.157135 445.253387,355.283447 445.253387,359.907928 
	C435.005249,360.967926 425.326416,362.006287 415.639648,362.963745 
	C390.183289,365.479858 364.705139,367.794037 339.279327,370.586121 
	C333.705688,371.198212 329.359070,370.813416 325.827942,365.979797 
	C323.624908,362.964172 320.718384,360.462494 317.480988,357.048218 
	C322.538635,357.614716 326.568665,358.066132 331.019623,358.564667 
	C331.019623,354.868134 331.019623,351.397522 331.551819,347.464478 
	C345.721497,347.001343 359.359650,347.063477 372.995575,346.919281 
	C374.670746,346.901550 376.334229,345.780457 378.380219,345.078278 
	C385.836853,345.059845 392.916382,345.133789 400.109131,345.587097 
	C401.924194,346.311005 403.624023,346.942627 405.328156,346.954468 
	C418.636108,347.047058 431.944885,347.020569 445.253387,347.030853 
z"/>
<path fill="#0BA4FF" opacity="1.000000" stroke="none" 
	d="
M325.976654,157.543457 
	C284.688263,158.003128 243.480942,157.987442 202.273712,158.043579 
	C200.586105,158.045883 198.899414,158.723145 197.111206,159.471405 
	C190.462418,159.271103 183.914688,158.685349 177.366974,158.099594 
	C187.975876,152.378479 197.539276,145.655121 210.401199,145.388199 
	C247.867447,144.610641 285.310333,142.709000 322.762604,141.253159 
	C323.583588,141.221237 324.406921,141.249161 326.057739,141.249161 
	C326.057739,146.599319 326.057739,151.840164 325.976654,157.543457 
z"/>
<path fill="#464249" opacity="1.000000" stroke="none" 
	d="
M451.081909,257.019135 
	C450.674438,265.396515 450.266968,273.773926 449.289825,282.590820 
	C441.833466,283.015808 434.946747,283.001251 427.615234,282.810913 
	C419.883636,282.609772 412.595551,282.505554 405.311157,282.625397 
	C403.846497,282.649475 402.395874,283.524567 400.474426,284.005554 
	C393.714600,284.006958 387.419098,284.010132 381.031067,283.551819 
	C381.001495,274.395935 381.064484,265.701477 381.588135,257.005371 
	C405.059845,257.008820 428.070892,257.013977 451.081909,257.019135 
z"/>
<path fill="#FE1C22" opacity="1.000000" stroke="none" 
	d="
M57.957634,301.996857 
	C57.896858,288.303925 57.836082,274.610962 58.345955,260.459656 
	C72.922180,260.002350 86.927742,260.003418 101.019981,260.465942 
	C101.053474,274.619415 101.000298,288.311401 100.482040,302.001465 
	C85.997192,301.998627 71.977417,301.997742 57.957634,301.996857 
z"/>
<path fill="#018EFF" opacity="1.000000" stroke="none" 
	d="
M297.863586,185.038757 
	C306.895477,185.027023 315.927399,185.015289 325.419342,185.005219 
	C325.934845,204.696304 325.990326,224.385681 325.504211,244.537201 
	C318.209412,244.999161 311.452698,244.870972 304.704346,245.052567 
	C301.310791,245.143906 297.932373,245.798126 294.243683,246.064529 
	C292.445770,244.723618 290.951233,243.515976 289.113708,242.031143 
	C296.886383,235.984421 300.252747,228.022552 300.996552,218.935425 
	C301.934143,207.480560 302.057465,196.045044 297.863586,185.038757 
z"/>
<path fill="#726D78" opacity="1.000000" stroke="none" 
	d="
M331.267822,184.012238 
	C331.216187,180.648270 331.164551,177.284302 331.637421,173.464493 
	C373.704346,173.009888 415.246704,173.011108 456.789093,173.012329 
	C456.543304,177.062347 456.297516,181.112381 455.496582,185.582947 
	C448.158600,185.673080 441.375519,185.080582 434.592804,185.084671 
	C427.557434,185.088913 420.518738,185.611084 413.489532,186.039078 
	C411.544373,186.157516 409.627899,186.747437 407.324036,187.083923 
	C396.418518,183.098801 385.745453,183.976685 374.787781,185.806213 
	C370.975433,185.002350 367.417267,184.131927 363.845154,184.070343 
	C352.988953,183.883194 342.127319,184.008575 331.267822,184.012238 
z"/>
<path fill="#FD2B37" opacity="1.000000" stroke="none" 
	d="
M194.166794,218.050690 
	C194.269287,225.070190 194.371780,232.089706 193.909088,239.554581 
	C172.027191,240.002655 150.710449,240.005371 129.296326,239.548157 
	C129.264267,232.061905 129.329590,225.035583 129.838821,218.008911 
	C151.577423,218.022598 172.872101,218.036652 194.166794,218.050690 
z"/>
<path fill="#FF0A0C" opacity="1.000000" stroke="none" 
	d="
M193.693512,342.021667 
	C148.765915,342.014465 103.838341,342.007233 58.440056,341.999695 
	C57.898273,336.637482 57.827206,331.275543 58.325821,325.456604 
	C72.910576,325.333954 86.925644,325.668335 101.030548,326.449341 
	C101.120377,329.645416 101.120377,332.394897 101.120377,335.207062 
	C123.871895,335.207062 145.886749,335.207062 167.993210,335.207062 
	C168.222412,333.276550 168.414886,331.655426 169.035782,330.024353 
	C177.551025,330.030792 185.637848,330.047241 193.770813,330.517761 
	C193.775818,334.655090 193.734665,338.338379 193.693512,342.021667 
z"/>
<path fill="#0278FF" opacity="1.000000" stroke="none" 
	d="
M225.886093,318.000427 
	C217.452759,318.003357 209.019440,318.006287 200.202957,318.021454 
	C199.727203,301.329956 199.634613,284.626190 200.065369,267.467072 
	C209.018219,266.676056 217.447739,266.340424 225.954834,266.467468 
	C225.983627,283.953583 225.934860,300.976990 225.886093,318.000427 
z"/>
<path fill="#FD3240" opacity="1.000000" stroke="none" 
	d="
M194.321854,217.602997 
	C172.872101,218.036652 151.577423,218.022598 129.740814,217.549042 
	C129.263687,210.395920 129.328476,203.702301 129.834274,197.008133 
	C151.573151,197.021652 172.871017,197.035721 194.168869,197.049789 
	C194.271561,203.751633 194.374237,210.453476 194.321854,217.602997 
z"/>
<path fill="#FD3948" opacity="1.000000" stroke="none" 
	d="
M194.324753,196.602325 
	C172.871017,197.035721 151.573151,197.021652 129.737350,196.548340 
	C129.212997,190.046082 129.226593,184.003067 129.240173,177.960037 
	C131.046234,177.305313 132.856339,176.075760 134.657715,176.088409 
	C147.109573,176.175751 159.558853,176.662064 172.010559,176.730835 
	C179.128036,176.770142 186.248550,176.265076 193.778900,176.009491 
	C194.286942,182.727524 194.383789,189.441193 194.324753,196.602325 
z"/>
<path fill="#FD252F" opacity="1.000000" stroke="none" 
	d="
M193.753510,342.485229 
	C193.734665,338.338379 193.775818,334.655090 193.836243,330.047546 
	C193.829163,323.779480 193.802826,318.435699 193.837646,312.617859 
	C193.913208,295.861481 193.922897,279.579163 193.947586,263.296814 
	C193.950958,261.074402 194.175583,259.018036 190.812943,258.960205 
	C180.220642,258.778076 169.634109,258.257507 159.041794,258.080933 
	C149.164841,257.916290 139.283340,258.024109 129.302490,257.553772 
	C129.265335,251.399689 129.329529,245.703888 129.393723,240.008087 
	C150.710449,240.005371 172.027191,240.002655 193.755768,239.996033 
	C194.287720,240.808273 194.512222,241.624359 194.512909,242.440628 
	C194.546066,281.850311 194.559891,321.260040 194.397446,361.081055 
	C194.083832,355.311157 193.948654,349.130005 193.753510,342.485229 
z"/>
<path fill="#79737F" opacity="1.000000" stroke="none" 
	d="
M456.879944,172.581665 
	C415.246704,173.011108 373.704346,173.009888 331.711212,173.012177 
	C331.260468,171.215714 331.260468,169.415741 331.260468,167.044998 
	C373.237518,165.184784 415.126404,163.328476 457.522827,161.449661 
	C457.322845,165.326477 457.146790,168.738739 456.879944,172.581665 
z"/>
<path fill="#FE1116" opacity="1.000000" stroke="none" 
	d="
M100.940712,326.002747 
	C86.925644,325.668335 72.910576,325.333954 58.431332,324.998962 
	C57.896496,317.637604 57.825836,310.276825 57.856407,302.456482 
	C71.977417,301.997742 85.997192,301.998627 100.568588,302.462982 
	C101.060371,310.618561 101.000542,318.310638 100.940712,326.002747 
z"/>
<path fill="#4E4A52" opacity="1.000000" stroke="none" 
	d="
M451.273376,256.661194 
	C428.070892,257.013977 405.059845,257.008820 381.501709,256.548645 
	C381.010254,252.064484 381.065918,248.035355 381.581970,244.004227 
	C386.986267,244.001328 391.938721,244.160782 396.868805,243.899460 
	C398.302368,243.823486 399.672150,242.544479 401.522400,241.935867 
	C410.646362,242.027908 419.319092,242.001038 428.078735,242.373688 
	C429.650787,243.182129 431.129364,243.913651 432.622192,243.944046 
	C439.067047,244.075272 445.516052,244.001175 451.963562,244.001801 
	C451.797333,248.102280 451.631104,252.202774 451.273376,256.661194 
z"/>
<path fill="#FD3948" opacity="1.000000" stroke="none" 
	d="
M57.858566,180.477661 
	C69.901619,180.008957 81.860100,180.043716 93.817642,179.954178 
	C95.924889,179.938416 98.028229,179.402847 100.621780,179.518402 
	C101.055969,187.287125 101.001747,194.644791 100.482162,202.001160 
	C85.997345,201.999100 71.977890,201.998322 57.958431,201.997543 
	C57.896847,194.977966 57.835258,187.958405 57.858566,180.477661 
z"/>
<path fill="#353237" opacity="1.000000" stroke="none" 
	d="
M331.170715,320.018494 
	C331.129517,306.327515 331.088318,292.636505 331.537170,278.479980 
	C338.925476,278.016785 345.823761,278.019104 352.796173,278.483459 
	C353.339050,292.613525 353.807739,306.281555 353.790741,319.965912 
	C345.926941,319.994324 338.548798,320.006409 331.170715,320.018494 
z"/>
<path fill="#018EFF" opacity="1.000000" stroke="none" 
	d="
M199.723465,201.511124 
	C208.205109,201.036621 216.582382,201.017776 225.496460,201.463257 
	C225.981598,212.952805 225.929947,223.978012 225.431213,235.002350 
	C216.601669,235.000320 208.219254,234.999130 199.836823,234.997925 
	C199.764236,223.987534 199.691666,212.977158 199.723465,201.511124 
z"/>
<path fill="#FD3240" opacity="1.000000" stroke="none" 
	d="
M57.864326,202.458282 
	C71.977890,201.998322 85.997345,201.999100 100.565338,202.463257 
	C101.058044,209.618668 101.002220,216.310654 100.526665,222.990753 
	C97.184593,222.652176 94.264786,222.072983 91.339455,222.043625 
	C80.213806,221.931976 69.086388,221.997971 57.959625,221.997559 
	C57.896492,215.638046 57.833359,209.278534 57.864326,202.458282 
z"/>
<path fill="#201F22" opacity="1.000000" stroke="none" 
	d="
M331.105072,320.481934 
	C338.548798,320.006409 345.926941,319.994324 354.021515,320.236755 
	C356.366913,327.271362 359.486023,333.329041 365.026001,337.565369 
	C368.978851,340.588043 373.651611,342.669312 378.003113,345.170654 
	C376.334229,345.780457 374.670746,346.901550 372.995575,346.919281 
	C359.359650,347.063477 345.721497,347.001343 331.626129,347.003418 
	C331.125305,338.318329 331.082397,329.631836 331.105072,320.481934 
z"/>
<path fill="#6B6670" opacity="1.000000" stroke="none" 
	d="
M331.192993,184.474731 
	C342.127319,184.008575 352.988953,183.883194 363.845154,184.070343 
	C367.417267,184.131927 370.975433,185.002350 374.603821,186.118134 
	C373.749878,187.016617 372.766876,187.172318 371.924103,187.602600 
	C361.489258,192.930191 356.254974,201.990479 353.410706,212.952820 
	C345.772827,212.599686 338.509338,212.308563 331.245789,212.017456 
	C331.203247,202.990723 331.160706,193.963974 331.192993,184.474731 
z"/>
<path fill="#201F22" opacity="1.000000" stroke="none" 
	d="
M445.463898,346.610046 
	C431.944885,347.020569 418.636108,347.047058 405.328156,346.954468 
	C403.624023,346.942627 401.924194,346.311005 400.468811,345.455750 
	C415.852264,341.622253 423.928925,331.612457 427.623474,317.017731 
	C434.451080,317.025116 440.820618,317.033081 447.190125,317.041077 
	C446.684906,326.757111 446.179657,336.473175 445.463898,346.610046 
z"/>
<path fill="#0278FF" opacity="1.000000" stroke="none" 
	d="
M325.967285,312.539185 
	C318.418304,312.977631 310.949707,312.989777 303.482269,312.900238 
	C301.867004,312.880890 300.256073,312.495758 298.352814,311.771240 
	C299.753601,306.287964 302.162567,301.424133 302.957550,296.309418 
	C303.993500,289.644226 303.749390,282.780121 304.521149,276.001007 
	C311.951874,276.001190 318.917572,276.002014 325.883240,276.002838 
	C325.938202,288.027374 325.993134,300.051880 325.967285,312.539185 
z"/>
<path fill="#0282FF" opacity="1.000000" stroke="none" 
	d="
M199.728577,235.428314 
	C208.219254,234.999130 216.601669,235.000320 225.508484,235.465240 
	C225.981003,245.954239 225.929123,255.979523 225.877258,266.004791 
	C217.447739,266.340424 209.018219,266.676056 200.211761,267.025940 
	C199.763336,256.646332 199.691833,246.252533 199.728577,235.428314 
z"/>
<path fill="#FD252F" opacity="1.000000" stroke="none" 
	d="
M100.933304,260.004486 
	C86.927742,260.003418 72.922180,260.002350 58.446304,259.999939 
	C57.905830,253.971497 57.835670,247.944443 58.336273,241.458282 
	C72.918541,241.000305 86.930038,241.001434 101.028076,241.463837 
	C101.054184,247.951584 100.993744,253.978027 100.933304,260.004486 
z"/>
<path fill="#FD2B37" opacity="1.000000" stroke="none" 
	d="
M100.941536,241.002563 
	C86.930038,241.001434 72.918541,241.000305 58.435928,240.998749 
	C57.898834,234.971542 57.832859,228.944733 57.863251,222.457748 
	C69.086388,221.997971 80.213806,221.931976 91.339455,222.043625 
	C94.264786,222.072983 97.184593,222.652176 100.610893,223.452087 
	C101.057076,229.617737 100.999306,235.310150 100.941536,241.002563 
z"/>
<path fill="#0282FF" opacity="1.000000" stroke="none" 
	d="
M325.964600,275.540100 
	C318.917572,276.002014 311.951874,276.001190 304.430847,275.563965 
	C303.966034,264.452454 301.483368,254.607101 294.547089,246.197815 
	C297.932373,245.798126 301.310791,245.143906 304.704346,245.052567 
	C311.452698,244.870972 318.209412,244.999161 325.423584,244.999817 
	C325.938324,255.025970 325.992126,265.051666 325.964600,275.540100 
z"/>
<path fill="#6B6670" opacity="1.000000" stroke="none" 
	d="
M407.698273,187.121033 
	C409.627899,186.747437 411.544373,186.157516 413.489532,186.039078 
	C420.518738,185.611084 427.557434,185.088913 434.592804,185.084671 
	C441.375519,185.080582 448.158600,185.673080 455.397278,186.006134 
	C455.540527,192.053162 455.228027,198.097534 454.349976,204.579132 
	C444.171967,205.014374 434.559601,205.012421 424.699768,204.780182 
	C421.235321,196.464294 415.221527,191.067154 407.698273,187.121033 
z"/>
<path fill="#353237" opacity="1.000000" stroke="none" 
	d="
M447.397217,316.687988 
	C440.820618,317.033081 434.451080,317.025116 427.580750,316.593414 
	C427.406647,305.108704 427.733337,294.047668 428.060059,282.986664 
	C434.946747,283.001251 441.833466,283.015808 449.163025,283.029419 
	C448.938690,294.130646 448.271515,305.232758 447.397217,316.687988 
z"/>
<path fill="#5F5B64" opacity="1.000000" stroke="none" 
	d="
M424.947205,205.010452 
	C434.559601,205.012421 444.171967,205.014374 454.229889,205.018326 
	C454.285950,211.783997 453.896484,218.547699 452.837402,225.663239 
	C444.168945,226.013916 436.170074,226.012756 428.094971,225.565369 
	C426.994904,218.416229 425.971039,211.713348 424.947205,205.010452 
z"/>
<path fill="#55515A" opacity="1.000000" stroke="none" 
	d="
M428.171204,226.011597 
	C436.170074,226.012756 444.168945,226.013916 452.644592,226.026093 
	C452.821259,231.760971 452.521210,237.484863 452.092346,243.605270 
	C445.516052,244.001175 439.067047,244.075272 432.622192,243.944046 
	C431.129364,243.913651 429.650787,243.182129 428.081696,241.908585 
	C428.055573,236.033157 428.113373,231.022369 428.171204,226.011597 
z"/>
<path fill="#464249" opacity="1.000000" stroke="none" 
	d="
M352.722015,278.021423 
	C345.823761,278.019104 338.925476,278.016785 331.603516,278.016754 
	C331.130005,271.991394 331.080170,265.963776 331.556671,259.469940 
	C338.966736,259.006226 345.850433,259.008698 352.811096,259.473145 
	C352.832703,265.963898 352.777344,271.992645 352.722015,278.021423 
z"/>
<path fill="#5F5B64" opacity="1.000000" stroke="none" 
	d="
M331.172668,212.479355 
	C338.509338,212.308563 345.772827,212.599686 353.422516,213.366852 
	C353.453247,219.233414 353.097778,224.623917 352.289917,230.011780 
	C344.945190,230.009750 338.052856,230.010376 331.160492,230.010986 
	C331.140198,224.321075 331.119873,218.631165 331.172668,212.479355 
z"/>
<path fill="#4E4A52" opacity="1.000000" stroke="none" 
	d="
M352.734161,259.011200 
	C345.850433,259.008698 338.966736,259.006226 331.625366,259.006775 
	C331.121674,254.316772 331.075592,249.623764 331.555817,244.466888 
	C338.966461,244.005234 345.850861,244.007416 352.812317,244.469543 
	C352.837616,249.623383 352.785889,254.317291 352.734161,259.011200 
z"/>
<path fill="#55515A" opacity="1.000000" stroke="none" 
	d="
M352.735229,244.009598 
	C345.850861,244.007416 338.966461,244.005234 331.624451,244.005737 
	C331.121307,239.649323 331.075806,235.290237 331.095398,230.471069 
	C338.052856,230.010376 344.945190,230.009750 352.363098,230.470551 
	C352.837494,235.291183 352.786346,239.650391 352.735229,244.009598 
z"/>
<path fill="#DCDCDD" opacity="1.000000" stroke="none" 
	d="
M455.008759,5.985858 
	C452.979340,5.662981 450.949921,5.340102 448.920502,5.017222 
	C449.017731,4.605026 449.114990,4.192829 449.212219,3.780633 
	C450.998413,4.333619 452.784607,4.886606 454.784546,5.720722 
	C454.998260,6.001851 455.008759,5.985856 455.008759,5.985858 
z"/>
<path fill="#DCDCDD" opacity="1.000000" stroke="none" 
	d="
M508.014221,455.008759 
	C508.337402,452.977051 508.660614,450.945343 508.983795,448.913666 
	C509.395630,449.013123 509.807495,449.112610 510.219330,449.212097 
	C509.666351,450.998352 509.113373,452.784576 508.279297,454.784546 
	C507.998169,454.998260 508.014191,455.008759 508.014221,455.008759 
z"/>
<path fill="#DCDCDD" opacity="1.000000" stroke="none" 
	d="
M5.985929,58.991272 
	C5.662755,61.020756 5.339582,63.050236 5.016409,65.079720 
	C4.604056,64.982254 4.191704,64.884789 3.779352,64.787331 
	C4.332865,63.001434 4.886378,61.215542 5.720860,59.215698 
	C6.001829,59.001743 5.985929,58.991272 5.985929,58.991272 
z"/>
<path fill="#DCDCDD" opacity="1.000000" stroke="none" 
	d="
M58.991280,508.014069 
	C61.022923,508.337341 63.054569,508.660645 65.086212,508.983917 
	C64.986710,509.395752 64.887207,509.807587 64.787704,510.219421 
	C63.001694,509.666290 61.215679,509.113190 59.215714,508.279144 
	C59.001766,507.998230 58.991280,508.014069 58.991280,508.014069 
z"/>
<path fill="#DCDCDD" opacity="1.000000" stroke="none" 
	d="
M462.122620,8.649202 
	C461.115204,8.514915 460.327576,8.196140 459.539948,7.877365 
	C459.702820,7.571913 459.865723,7.266461 460.028595,6.961009 
	C460.799896,7.462244 461.571167,7.963479 462.122620,8.649202 
z"/>
<path fill="#DCDCDD" opacity="1.000000" stroke="none" 
	d="
M506.856964,460.372498 
	C506.508789,461.264557 506.130310,461.867950 505.751831,462.471313 
	C505.455688,462.186615 505.159546,461.901917 504.863434,461.617218 
	C505.517822,461.106079 506.172241,460.594940 506.856964,460.372498 
z"/>
<path fill="#DCDCDD" opacity="1.000000" stroke="none" 
	d="
M54.118515,506.648193 
	C53.110916,506.513702 52.322762,506.194519 51.534607,505.875336 
	C51.697445,505.570099 51.860287,505.264862 52.023125,504.959625 
	C52.794735,505.460907 53.566349,505.962219 54.118515,506.648193 
z"/>
<path fill="#DCDCDD" opacity="1.000000" stroke="none" 
	d="
M7.351882,54.118416 
	C7.486442,53.110653 7.805610,52.322395 8.124779,51.534142 
	C8.429962,51.696915 8.735147,51.859688 9.040330,52.022461 
	C8.539050,52.794281 8.037771,53.566101 7.351882,54.118416 
z"/>
<path fill="#DCDCDD" opacity="1.000000" stroke="none" 
	d="
M6.009082,59.009056 
	C6.053377,58.275524 6.090420,57.534679 6.127462,56.793831 
	C6.333827,56.814964 6.540192,56.836098 6.746557,56.857231 
	C6.654804,57.457981 6.563051,58.058731 6.228614,58.825378 
	C5.985929,58.991272 6.001829,59.001743 6.009082,59.009056 
z"/>
<path fill="#DCDCDD" opacity="1.000000" stroke="none" 
	d="
M59.009071,507.990967 
	C58.275013,507.946625 57.533646,507.909546 56.792278,507.872498 
	C56.813934,507.666138 56.835590,507.459778 56.857246,507.253418 
	C57.457985,507.345184 58.058727,507.436951 58.825375,507.771393 
	C58.991280,508.014069 59.001766,507.998230 59.009071,507.990967 
z"/>
<path fill="#DCDCDD" opacity="1.000000" stroke="none" 
	d="
M507.990845,454.990906 
	C507.946594,455.724274 507.909668,456.465057 507.872742,457.205811 
	C507.666443,457.184662 507.460175,457.163483 507.253876,457.142334 
	C507.345856,456.542114 507.437836,455.941895 507.771973,455.175232 
	C508.014191,455.008759 507.998169,454.998260 507.990845,454.990906 
z"/>
<path fill="#DCDCDD" opacity="1.000000" stroke="none" 
	d="
M454.990906,6.009143 
	C455.724274,6.053369 456.465027,6.090302 457.205780,6.127235 
	C457.184631,6.333503 457.163452,6.539771 457.142303,6.746039 
	C456.542114,6.654084 455.941925,6.562129 455.175232,6.228015 
	C455.008759,5.985856 454.998260,6.001851 454.990906,6.009143 
z"/>
<path fill="#DCDCDD" opacity="1.000000" stroke="none" 
	d="
M46.008457,11.008259 
	C46.474518,10.685117 46.940575,10.361974 47.703144,10.019230 
	C47.999653,9.999628 47.991268,9.991390 47.991268,9.991390 
	C47.526516,10.316994 47.061760,10.642597 46.298649,10.984254 
	C46.000290,11.000307 46.008457,11.008259 46.008457,11.008259 
z"/>
<path fill="#DCDCDD" opacity="1.000000" stroke="none" 
	d="
M48.002525,10.003728 
	C48.362732,9.756287 48.720062,9.504745 49.077393,9.253203 
	C49.165745,9.380997 49.254093,9.508789 49.342445,9.636581 
	C49.056705,9.752439 48.770969,9.868296 48.238251,9.987772 
	C47.991268,9.991390 47.999653,9.999628 48.002525,10.003728 
z"/>
<path fill="#DCDCDD" opacity="1.000000" stroke="none" 
	d="
M469.986267,501.989441 
	C469.521301,502.313263 469.056335,502.637085 468.295959,502.980774 
	C468.000580,503.000641 468.010895,503.010681 468.010895,503.010681 
	C468.476593,502.685486 468.942261,502.360291 469.703979,502.017761 
	C470.000000,502.000427 469.986237,501.989410 469.986267,501.989441 
z"/>
<path fill="#DCDCDD" opacity="1.000000" stroke="none" 
	d="
M467.996948,502.995422 
	C467.526855,503.313873 467.060364,503.637512 466.297119,503.980774 
	C466.000427,504.000427 466.009247,504.009155 466.009216,504.009155 
	C466.475159,503.684387 466.941071,503.359650 467.708923,503.022827 
	C468.010895,503.010681 468.000580,503.000641 467.996948,502.995422 
z"/>
<path fill="#DCDCDD" opacity="1.000000" stroke="none" 
	d="
M465.997345,503.996033 
	C465.637177,504.243378 465.280090,504.495148 464.922974,504.746887 
	C464.834564,504.619110 464.746155,504.491364 464.657715,504.363617 
	C464.943573,504.248047 465.229431,504.132507 465.762268,504.013062 
	C466.009247,504.009155 466.000427,504.000427 465.997345,503.996033 
z"/>
<path fill="#DCDCDD" opacity="1.000000" stroke="none" 
	d="
M461.014343,506.013885 
	C461.368347,505.761047 461.722382,505.508209 462.076385,505.255371 
	C462.164215,505.382782 462.252075,505.510193 462.339935,505.637573 
	C462.054230,505.750641 461.768524,505.863739 461.241943,505.988953 
	C461.001038,506.001038 461.014343,506.013885 461.014343,506.013885 
z"/>
<path fill="#DCDCDD" opacity="1.000000" stroke="none" 
	d="
M460.996002,505.993896 
	C460.636261,506.240356 460.281555,506.493958 459.926880,506.747559 
	C459.837585,506.620453 459.748352,506.493378 459.659119,506.366272 
	C459.946259,506.254059 460.233398,506.141876 460.767456,506.021790 
	C461.014343,506.013885 461.001038,506.001038 460.996002,505.993896 
z"/>
<path fill="#DCDCDD" opacity="1.000000" stroke="none" 
	d="
M456.700714,507.607056 
	C456.835327,507.439423 457.072815,507.414459 457.310303,507.389465 
	C457.141418,507.509521 456.972534,507.629639 456.700714,507.607056 
z"/>
<path fill="#DCDCDD" opacity="1.000000" stroke="none" 
	d="
M44.013420,12.010310 
	C44.478802,11.686109 44.944183,11.361907 45.709011,11.022982 
	C46.008457,11.008259 46.000290,11.000307 45.997368,10.996128 
	C45.527340,11.316694 45.060234,11.641438 44.296490,11.982933 
	C43.999851,11.999682 44.013420,12.010310 44.013420,12.010310 
z"/>
<path fill="#DCDCDD" opacity="1.000000" stroke="none" 
	d="
M39.011902,15.008980 
	C39.478298,14.686195 39.944695,14.363412 40.705582,14.020397 
	C41.000065,14.000167 40.987755,13.990488 40.987755,13.990488 
	C40.521664,14.313781 40.055569,14.637073 39.294708,14.980096 
	C38.999935,14.999827 39.011902,15.008981 39.011902,15.008980 
z"/>
<path fill="#DCDCDD" opacity="1.000000" stroke="none" 
	d="
M475.012085,14.984379 
	C474.452393,14.821130 473.892700,14.657880 473.166504,14.247429 
	C473.000000,14.000227 472.987854,14.015738 472.987854,14.015741 
	C473.547638,14.178892 474.107452,14.342039 474.833618,14.752466 
	C475.000000,14.999746 475.012085,14.984376 475.012085,14.984379 
z"/>
<path fill="#DCDCDD" opacity="1.000000" stroke="none" 
	d="
M499.984314,472.987854 
	C499.821136,473.547638 499.657990,474.107452 499.247559,474.833618 
	C499.000244,475.000000 499.015594,475.012085 499.015625,475.012085 
	C499.178864,474.452393 499.342102,473.892700 499.752563,473.166504 
	C499.999786,473.000000 499.984314,472.987854 499.984314,472.987854 
z"/>
<path fill="#DCDCDD" opacity="1.000000" stroke="none" 
	d="
M474.987671,498.990692 
	C474.521545,499.313965 474.055420,499.637238 473.294647,499.980194 
	C473.000000,499.999878 473.011810,500.009186 473.011810,500.009186 
	C473.478149,499.686340 473.944519,499.363525 474.705444,499.020325 
	C475.000000,499.000000 474.987671,498.990692 474.987671,498.990692 
z"/>
<path fill="#DCDCDD" opacity="1.000000" stroke="none" 
	d="
M52.985664,7.986091 
	C52.631657,8.238943 52.277653,8.491796 51.923645,8.744650 
	C51.835796,8.617250 51.747952,8.489851 51.660103,8.362452 
	C51.945801,8.249363 52.231495,8.136273 52.758110,8.011108 
	C52.999023,7.999033 52.985664,7.986091 52.985664,7.986091 
z"/>
<path fill="#DCDCDD" opacity="1.000000" stroke="none" 
	d="
M41.012291,499.984070 
	C40.452553,499.820892 39.892815,499.657715 39.166527,499.247375 
	C38.999981,499.000275 38.987846,499.015717 38.987846,499.015747 
	C39.547394,499.179138 40.106945,499.342529 40.833256,499.752838 
	C41.000011,499.999756 41.012295,499.984070 41.012291,499.984070 
z"/>
<path fill="#DCDCDD" opacity="1.000000" stroke="none" 
	d="
M476.012756,498.009583 
	C476.479126,497.685730 476.945496,497.361877 477.705933,497.019104 
	C478.000000,497.000183 477.984772,496.988739 477.984772,496.988739 
	C477.519775,497.314423 477.054779,497.640106 476.294861,497.982697 
	C476.000000,497.999634 476.012787,498.009613 476.012756,498.009583 
z"/>
<path fill="#DCDCDD" opacity="1.000000" stroke="none" 
	d="
M53.004051,8.006166 
	C53.363731,7.759698 53.718376,7.506098 54.073021,7.252498 
	C54.162273,7.379569 54.251530,7.506639 54.340782,7.633710 
	C54.053650,7.745904 53.766518,7.858099 53.232521,7.978192 
	C52.985664,7.986091 52.999023,7.999033 53.004051,8.006166 
z"/>
<path fill="#DCDCDD" opacity="1.000000" stroke="none" 
	d="
M57.279503,6.647523 
	C57.007736,6.632814 56.860935,6.495079 56.714138,6.357343 
	C56.944248,6.413061 57.174362,6.468778 57.279503,6.647523 
z"/>
<path fill="#DCDCDD" opacity="1.000000" stroke="none" 
	d="
M6.352058,457.280273 
	C6.366703,457.007751 6.504820,456.860504 6.642934,456.713226 
	C6.587130,456.944000 6.531331,457.174774 6.352058,457.280273 
z"/>
<path fill="#DCDCDD" opacity="1.000000" stroke="none" 
	d="
M8.014032,460.985687 
	C7.760534,460.632812 7.507036,460.279968 7.253533,459.927094 
	C7.380018,459.837769 7.506508,459.748474 7.633005,459.659180 
	C7.745019,459.945282 7.857027,460.231354 7.985069,460.758179 
	C8.001104,460.998932 8.014033,460.985687 8.014032,460.985687 
z"/>
<path fill="#DCDCDD" opacity="1.000000" stroke="none" 
	d="
M7.994087,461.003845 
	C8.239953,461.364807 8.492837,461.720825 8.745720,462.076843 
	C8.617736,462.164703 8.489753,462.252594 8.361770,462.340485 
	C8.248274,462.053711 8.134778,461.766937 8.017658,461.232910 
	C8.014033,460.985687 8.001104,460.998932 7.994087,461.003845 
z"/>
<path fill="#DCDCDD" opacity="1.000000" stroke="none" 
	d="
M10.007912,465.991974 
	C9.756498,465.635651 9.505095,465.279297 9.253708,464.922974 
	C9.381122,464.834503 9.508520,464.746033 9.635916,464.657593 
	C9.751611,464.942688 9.867309,465.227814 9.991646,465.756348 
	C10.000286,465.999786 10.007920,465.991974 10.007912,465.991974 
z"/>
<path fill="#DCDCDD" opacity="1.000000" stroke="none" 
	d="
M11.007919,467.991974 
	C10.684286,467.525330 10.360656,467.058655 10.022473,466.291992 
	C10.007920,465.991974 10.000286,465.999786 9.996283,466.002563 
	C10.317692,466.471008 10.643103,466.936676 10.984400,467.701050 
	C11.000286,467.999786 11.007922,467.991974 11.007919,467.991974 
z"/>
<path fill="#DCDCDD" opacity="1.000000" stroke="none" 
	d="
M12.010308,469.986511 
	C11.685915,469.521271 11.361525,469.056030 11.022528,468.291382 
	C11.007922,467.991974 11.000286,467.999786 10.996284,468.002563 
	C11.316919,468.472504 11.641554,468.939667 11.982921,469.703430 
	C11.999653,470.000000 12.010311,469.986511 12.010308,469.986511 
z"/>
<path fill="#DCDCDD" opacity="1.000000" stroke="none" 
	d="
M17.011059,477.985016 
	C16.685429,477.519928 16.359795,477.054871 16.017250,476.294891 
	C16.000336,476.000000 15.990434,476.012787 15.990433,476.012787 
	C16.314304,476.479095 16.638178,476.945435 16.980843,477.705872 
	C16.999634,478.000000 17.011055,477.985016 17.011059,477.985016 
z"/>
<path fill="#DCDCDD" opacity="1.000000" stroke="none" 
	d="
M15.009315,474.987671 
	C14.686072,474.521545 14.362823,474.055420 14.019875,473.294647 
	C14.000175,473.000000 13.990826,473.011810 13.990816,473.011810 
	C14.313635,473.478180 14.636462,473.944519 14.979618,474.705444 
	C14.999947,475.000000 15.009310,474.987671 15.009315,474.987671 
z"/>
<path fill="#DCDCDD" opacity="1.000000" stroke="none" 
	d="
M14.015933,41.012295 
	C14.179125,40.452568 14.342317,39.892838 14.752634,39.166561 
	C14.999759,39.000011 14.984282,38.987846 14.984282,38.987846 
	C14.820892,39.547394 14.657504,40.106945 14.247178,40.833237 
	C14.000240,40.999981 14.015933,41.012295 14.015933,41.012295 
z"/>
<path fill="#DCDCDD" opacity="1.000000" stroke="none" 
	d="
M500.009521,40.987747 
	C499.686249,40.521660 499.362946,40.055573 499.019836,39.294746 
	C499.000000,39.000008 498.990997,39.011909 498.990997,39.011909 
	C499.313812,39.478306 499.636597,39.944698 499.979675,40.705589 
	C499.999908,41.000080 500.009521,40.987751 500.009521,40.987747 
z"/>
<path fill="#DCDCDD" opacity="1.000000" stroke="none" 
	d="
M36.014828,17.010941 
	C36.480061,16.685671 36.945293,16.360401 37.705276,16.017654 
	C38.000027,16.000175 37.986797,15.990131 37.986797,15.990131 
	C37.520672,16.314409 37.054546,16.638687 36.294167,16.981316 
	C35.999916,16.999666 36.014828,17.010939 36.014828,17.010941 
z"/>
<path fill="#DCDCDD" opacity="1.000000" stroke="none" 
	d="
M498.009613,37.987198 
	C497.685455,37.520943 497.361298,37.054691 497.018677,36.294243 
	C497.000214,36.000042 496.989044,36.014835 496.989075,36.014832 
	C497.314636,36.479965 497.640228,36.945107 497.982727,37.705200 
	C497.999664,38.000153 498.009613,37.987198 498.009613,37.987198 
z"/>
<path fill="#DCDCDD" opacity="1.000000" stroke="none" 
	d="
M506.013733,52.985863 
	C505.760895,52.631790 505.508087,52.277718 505.255249,51.923660 
	C505.382629,51.835735 505.510010,51.747803 505.637360,51.659866 
	C505.750488,51.945583 505.863617,52.231304 505.988861,52.758038 
	C506.000977,52.999050 506.013702,52.985870 506.013733,52.985863 
z"/>
<path fill="#DCDCDD" opacity="1.000000" stroke="none" 
	d="
M504.008148,47.991638 
	C503.683807,47.526405 503.359497,47.061172 503.017365,46.298180 
	C502.999573,46.000416 502.990326,46.009876 502.990356,46.009869 
	C503.314178,46.475330 503.638000,46.940800 503.981079,47.702980 
	C504.000336,47.999691 504.008148,47.991638 504.008148,47.991638 
z"/>
<path fill="#DCDCDD" opacity="1.000000" stroke="none" 
	d="
M503.004395,45.997025 
	C502.684143,45.526749 502.359039,45.059868 502.017151,44.296417 
	C502.000366,43.999851 501.989685,44.013420 501.989685,44.013420 
	C502.314087,44.479103 502.638489,44.944782 502.976624,45.710167 
	C502.990326,46.009876 502.999573,46.000416 503.004395,45.997025 
z"/>
<path fill="#DCDCDD" opacity="1.000000" stroke="none" 
	d="
M505.993927,53.004005 
	C506.240387,53.363758 506.493927,53.718552 506.747467,54.073345 
	C506.620361,54.162575 506.493256,54.251797 506.366119,54.341011 
	C506.253784,54.053886 506.141418,53.766773 506.021362,53.232765 
	C506.013702,52.985870 506.000977,52.999050 505.993927,53.004005 
z"/>
<path fill="#DCDCDD" opacity="1.000000" stroke="none" 
	d="
M507.765930,56.989204 
	C507.593872,57.106697 507.418671,57.048698 507.243469,56.990692 
	C507.416565,56.931694 507.589661,56.872704 507.765930,56.989204 
z"/>
<path fill="#DCDCDD" opacity="1.000000" stroke="none" 
	d="
M503.996429,48.002434 
	C504.243958,48.362572 504.495422,48.719963 504.746857,49.077339 
	C504.619110,49.165783 504.491364,49.254234 504.363647,49.342697 
	C504.247681,49.056999 504.131714,48.771290 504.011963,48.238609 
	C504.008148,47.991638 504.000336,47.999691 503.996429,48.002434 
z"/>
<path fill="#DCDCDD" opacity="1.000000" stroke="none" 
	d="
M481.987366,493.990356 
	C481.895782,494.028015 481.804199,494.065674 481.856293,494.051849 
	C482.000000,494.000366 481.987366,493.990326 481.987366,493.990356 
z"/>
<path fill="#DCDCDD" opacity="1.000000" stroke="none" 
	d="
M482.005219,494.006775 
	C482.102173,493.970917 482.193939,493.928619 482.136536,493.938324 
	C481.987366,493.990326 482.000000,494.000366 482.005219,494.006775 
z"/>
<path fill="#DCDCDD" opacity="1.000000" stroke="none" 
	d="
M31.990168,494.012512 
	C32.124172,494.152863 32.258175,494.293213 32.392181,494.433563 
	C32.301113,494.383575 32.210045,494.333618 32.059418,494.141937 
	C31.999861,494.000214 31.990166,494.012512 31.990168,494.012512 
z"/>
<path fill="#DCDCDD" opacity="1.000000" stroke="none" 
	d="
M494.012268,482.009644 
	C494.102997,481.966858 494.193695,481.924072 494.142334,481.940643 
	C494.000275,482.000000 494.012268,482.009644 494.012268,482.009644 
z"/>
<path fill="#DCDCDD" opacity="1.000000" stroke="none" 
	d="
M35.009552,495.987457 
	C34.875534,495.846893 34.741505,495.706329 34.607468,495.565796 
	C34.698555,495.615875 34.789646,495.665955 34.940422,495.857941 
	C35.000103,495.999847 35.009544,495.987457 35.009552,495.987457 
z"/>
<path fill="#DCDCDD" opacity="1.000000" stroke="none" 
	d="
M479.013428,496.010010 
	C479.104584,495.972260 479.195770,495.934479 479.143463,495.948181 
	C479.000000,495.999603 479.013428,496.010010 479.013428,496.010010 
z"/>
<path fill="#DCDCDD" opacity="1.000000" stroke="none" 
	d="
M34.994019,496.004486 
	C35.321671,496.095306 35.590511,496.277313 35.897038,496.777588 
	C35.999626,497.000000 36.010422,496.986298 36.010422,496.986298 
	C35.676914,496.900482 35.406719,496.719940 35.104691,496.216064 
	C35.009544,495.987457 35.000103,495.999847 34.994019,496.004486 
z"/>
<path fill="#DCDCDD" opacity="1.000000" stroke="none" 
	d="
M32.005878,493.995483 
	C31.884380,493.844025 31.756863,493.697266 31.629333,493.550537 
	C31.719734,493.604156 31.810143,493.657776 31.945358,493.861938 
	C31.990166,494.012512 31.999861,494.000214 32.005878,493.995483 
z"/>
<path fill="#DCDCDD" opacity="1.000000" stroke="none" 
	d="
M493.995636,481.994171 
	C493.897675,482.025330 493.804321,482.062286 493.861633,482.054443 
	C494.012268,482.009644 494.000275,482.000000 493.995636,481.994171 
z"/>
<path fill="#DCDCDD" opacity="1.000000" stroke="none" 
	d="
M19.989586,482.013184 
	C20.122328,482.156006 20.255072,482.298798 20.387814,482.441620 
	C20.297583,482.389740 20.207350,482.337860 20.058495,482.143127 
	C19.999872,482.000275 19.989590,482.013184 19.989586,482.013184 
z"/>
<path fill="#DCDCDD" opacity="1.000000" stroke="none" 
	d="
M39.007683,498.994202 
	C38.884338,498.845306 38.753292,498.702423 38.622261,498.559540 
	C38.712429,498.612122 38.802589,498.664703 38.940300,498.866516 
	C38.987846,499.015717 38.999981,499.000275 39.007683,498.994202 
z"/>
<path fill="#DCDCDD" opacity="1.000000" stroke="none" 
	d="
M20.006273,481.995270 
	C19.886614,481.842377 19.760551,481.694519 19.634487,481.546631 
	C19.722956,481.601868 19.811426,481.657104 19.944744,481.862762 
	C19.989590,482.013184 19.999872,482.000275 20.006273,481.995270 
z"/>
<path fill="#DCDCDD" opacity="1.000000" stroke="none" 
	d="
M495.987030,478.990234 
	C495.897003,479.033325 495.806976,479.076416 495.858276,479.059753 
	C495.999603,479.000000 495.987030,478.990234 495.987030,478.990234 
z"/>
<path fill="#DCDCDD" opacity="1.000000" stroke="none" 
	d="
M17.990440,479.012817 
	C18.115589,479.160004 18.240742,479.307190 18.365894,479.454376 
	C18.278131,479.399139 18.190367,479.343903 18.051388,479.144348 
	C18.000174,479.000000 17.990444,479.012817 17.990440,479.012817 
z"/>
<path fill="#DCDCDD" opacity="1.000000" stroke="none" 
	d="
M496.986115,477.989441 
	C496.899902,478.322723 496.719238,478.592804 496.215546,478.894958 
	C495.987030,478.990234 495.999603,479.000000 496.004517,479.006226 
	C496.095825,478.678894 496.277863,478.410126 496.777771,478.103271 
	C497.000000,478.000397 496.986115,477.989441 496.986115,477.989441 
z"/>
<path fill="#DCDCDD" opacity="1.000000" stroke="none" 
	d="
M470.005676,502.007385 
	C470.103394,501.972046 470.195435,501.929779 470.136841,501.938446 
	C469.986237,501.989410 470.000000,502.000427 470.005676,502.007385 
z"/>
<path fill="#DCDCDD" opacity="1.000000" stroke="none" 
	d="
M38.995262,14.993792 
	C38.920258,15.332199 38.737797,15.600325 38.215000,15.891132 
	C37.986797,15.990131 38.000027,16.000175 38.005287,16.006958 
	C38.078293,15.667980 38.259102,15.397935 38.782440,15.106292 
	C39.011902,15.008981 38.999935,14.999827 38.995262,14.993792 
z"/>
<path fill="#DCDCDD" opacity="1.000000" stroke="none" 
	d="
M13.994116,40.992172 
	C13.898062,41.025566 13.808133,41.066765 13.867069,41.060127 
	C14.015933,41.012295 14.000240,40.999981 13.994116,40.992172 
z"/>
<path fill="#DCDCDD" opacity="1.000000" stroke="none" 
	d="
M499.993683,41.005005 
	C500.118713,41.157627 500.249969,41.305328 500.381226,41.453033 
	C500.290131,41.399048 500.199005,41.345055 500.058716,41.139404 
	C500.009521,40.987751 499.999908,41.000080 499.993683,41.005005 
z"/>
<path fill="#DCDCDD" opacity="1.000000" stroke="none" 
	d="
M12.438899,43.542305 
	C12.398064,43.473270 12.479734,43.611336 12.438899,43.542305 
z"/>
<path fill="#DCDCDD" opacity="1.000000" stroke="none" 
	d="
M502.007172,43.994373 
	C501.881348,43.842884 501.748688,43.696873 501.616058,43.550850 
	C501.706543,43.604588 501.797028,43.658340 501.938599,43.862755 
	C501.989685,44.013420 502.000366,43.999851 502.007172,43.994373 
z"/>
<path fill="#DCDCDD" opacity="1.000000" stroke="none" 
	d="
M49.565346,504.460297 
	C49.611595,504.526459 49.519093,504.394135 49.565346,504.460297 
z"/>
<path fill="#DCDCDD" opacity="1.000000" stroke="none" 
	d="
M11.539963,45.559265 
	C11.473892,45.604122 11.606033,45.514404 11.539963,45.559265 
z"/>
<path fill="#DCDCDD" opacity="1.000000" stroke="none" 
	d="
M47.449059,503.438843 
	C47.517570,503.397675 47.380543,503.479980 47.449059,503.438843 
z"/>
<path fill="#DCDCDD" opacity="1.000000" stroke="none" 
	d="
M45.430870,502.540283 
	C45.385536,502.474518 45.476208,502.606079 45.430870,502.540283 
z"/>
<path fill="#DCDCDD" opacity="1.000000" stroke="none" 
	d="
M478.994690,495.992798 
	C478.916412,496.329041 478.732910,496.596069 478.211823,496.887909 
	C477.984772,496.988739 478.000000,497.000183 478.005920,497.007874 
	C478.086487,496.674133 478.269409,496.406677 478.786987,496.111633 
	C479.013428,496.010010 479.000000,495.999603 478.994690,495.992798 
z"/>
<path fill="#DCDCDD" opacity="1.000000" stroke="none" 
	d="
M43.431595,501.540100 
	C43.385952,501.474213 43.477238,501.605957 43.431595,501.540100 
z"/>
<path fill="#DCDCDD" opacity="1.000000" stroke="none" 
	d="
M472.995178,499.993896 
	C472.896423,500.027893 472.802460,500.067871 472.860168,500.058533 
	C473.011810,500.009186 473.000000,499.999878 472.995178,499.993896 
z"/>
<path fill="#DCDCDD" opacity="1.000000" stroke="none" 
	d="
M40.992191,500.005890 
	C41.115574,500.154419 41.246777,500.296783 41.377979,500.439178 
	C41.287975,500.386719 41.197968,500.334259 41.060127,500.132935 
	C41.012295,499.984070 41.000011,499.999756 40.992191,500.005890 
z"/>
<path fill="#DCDCDD" opacity="1.000000" stroke="none" 
	d="
M10.539907,47.558975 
	C10.473808,47.603897 10.606008,47.514057 10.539907,47.558975 
z"/>
<path fill="#DCDCDD" opacity="1.000000" stroke="none" 
	d="
M475.994873,497.993103 
	C475.922516,498.332794 475.741577,498.602783 475.217316,498.893616 
	C474.987671,498.990692 475.000000,499.000000 475.004822,499.006317 
	C475.080444,498.668579 475.262756,498.400360 475.784729,498.108795 
	C476.012787,498.009613 476.000000,497.999634 475.994873,497.993103 
z"/>
<path fill="#DCDCDD" opacity="1.000000" stroke="none" 
	d="
M497.993103,38.005241 
	C498.332703,38.077507 498.602692,38.258347 498.893768,38.782379 
	C498.990997,39.011909 499.000000,39.000008 499.006104,38.995308 
	C498.667877,38.920277 498.399719,38.737885 498.108704,38.215309 
	C498.009613,37.987198 497.999664,38.000153 497.993103,38.005241 
z"/>
<path fill="#DCDCDD" opacity="1.000000" stroke="none" 
	d="
M9.459989,49.435078 
	C9.526178,49.388851 9.393799,49.481304 9.459989,49.435078 
z"/>
<path fill="#DCDCDD" opacity="1.000000" stroke="none" 
	d="
M35.992683,497.005615 
	C36.120975,497.152161 36.256203,497.293030 36.391434,497.433929 
	C36.299862,497.383362 36.208294,497.332794 36.063572,497.134247 
	C36.010422,496.986298 35.999626,497.000000 35.992683,497.005615 
z"/>
<path fill="#DCDCDD" opacity="1.000000" stroke="none" 
	d="
M35.994164,16.992180 
	C35.914478,17.325527 35.731884,17.591848 35.220459,17.891890 
	C35.000286,18.000124 35.014217,18.011171 35.014217,18.011171 
	C35.087925,17.670046 35.270702,17.403809 35.788689,17.111698 
	C36.014828,17.010939 35.999916,16.999666 35.994164,16.992180 
z"/>
<path fill="#DCDCDD" opacity="1.000000" stroke="none" 
	d="
M481.991272,20.011429 
	C482.117828,20.157417 482.244415,20.303408 482.370972,20.449396 
	C482.281372,20.395908 482.191803,20.342421 482.051239,20.144375 
	C482.000275,19.999815 481.991272,20.011429 481.991272,20.011429 
z"/>
<path fill="#DCDCDD" opacity="1.000000" stroke="none" 
	d="
M31.987371,19.990051 
	C31.896118,20.032284 31.804863,20.074518 31.856686,20.058315 
	C31.999763,19.999878 31.987371,19.990051 31.987371,19.990051 
z"/>
<path fill="#DCDCDD" opacity="1.000000" stroke="none" 
	d="
M482.006165,19.995090 
	C481.877014,19.848677 481.741913,19.706985 481.606842,19.565290 
	C481.699310,19.615255 481.791779,19.665220 481.937744,19.863308 
	C481.991272,20.011429 482.000275,19.999815 482.006165,19.995090 
z"/>
<path fill="#DCDCDD" opacity="1.000000" stroke="none" 
	d="
M32.004517,20.005955 
	C32.102394,19.974987 32.195515,19.937943 32.138004,19.945473 
	C31.987371,19.990051 31.999763,19.999878 32.004517,20.005955 
z"/>
<path fill="#DCDCDD" opacity="1.000000" stroke="none" 
	d="
M15.005802,39.007706 
	C15.102070,38.974590 15.192294,38.933777 15.133400,38.940407 
	C14.984282,38.987846 14.999759,39.000011 15.005802,39.007706 
z"/>
<path fill="#DCDCDD" opacity="1.000000" stroke="none" 
	d="
M478.990234,18.012901 
	C479.124207,18.153303 479.258179,18.293695 479.392151,18.434078 
	C479.301239,18.383926 479.210327,18.333782 479.059692,18.141941 
	C479.000000,18.000246 478.990234,18.012894 478.990234,18.012901 
z"/>
<path fill="#DCDCDD" opacity="1.000000" stroke="none" 
	d="
M464.564362,9.460793 
	C464.609894,9.526117 464.518829,9.395468 464.564362,9.460793 
z"/>
<path fill="#DCDCDD" opacity="1.000000" stroke="none" 
	d="
M34.994904,17.993237 
	C34.897362,18.024170 34.805202,18.061987 34.863632,18.055489 
	C35.014217,18.011171 35.000286,18.000124 34.994904,17.993237 
z"/>
<path fill="#DCDCDD" opacity="1.000000" stroke="none" 
	d="
M479.006165,17.995461 
	C478.678467,17.904743 478.409180,17.723078 478.102417,17.222752 
	C478.000366,16.999821 477.990082,17.013067 477.990082,17.013067 
	C478.323547,17.099215 478.593475,17.280106 478.895081,17.784317 
	C478.990234,18.012894 479.000000,18.000246 479.006165,17.995461 
z"/>
<path fill="#DCDCDD" opacity="1.000000" stroke="none" 
	d="
M20.011656,32.008915 
	C20.103928,31.971832 20.196198,31.934748 20.144150,31.948696 
	C19.999830,31.999727 20.011656,32.008915 20.011656,32.008915 
z"/>
<path fill="#DCDCDD" opacity="1.000000" stroke="none" 
	d="
M466.550568,10.560225 
	C466.482880,10.600658 466.618256,10.519791 466.550568,10.560225 
z"/>
<path fill="#DCDCDD" opacity="1.000000" stroke="none" 
	d="
M478.007019,16.994488 
	C477.878418,16.848053 477.743195,16.706953 477.607941,16.565849 
	C477.699799,16.616236 477.791656,16.666628 477.936798,16.865044 
	C477.990082,17.013067 478.000366,16.999821 478.007019,16.994488 
z"/>
<path fill="#DCDCDD" opacity="1.000000" stroke="none" 
	d="
M468.460815,11.439803 
	C468.528595,11.399733 468.393036,11.479874 468.460815,11.439803 
z"/>
<path fill="#DCDCDD" opacity="1.000000" stroke="none" 
	d="
M43.994370,11.992831 
	C43.896637,12.028149 43.804379,12.070317 43.862770,12.061399 
	C44.013420,12.010310 43.999851,11.999682 43.994370,11.992831 
z"/>
<path fill="#DCDCDD" opacity="1.000000" stroke="none" 
	d="
M470.458618,12.439804 
	C470.526703,12.399745 470.390503,12.479862 470.458618,12.439804 
z"/>
<path fill="#DCDCDD" opacity="1.000000" stroke="none" 
	d="
M41.004997,14.006363 
	C41.103638,13.972416 41.197350,13.932272 41.139404,13.941309 
	C40.987755,13.990488 41.000065,14.000167 41.004997,14.006363 
z"/>
<path fill="#DCDCDD" opacity="1.000000" stroke="none" 
	d="
M473.007721,13.994179 
	C472.884033,13.845382 472.752655,13.702633 472.621246,13.559889 
	C472.711578,13.612382 472.801880,13.664870 472.940033,13.866549 
	C472.987854,14.015738 473.000000,14.000227 473.007721,13.994179 
z"/>
<path fill="#DCDCDD" opacity="1.000000" stroke="none" 
	d="
M474.992371,15.005757 
	C475.115662,15.154796 475.246582,15.297823 475.377502,15.440854 
	C475.287323,15.388205 475.197144,15.335551 475.059540,15.133636 
	C475.012085,14.984376 475.000000,14.999746 474.992371,15.005757 
z"/>
<path fill="#DCDCDD" opacity="1.000000" stroke="none" 
	d="
M16.986097,35.989513 
	C16.896667,36.033138 16.807236,36.076763 16.858738,36.060112 
	C16.999670,35.999836 16.986097,35.989513 16.986097,35.989513 
z"/>
<path fill="#DCDCDD" opacity="1.000000" stroke="none" 
	d="
M497.005676,478.007385 
	C497.101410,477.970673 497.191498,477.926910 497.133850,477.936310 
	C496.986115,477.989441 497.000000,478.000397 497.005676,478.007385 
z"/>
<path fill="#DCDCDD" opacity="1.000000" stroke="none" 
	d="
M498.994232,474.992371 
	C498.897797,475.025513 498.807373,475.066284 498.866272,475.059570 
	C499.015594,475.012085 499.000244,475.000000 498.994232,474.992371 
z"/>
<path fill="#DCDCDD" opacity="1.000000" stroke="none" 
	d="
M16.006870,475.994873 
	C15.667217,475.922516 15.397235,475.741577 15.106384,475.217316 
	C15.009310,474.987671 14.999947,475.000000 14.993656,475.004822 
	C15.331403,475.080505 15.599604,475.262848 15.891201,475.784760 
	C15.990434,476.012787 16.000336,476.000000 16.006870,475.994873 
z"/>
<path fill="#DCDCDD" opacity="1.000000" stroke="none" 
	d="
M500.005798,473.007690 
	C500.102142,472.974365 500.192444,472.933289 500.133545,472.940063 
	C499.984314,472.987854 499.999786,473.000000 500.005798,473.007690 
z"/>
<path fill="#DCDCDD" opacity="1.000000" stroke="none" 
	d="
M14.006159,472.995178 
	C13.880823,472.842590 13.749504,472.694794 13.618187,472.546997 
	C13.709497,472.600830 13.800806,472.654663 13.941470,472.860168 
	C13.990826,473.011810 14.000175,473.000000 14.006159,472.995178 
z"/>
<path fill="#DCDCDD" opacity="1.000000" stroke="none" 
	d="
M501.560120,470.459290 
	C501.600159,470.527313 501.520081,470.391266 501.560120,470.459290 
z"/>
<path fill="#DCDCDD" opacity="1.000000" stroke="none" 
	d="
M11.992822,470.005524 
	C12.118639,470.157043 12.251288,470.303070 12.383932,470.449097 
	C12.293443,470.395325 12.202958,470.341583 12.061392,470.137177 
	C12.010311,469.986511 11.999653,470.000000 11.992822,470.005524 
z"/>
<path fill="#DCDCDD" opacity="1.000000" stroke="none" 
	d="
M502.560211,468.460876 
	C502.600281,468.528687 502.520142,468.393036 502.560211,468.460876 
z"/>
<path fill="#DCDCDD" opacity="1.000000" stroke="none" 
	d="
M503.560181,466.460999 
	C503.600250,466.528839 503.520142,466.393188 503.560181,466.460999 
z"/>
<path fill="#DCDCDD" opacity="1.000000" stroke="none" 
	d="
M16.992109,478.005829 
	C17.326658,478.085297 17.594416,478.267883 17.889149,478.786133 
	C17.990444,479.012817 18.000174,479.000000 18.006790,478.994904 
	C17.669832,478.917755 17.402605,478.734436 17.111389,478.212402 
	C17.011055,477.985016 16.999634,478.000000 16.992109,478.005829 
z"/>
<path fill="#DCDCDD" opacity="1.000000" stroke="none" 
	d="
M504.539185,464.564392 
	C504.473877,464.609894 504.604492,464.518860 504.539185,464.564392 
z"/>
<path fill="#DCDCDD" opacity="1.000000" stroke="none" 
	d="
M495.988922,35.014103 
	C496.330200,35.087635 496.596466,35.270405 496.888397,35.788624 
	C496.989044,36.014835 497.000214,36.000042 497.007690,35.994251 
	C496.674255,35.914684 496.407898,35.732132 496.108032,35.220566 
	C496.000000,35.000324 495.988922,35.014103 495.988922,35.014103 
z"/>
<path fill="#DCDCDD" opacity="1.000000" stroke="none" 
	d="
M17.987225,34.990257 
	C17.900446,35.323460 17.718966,35.592854 17.214439,35.893974 
	C16.986097,35.989513 16.999670,35.999836 17.004868,36.006622 
	C17.096083,35.679634 17.277424,35.409981 17.777130,35.102379 
	C18.000172,35.000309 17.987225,34.990257 17.987225,34.990257 
z"/>
<path fill="#DCDCDD" opacity="1.000000" stroke="none" 
	d="
M496.006775,34.994957 
	C495.887390,34.841866 495.761230,34.694141 495.635071,34.546417 
	C495.723480,34.601864 495.811859,34.657314 495.944580,34.863434 
	C495.988922,35.014103 496.000000,35.000324 496.006775,34.994957 
z"/>
<path fill="#DCDCDD" opacity="1.000000" stroke="none" 
	d="
M18.005409,35.006859 
	C18.101334,34.970173 18.192022,34.926937 18.134968,34.936981 
	C17.987225,34.990257 18.000172,35.000309 18.005409,35.006859 
z"/>
<path fill="#DCDCDD" opacity="1.000000" stroke="none" 
	d="
M493.990662,32.012154 
	C494.115601,32.159260 494.240509,32.306362 494.365448,32.453468 
	C494.277802,32.398335 494.190125,32.343204 494.051392,32.143959 
	C494.000305,31.999842 493.990662,32.012154 493.990662,32.012154 
z"/>
<path fill="#DCDCDD" opacity="1.000000" stroke="none" 
	d="
M19.995007,31.993702 
	C19.898746,32.030430 19.807310,32.073185 19.863764,32.062424 
	C20.011656,32.008915 19.999830,31.999727 19.995007,31.993702 
z"/>
<path fill="#DCDCDD" opacity="1.000000" stroke="none" 
	d="
M494.006531,31.994843 
	C493.879089,31.845970 493.745422,31.702099 493.611725,31.558228 
	C493.703217,31.610022 493.794708,31.661816 493.938416,31.862881 
	C493.990662,32.012154 494.000305,31.999842 494.006531,31.994843 
z"/>
<path fill="#FDFEFF" opacity="1.000000" stroke="none" 
	d="
M294.243683,246.064545 
	C301.483368,254.607101 303.966034,264.452454 303.965790,275.564575 
	C303.749390,282.780121 303.993500,289.644226 302.957550,296.309418 
	C302.162567,301.424133 299.753601,306.287964 297.978516,311.614655 
	C290.239868,322.253876 279.662170,326.278778 267.209961,326.281342 
	C254.931137,326.283875 242.652298,326.289185 230.373505,326.270508 
	C229.090897,326.268585 227.808517,326.112518 226.040894,325.995972 
	C226.040894,323.456238 226.040894,321.177338 225.963501,318.449463 
	C225.934860,300.976990 225.983627,283.953583 225.954819,266.467468 
	C225.929123,255.979523 225.981003,245.954239 225.955597,235.466095 
	C225.929947,223.978012 225.981598,212.952805 225.957718,201.464111 
	C225.882187,190.368484 225.882187,179.736343 225.882187,169.479233 
	C226.543915,168.884369 226.792389,168.468979 227.029129,168.475555 
	C244.108521,168.950851 261.234558,168.861969 278.245575,170.216049 
	C286.850098,170.900986 293.398071,176.600189 297.594574,184.840790 
	C302.057465,196.045044 301.934143,207.480560 300.996552,218.935425 
	C300.252747,228.022552 296.886383,235.984421 289.113708,242.031143 
	C290.951233,243.515976 292.445770,244.723618 294.243683,246.064545 
M274.058929,296.386871 
	C274.653442,289.673798 275.665619,282.966644 275.760529,276.246521 
	C276.000122,259.281128 272.281860,255.991669 255.450989,257.402954 
	C255.151642,257.428070 254.869843,257.662689 254.383667,257.892151 
	C254.383667,271.826843 254.383667,285.839569 254.383667,300.167816 
	C257.839813,300.167816 261.045929,300.573120 264.096283,300.057281 
	C267.345490,299.507843 270.447327,298.086823 274.058929,296.386871 
M254.072632,228.241791 
	C254.878387,233.570572 259.023895,230.715515 261.447632,230.835449 
	C268.386230,231.178757 272.282288,228.392151 272.808990,222.407745 
	C273.387665,215.832764 273.245453,209.149124 272.832214,202.549469 
	C272.594269,198.749146 270.553223,195.412079 266.154297,195.080032 
	C262.265472,194.786484 258.336975,195.018555 254.070740,195.018555 
	C254.070740,206.112579 254.070740,216.698853 254.072632,228.241791 
z"/>
<path fill="#FFFDFD" opacity="1.000000" stroke="none" 
	d="
M101.028076,241.463837 
	C100.999306,235.310150 101.057076,229.617737 101.030617,223.463989 
	C101.002220,216.310654 101.058044,209.618668 101.030701,202.464554 
	C101.001747,194.644791 101.055969,187.287125 101.034393,179.466217 
	C102.216911,178.483002 103.469589,177.530228 104.734467,177.513748 
	C112.601028,177.411224 120.470337,177.518555 128.789459,177.758163 
	C129.226593,184.003067 129.212997,190.046082 129.296326,196.548889 
	C129.328476,203.702301 129.263687,210.395920 129.296906,217.549408 
	C129.329590,225.035583 129.264267,232.061905 129.296326,239.548157 
	C129.329529,245.703888 129.265335,251.399689 129.213501,258.013916 
	C129.225861,275.525208 129.225861,292.118011 129.225861,309.164978 
	C142.472519,309.164978 155.215759,309.164978 167.907242,309.164978 
	C168.181473,310.759094 168.377640,311.899445 168.458328,313.490814 
	C168.431015,319.306000 168.519180,324.670166 168.607346,330.034332 
	C168.414886,331.655426 168.222412,333.276550 167.993210,335.207062 
	C145.886749,335.207062 123.871895,335.207062 101.120377,335.207062 
	C101.120377,332.394897 101.120377,329.645416 101.030548,326.449341 
	C101.000542,318.310638 101.060371,310.618561 101.033661,302.464905 
	C101.000298,288.311401 101.053474,274.619415 101.019974,260.465942 
	C100.993744,253.978027 101.054184,247.951584 101.028076,241.463837 
z"/>
<path fill="#FEFEFE" opacity="1.000000" stroke="none" 
	d="
M352.812317,244.469543 
	C352.786346,239.650391 352.837494,235.291183 352.815491,230.473190 
	C353.097778,224.623917 353.453247,219.233414 353.796875,213.428894 
	C356.254974,201.990479 361.489258,192.930191 371.924103,187.602600 
	C372.766876,187.172318 373.749878,187.016617 374.851624,186.421417 
	C385.745453,183.976685 396.418518,183.098801 407.324036,187.083923 
	C415.221527,191.067154 421.235321,196.464294 424.699768,204.780182 
	C425.971039,211.713348 426.994904,218.416229 428.094971,225.565369 
	C428.113373,231.022369 428.055573,236.033157 427.994751,241.509033 
	C419.319092,242.001038 410.646362,242.027908 401.561584,241.483551 
	C401.079895,236.276489 401.010315,231.640656 401.035828,226.561859 
	C401.081451,223.964020 401.194489,221.790619 400.951355,219.657806 
	C400.281616,213.782455 397.186951,210.908905 391.608643,210.760208 
	C385.443329,210.595901 382.243896,213.037094 381.236877,219.078598 
	C380.861145,221.332596 381.142334,223.696091 381.050842,226.471970 
	C381.025665,232.624939 381.073608,238.315582 381.121582,244.006241 
	C381.065918,248.035355 381.010254,252.064484 381.041016,256.550323 
	C381.064484,265.701477 381.001495,274.395935 380.958069,284.014648 
	C380.982513,293.102234 380.805298,301.270966 381.049316,309.427063 
	C381.248230,316.074951 384.765137,319.303223 391.053070,319.310883 
	C397.389771,319.318604 400.869781,316.152344 401.027740,309.479614 
	C401.228638,300.994293 400.988678,292.498566 400.938782,284.007324 
	C402.395874,283.524567 403.846497,282.649475 405.311157,282.625397 
	C412.595551,282.505554 419.883636,282.609772 427.615234,282.810913 
	C427.733337,294.047668 427.406647,305.108704 427.122650,316.594025 
	C423.928925,331.612457 415.852264,341.622253 400.355591,345.076355 
	C392.916382,345.133789 385.836853,345.059845 378.380219,345.078247 
	C373.651611,342.669312 368.978851,340.588043 365.026001,337.565369 
	C359.486023,333.329041 356.366913,327.271362 354.507202,320.220428 
	C353.807739,306.281555 353.339050,292.613525 352.796173,278.483459 
	C352.777344,271.992645 352.832703,265.963898 352.811096,259.473145 
	C352.785889,254.317291 352.837616,249.623383 352.812317,244.469543 
z"/>
<path fill="#353237" opacity="1.000000" stroke="none" 
	d="
M400.474426,284.005554 
	C400.988678,292.498566 401.228638,300.994293 401.027740,309.479614 
	C400.869781,316.152344 397.389771,319.318604 391.053070,319.310883 
	C384.765137,319.303223 381.248230,316.074951 381.049316,309.427063 
	C380.805298,301.270966 380.982513,293.102234 381.050629,284.476135 
	C387.419098,284.010132 393.714600,284.006958 400.474426,284.005554 
z"/>
<path fill="#FE1116" opacity="1.000000" stroke="none" 
	d="
M169.035782,330.024353 
	C168.519180,324.670166 168.431015,319.306000 168.888306,313.478577 
	C177.547989,313.040833 185.662247,313.066376 193.776489,313.091888 
	C193.802826,318.435699 193.829163,323.779480 193.790070,329.593506 
	C185.637848,330.047241 177.551025,330.030792 169.035782,330.024353 
z"/>
<path fill="#FE1C22" opacity="1.000000" stroke="none" 
	d="
M193.837646,312.617859 
	C185.662247,313.066376 177.547989,313.040833 169.003784,313.027557 
	C168.377640,311.899445 168.181473,310.759094 167.907242,309.164978 
	C155.215759,309.164978 142.472519,309.164978 129.225861,309.164978 
	C129.225861,292.118011 129.225861,275.525208 129.314850,258.472198 
	C139.283340,258.024109 149.164841,257.916290 159.041794,258.080933 
	C169.634109,258.257507 180.220642,258.778076 190.812943,258.960205 
	C194.175583,259.018036 193.950958,261.074402 193.947586,263.296814 
	C193.922897,279.579163 193.913208,295.861481 193.837646,312.617859 
z"/>
<path fill="#55515A" opacity="1.000000" stroke="none" 
	d="
M400.940735,227.004822 
	C401.010315,231.640656 401.079895,236.276489 401.110321,241.364624 
	C399.672150,242.544479 398.302368,243.823486 396.868805,243.899460 
	C391.938721,244.160782 386.986267,244.001328 381.581970,244.004227 
	C381.073608,238.315582 381.025665,232.624939 381.465546,226.480621 
	C388.282501,226.352921 394.611633,226.678864 400.940735,227.004822 
z"/>
<path fill="#0282FF" opacity="1.000000" stroke="none" 
	d="
M273.836212,296.716614 
	C270.447327,298.086823 267.345490,299.507843 264.096283,300.057281 
	C261.045929,300.573120 257.839813,300.167816 254.383667,300.167816 
	C254.383667,285.839569 254.383667,271.826843 254.383667,257.892151 
	C254.869843,257.662689 255.151642,257.428070 255.450989,257.402954 
	C272.281860,255.991669 276.000122,259.281128 275.760529,276.246521 
	C275.665619,282.966644 274.653442,289.673798 273.836212,296.716614 
z"/>
<path fill="#018EFF" opacity="1.000000" stroke="none" 
	d="
M254.071686,227.763458 
	C254.070740,216.698853 254.070740,206.112579 254.070740,195.018555 
	C258.336975,195.018555 262.265472,194.786484 266.154297,195.080032 
	C270.553223,195.412079 272.594269,198.749146 272.832214,202.549469 
	C273.245453,209.149124 273.387665,215.832764 272.808990,222.407745 
	C272.282288,228.392151 268.386230,231.178757 261.447632,230.835449 
	C259.023895,230.715515 254.878387,233.570572 254.071686,227.763458 
z"/>
<path fill="#5F5B64" opacity="1.000000" stroke="none" 
	d="
M401.035828,226.561859 
	C394.611633,226.678864 388.282501,226.352921 381.538696,226.018311 
	C381.142334,223.696091 380.861145,221.332596 381.236877,219.078598 
	C382.243896,213.037094 385.443329,210.595901 391.608643,210.760208 
	C397.186951,210.908905 400.281616,213.782455 400.951355,219.657806 
	C401.194489,221.790619 401.081451,223.964020 401.035828,226.561859 
z"/>
</svg>