<svg version="1.1" id="Layer_1" xmlns="http://www.w3.org/2000/svg" xmlns:xlink="http://www.w3.org/1999/xlink" x="0px" y="0px"
	 width="100%" viewBox="0 0 360 360" enable-background="new 0 0 360 360" xml:space="preserve">
<path fill="#FFFFFF" opacity="1.000000" stroke="none" 
	d="
M361.000000,88.000000 
	C361.000000,179.333298 361.000000,270.166595 361.000000,360.999939 
	C241.000076,360.999939 121.000153,360.999939 1.000170,360.999969 
	C1.000113,241.000122 1.000113,121.000237 1.000057,1.000266 
	C120.999840,1.000178 240.999680,1.000178 360.999756,1.000089 
	C361.000000,29.833334 361.000000,58.666668 361.000000,88.000000 
M11.023314,220.850601 
	C11.071759,222.568436 11.120204,224.286270 11.025146,226.930908 
	C11.072131,233.954483 11.119117,240.978043 11.021926,248.928925 
	C11.070226,258.620575 11.118525,268.312256 11.022894,278.930847 
	C11.071878,291.621338 11.120863,304.311798 11.025166,317.929352 
	C11.025166,328.861847 11.025166,339.794373 11.025166,350.705322 
	C124.632843,350.705322 237.678864,350.705322 350.830536,350.705322 
	C350.830536,337.605255 350.830536,324.803711 350.981354,311.075531 
	C350.932068,304.050812 350.882782,297.026123 350.980865,289.075562 
	C350.932556,283.385162 350.884247,277.694794 350.985962,271.077118 
	C350.936462,263.384888 350.886963,255.692657 350.982697,247.073135 
	C350.932831,239.384232 350.882965,231.695343 350.983917,223.099945 
	C350.933380,219.734756 350.882843,216.369553 350.980042,212.092728 
	C350.930603,208.396545 350.881134,204.700378 350.979706,200.097885 
	C350.931519,196.733292 350.883331,193.368683 350.982117,189.081635 
	C350.933289,184.389038 350.884430,179.696442 350.981781,174.077667 
	C350.932678,168.386383 350.883575,162.695114 350.980225,156.076675 
	C350.931458,149.719360 350.882660,143.362061 350.979462,136.077194 
	C350.930817,129.386307 350.882141,122.695412 350.978088,115.077156 
	C350.929443,109.052689 350.880798,103.028229 350.974030,96.078903 
	C350.926483,91.054405 350.878906,86.029900 350.974335,80.079018 
	C350.927307,74.720383 350.880280,69.361740 350.973511,63.090656 
	C350.926849,59.394833 350.880188,55.699013 350.971771,51.136124 
	C350.926147,49.091301 350.880493,47.046478 350.973328,44.073341 
	C350.973328,33.158356 350.973328,22.243366 350.973328,11.166774 
	C342.245148,11.166774 334.123901,11.166774 325.089539,11.029460 
	C321.394104,11.075068 317.698669,11.120678 313.074310,11.028503 
	C225.376709,11.018922 137.679108,11.008787 49.981503,11.006691 
	C48.986553,11.006667 47.991604,11.111071 46.084206,11.033021 
	C42.388573,11.077532 38.692940,11.122043 34.147964,11.032038 
	C32.431442,11.076502 30.714916,11.120965 28.070671,11.030097 
	C22.481102,11.030097 16.891533,11.030097 11.166633,11.030097 
	C11.166633,25.105677 11.166633,38.554447 11.031569,52.915588 
	C11.077394,56.611897 11.123219,60.308201 11.033607,64.932175 
	C11.077295,71.622772 11.120984,78.313362 11.030894,85.921661 
	C11.076378,89.949028 11.121861,93.976402 11.030253,98.929550 
	C11.075856,104.287819 11.121460,109.646088 11.031894,115.916840 
	C11.078342,119.612549 11.124790,123.308258 11.032378,127.926521 
	C11.077510,132.618622 11.122642,137.310730 11.027970,142.925461 
	C11.074101,147.618668 11.120232,152.311874 11.028314,157.929169 
	C11.074357,162.954071 11.120400,167.978958 11.028132,173.926788 
	C11.074500,178.619232 11.120868,183.311676 11.027933,188.926865 
	C11.074274,193.619263 11.120614,198.311676 11.027284,203.911087 
	C11.073670,207.275101 11.120056,210.639114 11.025311,214.851746 
	C11.072458,216.568420 11.119604,218.285110 11.023314,220.850601 
z"/>
<path fill="#FF0034" opacity="1.000000" stroke="none" 
	d="
M350.830536,312.002136 
	C350.830536,324.803711 350.830536,337.605255 350.830536,350.705322 
	C237.678864,350.705322 124.632843,350.705322 11.025166,350.705322 
	C11.025166,339.794373 11.025166,328.861847 11.530746,317.465149 
	C15.977366,316.994446 20.113392,317.758301 22.944304,313.784607 
	C23.313211,313.266785 24.440805,313.109650 25.222614,313.095428 
	C29.794197,313.012360 34.367439,313.012329 38.940159,313.002289 
	C43.701611,312.991791 48.463123,312.992767 53.224567,313.005219 
	C57.963558,313.017578 62.704277,312.977142 67.441002,313.092682 
	C73.413567,313.238403 79.435242,314.115387 85.340843,313.596619 
	C93.515724,312.878540 101.565392,311.896942 109.716995,313.842407 
	C111.464828,314.259521 113.535431,313.350128 115.452377,313.022675 
	C116.533768,312.837921 117.618431,312.354980 118.678703,312.414520 
	C126.588173,312.858673 134.487640,313.723724 142.398636,313.829163 
	C150.253189,313.933868 158.115219,313.159973 165.978134,313.037018 
	C175.824463,312.883057 185.675720,313.062988 195.523346,312.957825 
	C198.146622,312.929871 200.803909,311.934082 203.377884,312.158661 
	C214.366989,313.117462 225.282578,313.773956 236.383987,313.197235 
	C251.577759,312.407928 266.843384,312.976532 282.078064,313.015564 
	C286.193420,313.026093 290.307892,313.298004 294.423553,313.323914 
	C302.475647,313.374603 310.528839,313.280212 318.580566,313.353973 
	C324.453888,313.407745 330.335693,313.911316 336.194977,313.698944 
	C341.087555,313.521606 345.953064,312.596252 350.830536,312.002136 
z"/>
<path fill="#FF003A" opacity="1.000000" stroke="none" 
	d="
M350.905945,311.538818 
	C345.953064,312.596252 341.087555,313.521606 336.194977,313.698944 
	C330.335693,313.911316 324.453888,313.407745 318.580566,313.353973 
	C310.528839,313.280212 302.475647,313.374603 294.423553,313.323914 
	C290.307892,313.298004 286.193420,313.026093 282.078064,313.015564 
	C266.843384,312.976532 251.577759,312.407928 236.383987,313.197235 
	C225.282578,313.773956 214.366989,313.117462 203.377884,312.158661 
	C200.803909,311.934082 198.146622,312.929871 195.523346,312.957825 
	C185.675720,313.062988 175.824463,312.883057 165.978134,313.037018 
	C158.115219,313.159973 150.253189,313.933868 142.398636,313.829163 
	C134.487640,313.723724 126.588173,312.858673 118.678703,312.414520 
	C117.618431,312.354980 116.533768,312.837921 115.452377,313.022675 
	C113.535431,313.350128 111.464828,314.259521 109.716995,313.842407 
	C101.565392,311.896942 93.515724,312.878540 85.340843,313.596619 
	C79.435242,314.115387 73.413567,313.238403 67.441002,313.092682 
	C62.704277,312.977142 57.963558,313.017578 53.224567,313.005219 
	C48.463123,312.992767 43.701611,312.991791 38.940159,313.002289 
	C34.367439,313.012329 29.794197,313.012360 25.222614,313.095428 
	C24.440805,313.109650 23.313211,313.266785 22.944304,313.784607 
	C20.113392,317.758301 15.977366,316.994446 11.603086,317.001617 
	C11.120863,304.311798 11.071878,291.621338 11.460993,278.516174 
	C17.631584,278.556427 23.358505,279.112122 29.098606,279.429443 
	C32.693352,279.628174 36.308411,279.431366 39.913479,279.478668 
	C44.357746,279.536987 48.800663,279.706146 53.244953,279.753754 
	C63.113522,279.859467 73.310791,277.603943 82.564667,283.935486 
	C83.217522,284.360626 83.606712,284.731293 84.043259,285.413605 
	C84.561600,285.919464 85.032585,286.113678 85.539307,286.377502 
	C85.575050,286.447113 85.679993,286.563171 85.576401,286.837341 
	C85.792900,287.175995 86.112984,287.240540 86.497925,287.368378 
	C86.562798,287.431671 86.688316,287.562439 86.580414,287.829285 
	C86.779388,288.134705 87.086273,288.173248 87.493225,288.260559 
	C87.593300,288.309296 87.771217,288.443115 87.631546,288.801727 
	C88.461823,289.554108 89.431778,289.947876 90.436890,290.388977 
	C90.472038,290.436340 90.589958,290.433411 90.509415,290.808289 
	C93.619743,292.129181 96.810616,293.075226 100.339615,293.963562 
	C101.119148,294.007904 101.560555,294.109863 102.104599,294.578705 
	C104.367439,295.170044 106.600166,295.857117 108.674232,295.532013 
	C114.816505,294.569153 120.896164,293.206909 127.053329,292.338715 
	C127.437775,292.997192 127.788376,293.615417 128.097870,293.595459 
	C140.315582,292.808472 152.518600,291.622986 164.747345,291.228790 
	C175.413498,290.885040 186.107971,291.519073 196.790253,291.538330 
	C203.001755,291.549530 209.216507,290.991608 215.425034,291.069611 
	C222.455017,291.157928 229.512466,291.357758 236.497375,292.088379 
	C243.458435,292.816528 250.544205,289.412750 257.417725,292.902527 
	C258.254364,293.327301 259.652557,292.664368 260.786591,292.481445 
	C263.655701,292.018707 266.522858,291.154510 269.390320,291.156586 
	C274.446869,291.160217 279.506470,291.641144 284.558655,292.007416 
	C296.114563,292.845245 307.782166,289.239044 319.285400,292.918793 
	C320.469055,293.297394 321.924011,292.899872 323.243835,292.769470 
	C332.441772,291.860565 341.637238,290.927032 350.833496,290.001404 
	C350.882782,297.026123 350.932068,304.050812 350.905945,311.538818 
z"/>
<path fill="#FF003D" opacity="1.000000" stroke="none" 
	d="
M350.907166,289.538513 
	C341.637238,290.927032 332.441772,291.860565 323.243835,292.769470 
	C321.924011,292.899872 320.469055,293.297394 319.285400,292.918793 
	C307.782166,289.239044 296.114563,292.845245 284.558655,292.007416 
	C279.506470,291.641144 274.446869,291.160217 269.390320,291.156586 
	C266.522858,291.154510 263.655701,292.018707 260.786591,292.481445 
	C259.652557,292.664368 258.254364,293.327301 257.417725,292.902527 
	C250.544205,289.412750 243.458435,292.816528 236.497375,292.088379 
	C229.512466,291.357758 222.455017,291.157928 215.425034,291.069611 
	C209.216507,290.991608 203.001755,291.549530 196.790253,291.538330 
	C186.107971,291.519073 175.413498,290.885040 164.747345,291.228790 
	C152.518600,291.622986 140.315582,292.808472 128.097870,293.595459 
	C127.788376,293.615417 127.437775,292.997192 127.244186,292.069427 
	C128.923782,289.982849 130.465546,288.503448 132.269180,286.789185 
	C134.194733,285.300110 136.648239,284.392822 137.378983,282.728943 
	C139.912308,276.960571 141.846878,270.929230 144.281738,265.230347 
	C145.513123,267.654236 146.472031,269.845764 147.251770,271.627777 
	C150.478119,271.627777 152.906967,271.501648 155.318466,271.652618 
	C161.348312,272.030121 167.370804,272.909210 173.395294,272.900818 
	C183.253296,272.887115 193.109955,272.309845 202.968460,272.012695 
	C205.642258,271.932068 208.320663,272.003326 211.396667,272.004639 
	C213.866608,272.340363 215.936798,272.676270 218.066025,273.357727 
	C219.810074,275.665588 221.161377,275.774261 222.406799,273.004089 
	C226.215805,272.340729 229.612869,271.679840 233.061279,271.364685 
	C234.953552,272.127838 236.819000,272.978912 238.630539,272.876526 
	C243.018829,272.628479 247.372299,271.764404 251.760574,271.516479 
	C253.287216,271.430237 255.140503,273.214722 256.390533,272.794403 
	C263.180359,270.511353 269.868378,274.618073 277.201996,271.810516 
	C283.182922,269.520782 290.910065,271.735016 297.858246,272.053986 
	C301.144440,272.204865 304.441559,272.971863 307.694611,272.783630 
	C312.219849,272.521729 316.708008,271.108704 321.212646,271.105743 
	C331.086884,271.099243 340.961517,271.669586 350.835938,272.004395 
	C350.884247,277.694794 350.932556,283.385162 350.907166,289.538513 
z"/>
<path fill="#FF3D66" opacity="1.000000" stroke="none" 
	d="
M11.164673,85.003960 
	C11.120984,78.313362 11.077295,71.622772 11.501177,64.465828 
	C17.699184,63.333084 23.416773,62.277382 29.162943,62.087753 
	C38.774536,61.770561 48.404373,62.009026 58.026531,62.008705 
	C71.544914,62.008255 85.063889,62.078545 98.581459,61.972477 
	C106.877495,61.907383 115.171959,61.375061 123.466095,61.399876 
	C135.558945,61.436054 147.650528,61.910786 159.743332,61.943230 
	C165.198639,61.957867 170.657578,61.099068 176.111008,61.140705 
	C178.956772,61.162441 182.407669,63.610283 184.516174,62.639759 
	C190.035965,60.099033 195.263901,61.838444 200.641937,61.952652 
	C209.078720,62.131817 217.534119,61.746910 225.955795,62.146015 
	C228.695786,62.275867 231.355026,64.110092 233.849823,65.514992 
	C227.097519,67.229279 220.546585,68.593346 213.937561,69.614899 
	C213.216110,69.030350 212.490097,68.474030 211.898468,68.591934 
	C193.994110,72.160011 176.094650,75.754593 158.224808,79.490402 
	C156.708359,79.807419 155.403580,81.136986 153.580353,82.110580 
	C148.544647,82.841255 143.929092,83.457520 138.930145,84.088066 
	C137.390457,85.170700 136.234161,86.239059 134.985260,87.549118 
	C134.367371,88.221550 133.842102,88.652283 132.965363,89.060730 
	C131.753220,89.384041 130.892517,89.729652 130.021118,89.666565 
	C130.185059,85.420120 127.545937,85.024971 124.708595,85.013725 
	C116.228500,84.980125 107.748100,84.977470 99.267990,85.007706 
	C93.534233,85.028152 87.800812,85.166000 82.067123,85.174995 
	C76.656120,85.183479 71.241928,84.955513 65.834549,85.075348 
	C56.725864,85.277214 47.621262,85.922127 38.515297,85.915176 
	C29.398195,85.908218 20.281530,85.331139 11.164673,85.003960 
z"/>
<path fill="#FF456C" opacity="1.000000" stroke="none" 
	d="
M326.002625,11.166774 
	C334.123901,11.166774 342.245148,11.166774 350.973328,11.166774 
	C350.973328,22.243366 350.973328,33.158356 350.451050,44.536949 
	C344.647705,44.622341 339.369385,44.197926 334.084747,43.878986 
	C328.864563,43.563938 323.635712,43.109005 318.414734,43.157505 
	C310.383270,43.232113 302.353943,43.952461 294.326233,43.910259 
	C283.706757,43.854431 273.091675,43.208179 262.471130,43.037006 
	C252.482040,42.876007 242.488174,42.973896 232.496674,43.016590 
	C228.510788,43.033623 224.526062,43.236427 220.539963,43.305466 
	C209.674316,43.493652 198.808334,43.770233 187.942245,43.781124 
	C182.242676,43.786839 176.534027,42.973488 170.844620,43.119572 
	C159.375702,43.414059 147.921188,44.402313 136.453201,44.561123 
	C125.002808,44.719685 113.542191,44.256115 102.088356,43.972271 
	C98.968903,43.894966 95.855194,43.237186 92.743271,43.269680 
	C83.623787,43.364922 74.507195,43.707920 65.388123,43.884464 
	C60.725647,43.974728 56.060310,43.920620 51.396259,43.924629 
	C44.464603,43.930595 37.518536,44.203255 30.606237,43.838562 
	C25.833921,43.586773 25.409355,42.039505 27.435211,37.787735 
	C28.391306,35.781132 28.867947,33.383404 28.931803,31.144924 
	C29.121651,24.489876 28.998945,17.825911 28.998392,11.165429 
	C30.714916,11.120965 32.431442,11.076502 34.573513,11.556351 
	C34.999378,16.574320 34.994030,21.067984 35.001362,25.561626 
	C35.011787,31.948919 36.764862,33.935978 43.208332,33.933174 
	C47.825127,33.931168 52.437725,33.249084 57.059864,33.039314 
	C59.635235,32.922432 62.232758,33.304081 64.809052,33.195145 
	C72.418045,32.873402 80.024284,32.071922 87.626060,32.134193 
	C93.044411,32.178574 98.449928,33.811417 103.868073,33.853802 
	C113.305244,33.927631 122.746056,33.163235 132.188660,33.063263 
	C137.301086,33.009129 142.421463,33.863003 147.536316,33.841789 
	C155.229935,33.809883 162.919998,33.258633 170.614944,33.131027 
	C180.425812,32.968330 190.240707,33.057201 200.052246,32.921043 
	C202.175018,32.891582 204.310715,32.013100 206.406479,32.130775 
	C215.290436,32.629589 224.154953,33.497059 233.041367,33.916115 
	C235.784485,34.045475 238.569321,33.139263 241.344864,32.783703 
	C243.283691,32.535328 245.244385,32.230755 247.186005,32.285046 
	C249.992737,32.363525 252.787033,32.817978 255.594330,32.970329 
	C257.524261,33.075073 259.467255,32.914429 261.404388,32.915894 
	C267.638367,32.920609 273.872314,32.954899 280.106293,32.958279 
	C282.848145,32.959763 285.597260,32.776440 288.330292,32.919910 
	C293.333527,33.182560 298.816620,35.091660 303.202820,33.627544 
	C308.862091,31.738480 313.930054,34.541569 319.393280,33.307667 
	C324.187317,32.224892 325.867523,31.830990 325.975464,26.644646 
	C326.082794,21.487398 326.001312,16.326225 326.002625,11.166774 
z"/>
<path fill="#FF4169" opacity="1.000000" stroke="none" 
	d="
M234.051193,65.164772 
	C231.355026,64.110092 228.695786,62.275867 225.955795,62.146015 
	C217.534119,61.746910 209.078720,62.131817 200.641937,61.952652 
	C195.263901,61.838444 190.035965,60.099033 184.516174,62.639759 
	C182.407669,63.610283 178.956772,61.162441 176.111008,61.140705 
	C170.657578,61.099068 165.198639,61.957867 159.743332,61.943230 
	C147.650528,61.910786 135.558945,61.436054 123.466095,61.399876 
	C115.171959,61.375061 106.877495,61.907383 98.581459,61.972477 
	C85.063889,62.078545 71.544914,62.008255 58.026531,62.008705 
	C48.404373,62.009026 38.774536,61.770561 29.162943,62.087753 
	C23.416773,62.277382 17.699184,63.333084 11.568896,64.001999 
	C11.123219,60.308201 11.077394,56.611897 11.533232,52.458382 
	C17.823271,52.334114 23.612427,52.943455 29.399820,52.927162 
	C36.023167,52.908520 42.642159,52.183998 49.268520,52.060814 
	C52.880650,51.993664 56.504723,52.756546 60.122311,52.746563 
	C64.249786,52.735180 68.379784,52.013893 72.502052,52.071915 
	C82.143860,52.207619 91.781868,52.867516 101.421104,52.860744 
	C111.373039,52.853756 121.322968,52.143650 131.276764,52.045734 
	C141.610123,51.944088 151.946899,52.244404 162.282532,52.297176 
	C168.541870,52.329140 174.803314,52.125500 181.061142,52.215015 
	C185.600662,52.279953 190.138962,52.895405 194.672272,52.836979 
	C204.376572,52.711914 214.075897,52.175854 223.780045,52.075066 
	C228.841782,52.022495 233.911636,52.788113 238.973892,52.743076 
	C250.353271,52.641827 261.729126,52.189499 273.108521,52.025566 
	C281.763580,51.900883 290.421844,51.999767 299.078705,52.000111 
	C316.330322,52.000801 333.581940,52.002125 350.833557,52.003189 
	C350.880188,55.699013 350.926849,59.394833 350.485626,63.547638 
	C345.059052,64.336411 340.123566,64.880241 335.180969,64.955315 
	C325.273773,65.105782 315.362671,64.991219 305.453186,65.002502 
	C295.936462,65.013344 286.343048,64.333046 276.933105,65.346870 
	C271.678253,65.913033 265.648010,63.447067 260.589355,68.018677 
	C259.891235,68.056740 259.612061,68.072945 259.126404,67.822861 
	C257.296509,61.718952 252.757996,62.871899 248.595581,63.328953 
	C243.738831,63.862251 238.898590,64.546188 234.051193,65.164772 
z"/>
<path fill="#FF436B" opacity="1.000000" stroke="none" 
	d="
M350.902649,51.569656 
	C333.581940,52.002125 316.330322,52.000801 299.078705,52.000111 
	C290.421844,51.999767 281.763580,51.900883 273.108521,52.025566 
	C261.729126,52.189499 250.353271,52.641827 238.973892,52.743076 
	C233.911636,52.788113 228.841782,52.022495 223.780045,52.075066 
	C214.075897,52.175854 204.376572,52.711914 194.672272,52.836979 
	C190.138962,52.895405 185.600662,52.279953 181.061142,52.215015 
	C174.803314,52.125500 168.541870,52.329140 162.282532,52.297176 
	C151.946899,52.244404 141.610123,51.944088 131.276764,52.045734 
	C121.322968,52.143650 111.373039,52.853756 101.421104,52.860744 
	C91.781868,52.867516 82.143860,52.207619 72.502052,52.071915 
	C68.379784,52.013893 64.249786,52.735180 60.122311,52.746563 
	C56.504723,52.756546 52.880650,51.993664 49.268520,52.060814 
	C42.642159,52.183998 36.023167,52.908520 29.399820,52.927162 
	C23.612427,52.943455 17.823271,52.334114 11.600763,52.002197 
	C11.166633,38.554447 11.166633,25.105677 11.166633,11.030097 
	C16.891533,11.030097 22.481102,11.030097 28.534531,11.097763 
	C28.998945,17.825911 29.121651,24.489876 28.931803,31.144924 
	C28.867947,33.383404 28.391306,35.781132 27.435211,37.787735 
	C25.409355,42.039505 25.833921,43.586773 30.606237,43.838562 
	C37.518536,44.203255 44.464603,43.930595 51.396259,43.924629 
	C56.060310,43.920620 60.725647,43.974728 65.388123,43.884464 
	C74.507195,43.707920 83.623787,43.364922 92.743271,43.269680 
	C95.855194,43.237186 98.968903,43.894966 102.088356,43.972271 
	C113.542191,44.256115 125.002808,44.719685 136.453201,44.561123 
	C147.921188,44.402313 159.375702,43.414059 170.844620,43.119572 
	C176.534027,42.973488 182.242676,43.786839 187.942245,43.781124 
	C198.808334,43.770233 209.674316,43.493652 220.539963,43.305466 
	C224.526062,43.236427 228.510788,43.033623 232.496674,43.016590 
	C242.488174,42.973896 252.482040,42.876007 262.471130,43.037006 
	C273.091675,43.208179 283.706757,43.854431 294.326233,43.910259 
	C302.353943,43.952461 310.383270,43.232113 318.414734,43.157505 
	C323.635712,43.109005 328.864563,43.563938 334.084747,43.878986 
	C339.369385,44.197926 344.647705,44.622341 350.381836,45.001106 
	C350.880493,47.046478 350.926147,49.091301 350.902649,51.569656 
z"/>
<path fill="#FF476E" opacity="1.000000" stroke="none" 
	d="
M325.546082,11.098117 
	C326.001312,16.326225 326.082794,21.487398 325.975464,26.644646 
	C325.867523,31.830990 324.187317,32.224892 319.393280,33.307667 
	C313.930054,34.541569 308.862091,31.738480 303.202820,33.627544 
	C298.816620,35.091660 293.333527,33.182560 288.330292,32.919910 
	C285.597260,32.776440 282.848145,32.959763 280.106293,32.958279 
	C273.872314,32.954899 267.638367,32.920609 261.404388,32.915894 
	C259.467255,32.914429 257.524261,33.075073 255.594330,32.970329 
	C252.787033,32.817978 249.992737,32.363525 247.186005,32.285046 
	C245.244385,32.230755 243.283691,32.535328 241.344864,32.783703 
	C238.569321,33.139263 235.784485,34.045475 233.041367,33.916115 
	C224.154953,33.497059 215.290436,32.629589 206.406479,32.130775 
	C204.310715,32.013100 202.175018,32.891582 200.052246,32.921043 
	C190.240707,33.057201 180.425812,32.968330 170.614944,33.131027 
	C162.919998,33.258633 155.229935,33.809883 147.536316,33.841789 
	C142.421463,33.863003 137.301086,33.009129 132.188660,33.063263 
	C122.746056,33.163235 113.305244,33.927631 103.868073,33.853802 
	C98.449928,33.811417 93.044411,32.178574 87.626060,32.134193 
	C80.024284,32.071922 72.418045,32.873402 64.809052,33.195145 
	C62.232758,33.304081 59.635235,32.922432 57.059864,33.039314 
	C52.437725,33.249084 47.825127,33.931168 43.208332,33.933174 
	C36.764862,33.935978 35.011787,31.948919 35.001362,25.561626 
	C34.994030,21.067984 34.999378,16.574320 34.998184,11.623610 
	C38.692940,11.122043 42.388573,11.077532 46.541496,11.539925 
	C47.003780,14.212077 46.443512,16.597914 47.177464,18.478697 
	C47.870384,20.254333 49.763962,22.514618 51.411728,22.774979 
	C55.396675,23.404638 59.546276,22.998404 63.629501,22.998949 
	C81.777397,23.001373 99.925758,23.079411 118.073006,22.970469 
	C129.109299,22.904217 140.282120,21.395056 151.134033,22.697277 
	C159.338028,23.681753 167.663757,19.726355 175.609680,23.855179 
	C176.287262,24.207264 177.503799,23.525831 178.468994,23.319994 
	C180.408859,22.906301 182.354172,22.106201 184.286499,22.137146 
	C195.484161,22.316467 206.677368,22.785067 217.875092,22.945864 
	C221.488831,22.997757 225.113922,22.152714 228.729904,22.183004 
	C234.105637,22.228037 239.480804,22.963154 244.850983,22.906981 
	C253.883499,22.812494 262.910095,22.180002 271.942841,22.070292 
	C276.225769,22.018269 280.520294,22.952686 284.803802,22.906567 
	C292.420502,22.824558 300.033142,22.085686 307.646881,22.095760 
	C313.992188,22.104158 313.992004,22.405031 313.999817,16.163200 
	C314.001923,14.497563 314.002167,12.831924 314.003235,11.166286 
	C317.698669,11.120678 321.394104,11.075068 325.546082,11.098117 
z"/>
<path fill="#FF4A70" opacity="1.000000" stroke="none" 
	d="
M313.538757,11.097395 
	C314.002167,12.831924 314.001923,14.497563 313.999817,16.163200 
	C313.992004,22.405031 313.992188,22.104158 307.646881,22.095760 
	C300.033142,22.085686 292.420502,22.824558 284.803802,22.906567 
	C280.520294,22.952686 276.225769,22.018269 271.942841,22.070292 
	C262.910095,22.180002 253.883499,22.812494 244.850983,22.906981 
	C239.480804,22.963154 234.105637,22.228037 228.729904,22.183004 
	C225.113922,22.152714 221.488831,22.997757 217.875092,22.945864 
	C206.677368,22.785067 195.484161,22.316467 184.286499,22.137146 
	C182.354172,22.106201 180.408859,22.906301 178.468994,23.319994 
	C177.503799,23.525831 176.287262,24.207264 175.609680,23.855179 
	C167.663757,19.726355 159.338028,23.681753 151.134033,22.697277 
	C140.282120,21.395056 129.109299,22.904217 118.073006,22.970469 
	C99.925758,23.079411 81.777397,23.001373 63.629501,22.998949 
	C59.546276,22.998404 55.396675,23.404638 51.411728,22.774979 
	C49.763962,22.514618 47.870384,20.254333 47.177464,18.478697 
	C46.443512,16.597914 47.003780,14.212077 46.997719,11.606777 
	C47.991604,11.111071 48.986553,11.006667 49.981503,11.006691 
	C137.679108,11.008787 225.376709,11.018922 313.538757,11.097395 
z"/>
<path fill="#FF0147" opacity="1.000000" stroke="none" 
	d="
M350.833069,224.006439 
	C350.882965,231.695343 350.932831,239.384232 350.530365,247.591034 
	C344.076172,248.740387 338.076691,249.396149 332.071106,249.989914 
	C329.986694,250.196014 327.876984,250.442032 325.796448,250.333176 
	C320.477844,250.054901 315.174744,249.420853 309.854919,249.241455 
	C304.338348,249.055405 298.805023,249.382675 293.287109,249.216690 
	C287.505554,249.042801 281.725891,248.179565 275.959747,248.300934 
	C270.302795,248.419998 264.663910,249.398361 259.059845,249.606140 
	C259.740173,240.140121 260.377777,231.067566 261.429565,222.050339 
	C263.290375,222.403320 264.735321,222.949661 266.183868,222.959503 
	C278.203064,223.041214 290.224670,222.903336 302.242188,223.070602 
	C314.055511,223.235031 325.864227,223.709763 337.676453,223.983871 
	C342.059814,224.085617 346.447418,224.004272 350.833069,224.006439 
z"/>
<path fill="#FF0147" opacity="1.000000" stroke="none" 
	d="
M11.166102,248.001617 
	C11.119117,240.978043 11.072131,233.954483 11.554560,226.466248 
	C51.052727,226.000244 90.021477,225.998901 128.992386,226.406982 
	C128.867111,228.687134 128.739670,230.557877 128.558441,232.437012 
	C128.504669,232.445404 128.453705,232.541626 128.152008,232.478302 
	C127.734131,232.760422 127.617943,233.105896 127.462814,233.425293 
	C127.423866,233.399231 127.412483,233.492264 127.117508,233.435867 
	C126.610054,233.687363 126.397583,233.995239 126.134247,234.247314 
	C126.083382,234.191513 126.227295,234.237244 125.847427,234.164856 
	C124.312317,234.668076 123.157059,235.243683 121.628372,235.979523 
	C114.176376,237.736969 107.002060,239.004990 100.047386,241.028076 
	C93.659630,242.886276 87.355316,245.302383 82.897057,251.169312 
	C82.577454,251.650925 82.513885,252.004242 82.470100,252.404968 
	C82.489883,252.452377 82.495583,252.554977 82.179840,252.448883 
	C81.242821,252.562271 80.621552,252.781738 79.999985,252.585785 
	C79.815269,250.832336 79.630867,249.494308 79.484940,248.435547 
	C75.802834,248.652466 72.848389,249.032272 69.904617,248.962387 
	C60.037704,248.728134 50.176800,248.205093 40.309425,248.036331 
	C30.597628,247.870239 20.880751,248.001083 11.166102,248.001617 
z"/>
<path fill="#FF0344" opacity="1.000000" stroke="none" 
	d="
M259.017090,249.999603 
	C264.663910,249.398361 270.302795,248.419998 275.959747,248.300934 
	C281.725891,248.179565 287.505554,249.042801 293.287109,249.216690 
	C298.805023,249.382675 304.338348,249.055405 309.854919,249.241455 
	C315.174744,249.420853 320.477844,250.054901 325.796448,250.333176 
	C327.876984,250.442032 329.986694,250.196014 332.071106,249.989914 
	C338.076691,249.396149 344.076172,248.740387 350.457764,248.054688 
	C350.886963,255.692657 350.936462,263.384888 350.910950,271.540771 
	C340.961517,271.669586 331.086884,271.099243 321.212646,271.105743 
	C316.708008,271.108704 312.219849,272.521729 307.694611,272.783630 
	C304.441559,272.971863 301.144440,272.204865 297.858246,272.053986 
	C290.910065,271.735016 283.182922,269.520782 277.201996,271.810516 
	C269.868378,274.618073 263.180359,270.511353 256.390533,272.794403 
	C255.140503,273.214722 253.287216,271.430237 251.760574,271.516479 
	C247.372299,271.764404 243.018829,272.628479 238.630539,272.876526 
	C236.819000,272.978912 234.953552,272.127838 233.446060,271.354187 
	C237.854950,268.808472 241.930389,266.618958 246.245514,264.187683 
	C247.392029,263.296478 248.298889,262.647034 249.508804,261.947327 
	C250.017456,261.429138 250.223038,260.961243 250.457047,260.520630 
	C250.485489,260.547913 250.531082,260.483643 250.840897,260.537933 
	C251.256927,260.237030 251.363159,259.881866 251.578735,259.660889 
	C251.688110,259.795135 251.519958,259.492401 251.828049,259.541412 
	C252.206223,259.239807 252.276306,258.889191 252.392700,258.500549 
	C252.439041,258.462494 252.429153,258.343018 252.797318,258.453430 
	C253.624725,257.579987 254.083969,256.596100 254.747803,255.765442 
	C254.809906,255.825256 254.667419,255.731812 254.891525,255.648865 
	C256.511139,253.772766 257.764130,251.886185 259.017090,249.999603 
z"/>
<path fill="#FF0042" opacity="1.000000" stroke="none" 
	d="
M11.094014,248.465271 
	C20.880751,248.001083 30.597628,247.870239 40.309425,248.036331 
	C50.176800,248.205093 60.037704,248.728134 69.904617,248.962387 
	C72.848389,249.032272 75.802834,248.652466 79.484940,248.435547 
	C79.630867,249.494308 79.815269,250.832336 79.958893,252.956421 
	C78.721367,257.319611 77.237267,260.831299 76.404228,264.491150 
	C75.466949,268.608948 75.717430,272.720581 79.098404,276.362854 
	C80.223183,279.106903 81.262085,281.493958 82.300995,283.881012 
	C73.310791,277.603943 63.113522,279.859467 53.244953,279.753754 
	C48.800663,279.706146 44.357746,279.536987 39.913479,279.478668 
	C36.308411,279.431366 32.693352,279.628174 29.098606,279.429443 
	C23.358505,279.112122 17.631584,278.556427 11.532957,278.052704 
	C11.118525,268.312256 11.070226,258.620575 11.094014,248.465271 
z"/>
<path fill="#FF3560" opacity="1.000000" stroke="none" 
	d="
M11.167063,115.004356 
	C11.121460,109.646088 11.075856,104.287819 11.516515,98.463760 
	C23.614960,97.675575 35.226879,97.114311 46.839405,97.101440 
	C57.369324,97.089767 67.898262,97.798050 78.430977,97.940002 
	C82.878433,97.999939 87.331284,97.310966 91.788017,97.182434 
	C93.899597,97.121536 96.050362,97.901581 98.141701,97.744766 
	C108.634125,96.958008 119.071487,96.385414 128.990692,101.465584 
	C128.992188,107.620544 128.985703,113.307335 128.630722,118.940842 
	C125.707672,116.308014 123.897072,112.615913 118.928665,114.415276 
	C116.502213,115.294060 113.590042,114.995346 110.902290,114.951210 
	C106.702286,114.882225 102.504311,114.374245 98.308800,114.413055 
	C89.234955,114.496994 80.163689,114.948433 71.090446,114.979294 
	C65.231064,114.999222 59.361088,114.214989 53.511993,114.376266 
	C45.843960,114.587685 38.197857,115.667557 30.531006,115.825912 
	C24.084764,115.959053 17.622330,115.308159 11.167063,115.004356 
z"/>
<path fill="#FF2F5C" opacity="1.000000" stroke="none" 
	d="
M350.833496,116.004524 
	C350.882141,122.695412 350.930817,129.386307 350.517883,136.530365 
	C346.647522,136.989029 343.238770,136.997574 339.830017,136.999374 
	C331.675781,137.003662 323.519012,136.878571 315.368103,137.044937 
	C308.148987,137.192276 300.939117,137.841339 293.720398,137.948105 
	C282.830383,138.109177 271.936218,137.991104 261.029358,137.524139 
	C260.995911,130.045044 260.976990,123.033455 260.973328,115.683456 
	C261.006775,114.893639 261.024963,114.442215 261.438721,114.044403 
	C266.014954,114.432297 270.190704,114.865005 274.377625,115.072723 
	C278.420746,115.273308 282.482666,115.113167 286.523407,115.340706 
	C293.675171,115.743416 300.812012,116.612259 307.964783,116.739052 
	C314.721649,116.858833 321.489624,116.229935 328.255585,116.024895 
	C330.658722,115.952072 333.070679,116.232491 335.477905,116.220161 
	C340.596680,116.193962 345.714996,116.081581 350.833496,116.004524 
z"/>
<path fill="#FF2355" opacity="1.000000" stroke="none" 
	d="
M11.166444,173.003860 
	C11.120400,167.978958 11.074357,162.954071 11.548961,157.465515 
	C18.012449,156.679810 23.958038,156.046082 29.897577,156.098434 
	C43.685905,156.220001 57.470398,156.730240 71.258560,156.950867 
	C74.690422,157.005798 78.131554,156.359543 81.566292,156.380692 
	C91.344322,156.440857 101.177498,157.381256 110.879112,156.603943 
	C117.509628,156.072708 123.449745,156.150223 129.002747,160.464966 
	C129.004150,165.620132 128.997162,170.309113 128.626221,174.934692 
	C126.798271,174.234863 125.353180,173.107056 123.866928,173.049911 
	C118.421371,172.840515 112.962120,172.996017 107.508026,172.998276 
	C94.525154,173.003647 81.540627,173.128860 68.559898,172.962021 
	C56.705791,172.809662 44.856968,172.148254 33.003578,172.075455 
	C25.726706,172.030762 18.445631,172.671112 11.166444,173.003860 
z"/>
<path fill="#FF1D52" opacity="1.000000" stroke="none" 
	d="
M11.097288,173.465332 
	C18.445631,172.671112 25.726706,172.030762 33.003578,172.075455 
	C44.856968,172.148254 56.705791,172.809662 68.559898,172.962021 
	C81.540627,173.128860 94.525154,173.003647 107.508026,172.998276 
	C112.962120,172.996017 118.421371,172.840515 123.866928,173.049911 
	C125.353180,173.107056 126.798271,174.234863 128.633759,175.399506 
	C128.999283,180.284119 128.993301,184.640533 128.596039,188.991455 
	C125.108032,188.990646 122.007645,189.093933 118.915421,188.978485 
	C113.302223,188.768936 107.694580,188.224960 102.083298,188.205582 
	C97.216209,188.188797 92.345390,188.964371 87.479607,188.928543 
	C78.676079,188.863800 69.875000,188.245972 61.073040,188.249084 
	C52.214314,188.252228 43.355335,188.950485 34.497242,188.933731 
	C26.720015,188.919022 18.943861,188.336090 11.167235,188.004120 
	C11.120868,183.311676 11.074500,178.619232 11.097288,173.465332 
z"/>
<path fill="#FF2958" opacity="1.000000" stroke="none" 
	d="
M261.043823,137.991669 
	C271.936218,137.991104 282.830383,138.109177 293.720398,137.948105 
	C300.939117,137.841339 308.148987,137.192276 315.368103,137.044937 
	C323.519012,136.878571 331.675781,137.003662 339.830017,136.999374 
	C343.238770,136.997574 346.647522,136.989029 350.445068,136.994141 
	C350.882660,143.362061 350.931458,149.719360 350.456360,156.539001 
	C320.301636,156.998413 290.670807,156.995499 261.027435,156.525238 
	C261.024536,150.035812 261.034180,144.013748 261.043823,137.991669 
z"/>
<path fill="#FF2958" opacity="1.000000" stroke="none" 
	d="
M128.994354,159.998779 
	C123.449745,156.150223 117.509628,156.072708 110.879112,156.603943 
	C101.177498,157.381256 91.344322,156.440857 81.566292,156.380692 
	C78.131554,156.359543 74.690422,157.005798 71.258560,156.950867 
	C57.470398,156.730240 43.685905,156.220001 29.897577,156.098434 
	C23.958038,156.046082 18.012449,156.679810 11.617985,157.003464 
	C11.120232,152.311874 11.074101,147.618668 11.554642,142.463272 
	C21.184980,141.667450 30.286608,141.225281 39.393326,141.054047 
	C42.996735,140.986282 46.608845,141.689178 50.221607,141.745636 
	C57.374966,141.857437 64.531914,141.805588 71.686661,141.741379 
	C77.218018,141.691742 82.748474,141.528854 88.278938,141.399460 
	C91.420578,141.325958 94.565811,141.067596 97.701683,141.158768 
	C103.651024,141.331757 109.714645,142.543930 115.504669,141.725220 
	C120.548553,141.011993 124.816528,141.194077 128.984558,144.335754 
	C129.006912,145.128357 129.019821,145.581207 129.029205,146.495239 
	C129.015228,151.303879 129.004791,155.651321 128.994354,159.998779 
z"/>
<path fill="#FF3560" opacity="1.000000" stroke="none" 
	d="
M350.905792,115.540840 
	C345.714996,116.081581 340.596680,116.193962 335.477905,116.220161 
	C333.070679,116.232491 330.658722,115.952072 328.255585,116.024895 
	C321.489624,116.229935 314.721649,116.858833 307.964783,116.739052 
	C300.812012,116.612259 293.675171,115.743416 286.523407,115.340706 
	C282.482666,115.113167 278.420746,115.273308 274.377625,115.072723 
	C270.190704,114.865005 266.014954,114.432297 261.426422,113.577576 
	C261.021942,107.370247 261.025360,101.683342 261.472412,95.997620 
	C266.027893,96.332542 270.143921,96.992790 274.250885,96.940422 
	C288.034088,96.764648 301.813629,96.096481 315.595306,96.074860 
	C327.340424,96.056427 339.086487,96.669861 350.832153,97.003761 
	C350.880798,103.028229 350.929443,109.052689 350.905792,115.540840 
z"/>
<path fill="#FF2B5A" opacity="1.000000" stroke="none" 
	d="
M128.975113,143.996017 
	C124.816528,141.194077 120.548553,141.011993 115.504669,141.725220 
	C109.714645,142.543930 103.651024,141.331757 97.701683,141.158768 
	C94.565811,141.067596 91.420578,141.325958 88.278938,141.399460 
	C82.748474,141.528854 77.218018,141.691742 71.686661,141.741379 
	C64.531914,141.805588 57.374966,141.857437 50.221607,141.745636 
	C46.608845,141.689178 42.996735,140.986282 39.393326,141.054047 
	C30.286608,141.225281 21.184980,141.667450 11.624544,142.001953 
	C11.122642,137.310730 11.077510,132.618622 11.488866,127.454803 
	C18.247328,126.988846 24.549301,126.998772 30.851276,126.999489 
	C44.178772,127.001015 57.506325,127.019257 70.833725,126.983086 
	C74.753082,126.972443 78.676392,126.635582 82.590248,126.738594 
	C91.524170,126.973770 100.452461,127.619263 109.384781,127.654343 
	C116.044449,127.680496 122.905159,125.296356 128.987823,130.461060 
	C128.987823,135.282745 128.981476,139.639389 128.975113,143.996017 
z"/>
<path fill="#FF174F" opacity="1.000000" stroke="none" 
	d="
M11.097584,188.465500 
	C18.943861,188.336090 26.720015,188.919022 34.497242,188.933731 
	C43.355335,188.950485 52.214314,188.252228 61.073040,188.249084 
	C69.875000,188.245972 78.676079,188.863800 87.479607,188.928543 
	C92.345390,188.964371 97.216209,188.188797 102.083298,188.205582 
	C107.694580,188.224960 113.302223,188.768936 118.915421,188.978485 
	C122.007645,189.093933 125.108032,188.990646 128.602631,189.456421 
	C128.995483,194.283127 128.990448,198.639389 128.571716,202.996979 
	C126.358704,202.779190 124.557320,202.355637 122.760429,202.373856 
	C110.309746,202.500000 97.860527,202.776840 85.409790,202.889923 
	C73.301460,202.999908 61.191387,202.924026 49.083294,203.047897 
	C46.794529,203.071320 44.505409,203.960983 42.226761,203.917007 
	C31.871477,203.717117 21.519878,203.326233 11.166955,203.004059 
	C11.120614,198.311676 11.074274,193.619263 11.097584,188.465500 
z"/>
<path fill="#FF2355" opacity="1.000000" stroke="none" 
	d="
M261.039978,156.992584 
	C290.670807,156.995499 320.301636,156.998413 350.383484,157.002594 
	C350.883575,162.695114 350.932678,168.386383 350.475952,174.539459 
	C345.733673,175.009399 341.496094,174.958206 337.260925,175.036682 
	C323.995728,175.282471 310.731995,175.756729 297.466736,175.792496 
	C287.932709,175.818222 278.395081,175.338181 268.863770,174.964005 
	C266.246002,174.861221 263.645172,174.327896 261.025818,173.525482 
	C261.023346,167.703400 261.031647,162.347992 261.039978,156.992584 
z"/>
<path fill="#FF3862" opacity="1.000000" stroke="none" 
	d="
M350.903076,96.541336 
	C339.086487,96.669861 327.340424,96.056427 315.595306,96.074860 
	C301.813629,96.096481 288.034088,96.764648 274.250885,96.940422 
	C270.143921,96.992790 266.027893,96.332542 261.461304,95.531235 
	C261.010529,90.041351 261.014496,85.019035 261.431885,79.998840 
	C266.737305,80.031441 271.631622,79.976562 276.520721,80.111893 
	C284.363922,80.328979 292.203033,80.873299 300.044983,80.895432 
	C305.892578,80.911942 311.744812,80.013260 317.589783,80.068695 
	C328.672302,80.173798 339.751038,80.671051 350.831360,81.005402 
	C350.878906,86.029900 350.926483,91.054405 350.903076,96.541336 
z"/>
<path fill="#FF3862" opacity="1.000000" stroke="none" 
	d="
M128.982712,100.997406 
	C119.071487,96.385414 108.634125,96.958008 98.141701,97.744766 
	C96.050362,97.901581 93.899597,97.121536 91.788017,97.182434 
	C87.331284,97.310966 82.878433,97.999939 78.430977,97.940002 
	C67.898262,97.798050 57.369324,97.089767 46.839405,97.101440 
	C35.226879,97.114311 23.614960,97.675575 11.585060,98.000870 
	C11.121861,93.976402 11.076378,89.949028 11.097784,85.462814 
	C20.281530,85.331139 29.398195,85.908218 38.515297,85.915176 
	C47.621262,85.922127 56.725864,85.277214 65.834549,85.075348 
	C71.241928,84.955513 76.656120,85.183479 82.067123,85.174995 
	C87.800812,85.166000 93.534233,85.028152 99.267990,85.007706 
	C107.748100,84.977470 116.228500,84.980125 124.708595,85.013725 
	C127.545937,85.024971 130.185059,85.420120 130.005951,90.073486 
	C129.661880,94.258537 129.322296,97.627975 128.982712,100.997406 
z"/>
<path fill="#FF2F5C" opacity="1.000000" stroke="none" 
	d="
M128.981461,129.995987 
	C122.905159,125.296356 116.044449,127.680496 109.384781,127.654343 
	C100.452461,127.619263 91.524170,126.973770 82.590248,126.738594 
	C78.676392,126.635582 74.753082,126.972443 70.833725,126.983086 
	C57.506325,127.019257 44.178772,127.001015 30.851276,126.999489 
	C24.549301,126.998772 18.247328,126.988846 11.558296,126.993530 
	C11.124790,123.308258 11.078342,119.612549 11.099478,115.460602 
	C17.622330,115.308159 24.084764,115.959053 30.531006,115.825912 
	C38.197857,115.667557 45.843960,114.587685 53.511993,114.376266 
	C59.361088,114.214989 65.231064,114.999222 71.090446,114.979294 
	C80.163689,114.948433 89.234955,114.496994 98.308800,114.413055 
	C102.504311,114.374245 106.702286,114.882225 110.902290,114.951210 
	C113.590042,114.995346 116.502213,115.294060 118.928665,114.415276 
	C123.897072,112.615913 125.707672,116.308014 128.638519,119.399498 
	C128.990356,123.272942 128.985901,126.634468 128.981461,129.995987 
z"/>
<path fill="#FF3D66" opacity="1.000000" stroke="none" 
	d="
M350.902832,80.542206 
	C339.751038,80.671051 328.672302,80.173798 317.589783,80.068695 
	C311.744812,80.013260 305.892578,80.911942 300.044983,80.895432 
	C292.203033,80.873299 284.363922,80.328979 276.520721,80.111893 
	C271.631622,79.976562 266.737305,80.031441 261.422028,79.538620 
	C261.001953,75.383133 261.005127,71.689972 261.008331,67.996819 
	C265.648010,63.447067 271.678253,65.913033 276.933105,65.346870 
	C286.343048,64.333046 295.936462,65.013344 305.453186,65.002502 
	C315.362671,64.991219 325.273773,65.105782 335.180969,64.955315 
	C340.123566,64.880241 345.059052,64.336411 350.415466,64.003860 
	C350.880280,69.361740 350.927307,74.720383 350.902832,80.542206 
z"/>
<path fill="#FF1D52" opacity="1.000000" stroke="none" 
	d="
M261.036560,173.992126 
	C263.645172,174.327896 266.246002,174.861221 268.863770,174.964005 
	C278.395081,175.338181 287.932709,175.818222 297.466736,175.792496 
	C310.731995,175.756729 323.995728,175.282471 337.260925,175.036682 
	C341.496094,174.958206 345.733673,175.009399 350.402863,175.002548 
	C350.884430,179.696442 350.933289,184.389038 350.494446,189.543121 
	C344.788910,190.003082 339.568970,189.906021 334.353607,190.019669 
	C323.008118,190.266846 311.666473,190.721497 300.320282,190.899094 
	C291.949402,191.030106 283.566223,191.056641 275.203156,190.741531 
	C270.463135,190.562912 265.752594,189.601654 261.019684,188.535797 
	C260.999542,184.720932 260.988464,181.363190 260.986633,177.604172 
	C261.009430,176.132645 261.022980,175.062393 261.036560,173.992126 
z"/>
<path fill="#FF104C" opacity="1.000000" stroke="none" 
	d="
M11.097119,203.457581 
	C21.519878,203.326233 31.871477,203.717117 42.226761,203.917007 
	C44.505409,203.960983 46.794529,203.071320 49.083294,203.047897 
	C61.191387,202.924026 73.301460,202.999908 85.409790,202.889923 
	C97.860527,202.776840 110.309746,202.500000 122.760429,202.373856 
	C124.557320,202.355637 126.358704,202.779190 128.577408,203.455505 
	C128.993362,207.274109 128.989899,210.635529 128.567032,213.997818 
	C123.903915,213.999130 119.660210,213.999878 115.416512,213.999939 
	C102.860535,214.000107 90.304558,214.000000 77.748581,214.000000 
	C64.283012,214.000000 50.817440,213.999634 37.351871,214.000137 
	C28.623394,214.000458 19.894918,214.002075 11.166442,214.003128 
	C11.120056,210.639114 11.073670,207.275101 11.097119,203.457581 
z"/>
<path fill="#FF174F" opacity="1.000000" stroke="none" 
	d="
M261.028778,188.992905 
	C265.752594,189.601654 270.463135,190.562912 275.203156,190.741531 
	C283.566223,191.056641 291.949402,191.030106 300.320282,190.899094 
	C311.666473,190.721497 323.008118,190.266846 334.353607,190.019669 
	C339.568970,189.906021 344.788910,190.003082 350.420959,190.004333 
	C350.883331,193.368683 350.931519,196.733292 350.490417,200.549896 
	C347.878876,201.287643 345.758240,201.807144 343.634155,201.821945 
	C327.229095,201.936264 310.822052,201.843948 294.418274,202.037735 
	C283.289124,202.169220 272.164246,202.659805 261.027161,202.526352 
	C261.020844,197.706238 261.024811,193.349564 261.028778,188.992905 
z"/>
<path fill="#FF0A4B" opacity="1.000000" stroke="none" 
	d="
M350.908508,223.553192 
	C346.447418,224.004272 342.059814,224.085617 337.676453,223.983871 
	C325.864227,223.709763 314.055511,223.235031 302.242188,223.070602 
	C290.224670,222.903336 278.203064,223.041214 266.183868,222.959503 
	C264.735321,222.949661 263.290375,222.403320 261.425659,221.600815 
	C261.014252,218.395004 261.020935,215.694046 261.461304,212.994873 
	C267.755768,212.667923 273.619537,212.017761 279.476685,212.073013 
	C294.693878,212.216568 309.907196,212.732666 325.124054,212.975677 
	C333.691437,213.112488 342.262726,213.002930 350.832275,213.004364 
	C350.882843,216.369553 350.933380,219.734756 350.908508,223.553192 
z"/>
<path fill="#FF104C" opacity="1.000000" stroke="none" 
	d="
M350.906158,212.548553 
	C342.262726,213.002930 333.691437,213.112488 325.124054,212.975677 
	C309.907196,212.732666 294.693878,212.216568 279.476685,212.073013 
	C273.619537,212.017761 267.755768,212.667923 261.453796,212.541458 
	C261.020874,209.054092 261.029144,206.021957 261.037415,202.989807 
	C272.164246,202.659805 283.289124,202.169220 294.418274,202.037735 
	C310.822052,201.843948 327.229095,201.936264 343.634155,201.821945 
	C345.758240,201.807144 347.878876,201.287643 350.416382,201.003052 
	C350.881134,204.700378 350.930603,208.396545 350.906158,212.548553 
z"/>
<path fill="#FF0A4B" opacity="1.000000" stroke="none" 
	d="
M11.095877,214.427429 
	C19.894918,214.002075 28.623394,214.000458 37.351871,214.000137 
	C50.817440,213.999634 64.283012,214.000000 77.748581,214.000000 
	C90.304558,214.000000 102.860535,214.000107 115.416512,213.999939 
	C119.660210,213.999878 123.903915,213.999130 128.571548,214.426514 
	C128.992920,216.568787 128.990356,218.283203 128.524765,219.998413 
	C89.096741,220.000046 50.131744,220.000916 11.166751,220.001785 
	C11.119604,218.285110 11.072458,216.568420 11.095877,214.427429 
z"/>
<path fill="#FF0649" opacity="1.000000" stroke="none" 
	d="
M11.095033,220.426193 
	C50.131744,220.000916 89.096741,220.000046 128.528503,220.427002 
	C128.993591,222.569077 128.991913,224.283325 128.990234,225.997559 
	C90.021477,225.998901 51.052727,226.000244 11.626310,226.002853 
	C11.120204,224.286270 11.071759,222.568436 11.095033,220.426193 
z"/>
<path fill="#FFFBFC" opacity="1.000000" stroke="none" 
	d="
M82.564667,283.935486 
	C81.262085,281.493958 80.223183,279.106903 79.155396,275.941040 
	C76.983231,267.139709 78.404099,259.648346 82.495583,252.554977 
	C82.495583,252.554977 82.489883,252.452377 82.682220,252.252335 
	C82.967400,251.715195 83.060249,251.378098 83.153091,251.041000 
	C87.355316,245.302383 93.659630,242.886276 100.047386,241.028076 
	C107.002060,239.004990 114.176376,237.736969 121.963745,236.000092 
	C123.857468,235.319366 125.042381,234.778305 126.227295,234.237244 
	C126.227295,234.237244 126.083382,234.191513 126.395859,234.210938 
	C126.943054,233.984344 127.177773,233.738297 127.412483,233.492264 
	C127.412483,233.492264 127.423866,233.399231 127.676743,233.340057 
	C128.201996,233.103699 128.376694,232.857285 128.453705,232.541626 
	C128.453705,232.541626 128.504669,232.445404 128.787369,232.267578 
	C129.392181,231.412933 129.714310,230.736115 130.317841,229.741974 
	C130.707138,221.954697 130.815018,214.484741 131.003265,206.551147 
	C131.018158,186.062653 130.952667,166.037811 130.994644,145.554169 
	C131.110916,129.617416 130.999023,114.137688 131.227524,98.662994 
	C131.274811,95.460083 132.587402,92.275856 133.316818,89.083023 
	C133.842102,88.652283 134.367371,88.221550 135.310822,87.417023 
	C136.923843,86.053406 138.118683,85.063591 139.313522,84.073776 
	C143.929092,83.457520 148.544647,82.841255 154.000824,82.163651 
	C156.789627,81.732185 158.743378,81.388885 160.685165,80.987762 
	C178.456512,77.316689 196.225769,73.635590 213.995636,69.957413 
	C220.546585,68.593346 227.097519,67.229279 233.849823,65.514992 
	C238.898590,64.546188 243.738831,63.862251 248.595581,63.328953 
	C252.757996,62.871899 257.296509,61.718952 259.174927,68.284882 
	C259.544220,71.480751 259.740112,73.947662 259.759155,76.415947 
	C259.860992,89.610283 259.918640,102.804947 259.897644,116.460236 
	C259.863068,137.277908 259.922424,157.634857 259.866852,178.378815 
	C259.729034,196.711075 259.640747,214.656586 259.712952,232.601471 
	C259.745575,240.712494 258.562622,248.478546 254.524918,255.638382 
	C254.667419,255.731812 254.809906,255.825256 254.510590,255.936279 
	C253.522232,256.750244 252.975693,257.546631 252.429153,258.343018 
	C252.429153,258.343018 252.439041,258.462494 252.205002,258.610168 
	C251.732895,258.948822 251.582550,259.193665 251.519958,259.492401 
	C251.519958,259.492401 251.688110,259.795135 251.368439,259.760284 
	C250.781738,259.913666 250.609177,260.166382 250.531082,260.483643 
	C250.531082,260.483643 250.485489,260.547913 250.231293,260.649109 
	C249.719986,261.166077 249.462860,261.581848 249.205719,261.997620 
	C248.298889,262.647034 247.392029,263.296478 245.898376,264.182526 
	C231.570160,271.043152 217.747147,274.387054 203.565262,265.465637 
	C203.511780,265.474792 203.435593,265.397522 203.332947,265.189301 
	C203.024994,264.721497 202.757339,264.578857 202.215179,264.773499 
	C202.144226,264.847473 202.285400,264.701050 202.331421,264.319153 
	C201.952942,263.912292 201.669632,263.740906 201.276810,263.751221 
	C201.167313,263.932983 201.423416,263.594604 201.330994,263.352722 
	C200.953644,262.931061 200.668716,262.751312 200.319580,262.741730 
	C200.255386,262.911926 200.431778,262.593750 200.355408,262.359955 
	C200.109009,261.821960 199.854416,261.629944 199.470154,261.508118 
	C199.425049,261.466187 199.540710,261.508636 199.428177,261.232605 
	C198.909622,260.529999 198.503616,260.103424 198.104889,259.501770 
	C198.042603,259.071503 197.877335,258.922424 197.473419,258.514801 
	C192.221878,249.443146 192.371399,240.581238 196.549225,231.540619 
	C196.550323,231.480560 196.617020,231.380646 196.828827,231.175323 
	C197.530792,230.110992 198.020981,229.251968 198.460083,228.332092 
	C198.408981,228.271240 198.393036,228.429367 198.638199,228.305878 
	C199.043228,227.858597 199.203094,227.534805 199.289200,227.208191 
	C199.215439,227.205383 199.297272,227.328247 199.581314,227.172150 
	C201.384750,225.526062 202.904144,224.036057 204.404724,222.374161 
	C204.385910,222.202286 204.407791,222.538361 204.684967,222.441925 
	C205.392746,221.966354 205.823349,221.587234 206.197037,221.180328 
	C206.140121,221.152557 206.147797,221.278992 206.414200,221.174988 
	C206.836105,220.725525 206.991608,220.380051 207.520508,220.068085 
	C210.924683,219.057114 213.955460,218.012634 217.359314,216.977325 
	C219.161804,216.563477 220.591217,216.140442 222.407990,215.722961 
	C225.688049,215.172562 228.649460,214.845596 231.456360,214.003586 
	C235.082672,212.915726 238.585526,211.416275 242.094757,210.070267 
	C242.047989,210.046463 242.089264,210.142975 242.373199,210.040146 
	C243.165268,209.331100 243.673431,208.724884 244.125122,208.096344 
	C244.068665,208.074020 244.134628,208.175964 244.512604,208.012024 
	C245.317062,206.806030 246.106262,205.767120 246.115280,204.721481 
	C246.237991,190.507874 246.278763,176.293213 246.210373,162.079422 
	C246.207214,161.423157 244.986053,160.772766 244.644531,159.845795 
	C244.982910,157.599686 245.008896,155.627396 245.322525,153.252808 
	C245.086365,151.767593 244.562576,150.684708 244.531921,149.675140 
	C245.221085,149.184174 245.417160,148.619858 245.942383,147.776657 
	C246.247086,142.687469 246.222641,137.877167 246.307800,132.692352 
	C246.439301,130.496765 246.511734,128.674652 246.474030,126.854828 
	C246.333771,120.084412 244.575134,118.547989 237.939743,119.801483 
	C230.950409,121.121857 224.005310,122.676491 216.641739,124.109299 
	C210.158951,125.735329 204.075317,127.380852 197.540878,128.968689 
	C194.792557,129.020477 192.440094,128.848907 190.206604,129.285721 
	C177.256088,131.818512 164.324158,134.449936 151.413116,137.176651 
	C149.733276,137.531418 148.209869,138.626892 146.534729,139.426300 
	C146.455460,139.473328 146.317215,139.595276 146.082001,139.754578 
	C145.574905,140.611465 145.303024,141.309052 144.869339,142.390015 
	C144.719177,147.528412 144.730850,152.283417 144.597870,157.481689 
	C144.416153,192.692856 144.379044,227.460754 144.204254,262.480530 
	C144.047455,263.487579 144.028366,264.242767 144.009277,264.997955 
	C141.846878,270.929230 139.912308,276.960571 137.378983,282.728943 
	C136.648239,284.392822 134.194733,285.300110 131.902557,286.776917 
	C122.291435,292.548035 112.338791,294.159576 102.001968,294.211853 
	C101.560555,294.109863 101.119148,294.007904 100.017639,293.802673 
	C96.435005,292.610779 93.512482,291.522095 90.589958,290.433411 
	C90.589958,290.433411 90.472038,290.436340 90.254456,290.185242 
	C89.281654,289.437134 88.526436,288.940125 87.771217,288.443115 
	C87.771217,288.443115 87.593300,288.309296 87.419205,288.112396 
	C87.103851,287.727936 86.918259,287.610229 86.688316,287.562439 
	C86.688316,287.562439 86.562798,287.431671 86.420685,287.202240 
	C86.130096,286.761688 85.930565,286.625153 85.679993,286.563171 
	C85.679993,286.563171 85.575050,286.447113 85.408951,286.149963 
	C84.827209,285.602539 84.411552,285.352234 83.995903,285.101959 
	C83.606712,284.731293 83.217522,284.360626 82.564667,283.935486 
z"/>
<path fill="#FF0034" opacity="1.000000" stroke="none" 
	d="
M102.104591,294.578735 
	C112.338791,294.159576 122.291435,292.548035 131.640686,287.011780 
	C130.465546,288.503448 128.923782,289.982849 127.191162,291.731567 
	C120.896164,293.206909 114.816505,294.569153 108.674232,295.532013 
	C106.600166,295.857117 104.367439,295.170044 102.104591,294.578735 
z"/>
<path fill="#FF0034" opacity="1.000000" stroke="none" 
	d="
M90.509415,290.808289 
	C93.512482,291.522095 96.435005,292.610779 99.679512,293.860352 
	C96.810616,293.075226 93.619743,292.129181 90.509415,290.808289 
z"/>
<path fill="#FF0034" opacity="1.000000" stroke="none" 
	d="
M87.631546,288.801727 
	C88.526436,288.940125 89.281654,289.437134 90.219307,290.137878 
	C89.431778,289.947876 88.461823,289.554108 87.631546,288.801727 
z"/>
<path fill="#FF0034" opacity="1.000000" stroke="none" 
	d="
M84.043259,285.413605 
	C84.411552,285.352234 84.827209,285.602539 85.373215,286.080353 
	C85.032585,286.113678 84.561600,285.919464 84.043259,285.413605 
z"/>
<path fill="#FF0034" opacity="1.000000" stroke="none" 
	d="
M85.576401,286.837341 
	C85.930565,286.625153 86.130096,286.761688 86.355820,287.138947 
	C86.112984,287.240540 85.792900,287.175995 85.576401,286.837341 
z"/>
<path fill="#FF0034" opacity="1.000000" stroke="none" 
	d="
M86.580414,287.829285 
	C86.918259,287.610229 87.103851,287.727936 87.319130,288.063660 
	C87.086273,288.173248 86.779388,288.134705 86.580414,287.829285 
z"/>
<path fill="#FF0344" opacity="1.000000" stroke="none" 
	d="
M144.281738,265.230347 
	C144.028366,264.242767 144.047455,263.487579 144.613129,262.246643 
	C145.442047,260.003021 145.949997,258.247528 145.968384,256.486938 
	C146.057098,247.989792 146.014023,239.491287 146.418030,230.994476 
	C153.163147,230.987274 159.509720,231.071198 165.852295,230.948242 
	C174.793076,230.774918 183.730423,230.422089 192.671341,230.266968 
	C193.107239,230.259415 193.563232,231.410889 193.999405,232.421463 
	C193.324280,237.881088 191.757919,243.038635 192.287140,247.971359 
	C192.693024,251.754456 195.742554,255.253906 197.616333,258.879517 
	C197.877335,258.922424 198.042603,259.071503 198.107178,259.862244 
	C198.581711,260.768097 199.061218,261.138367 199.540710,261.508636 
	C199.540710,261.508636 199.425049,261.466187 199.408661,261.816376 
	C199.738785,262.308960 200.085281,262.451355 200.431778,262.593750 
	C200.431778,262.593750 200.255386,262.911926 200.310181,263.053375 
	C200.717804,263.328094 201.070602,263.461334 201.423416,263.594604 
	C201.423416,263.594604 201.167313,263.932983 201.266632,264.062561 
	C201.719482,264.312988 202.073013,264.433807 202.426559,264.554626 
	C202.285400,264.701050 202.144226,264.847473 202.190521,265.084839 
	C202.730530,265.249695 203.083054,265.323608 203.435593,265.397522 
	C203.435593,265.397522 203.511780,265.474792 203.455017,265.824036 
	C205.931168,268.117126 208.464050,270.061005 210.996948,272.004883 
	C208.320663,272.003326 205.642258,271.932068 202.968460,272.012695 
	C193.109955,272.309845 183.253296,272.887115 173.395294,272.900818 
	C167.370804,272.909210 161.348312,272.030121 155.318466,271.652618 
	C152.906967,271.501648 150.478119,271.627777 147.251770,271.627777 
	C146.472031,269.845764 145.513123,267.654236 144.281738,265.230347 
z"/>
<path fill="#FF0034" opacity="1.000000" stroke="none" 
	d="
M211.396667,272.004639 
	C208.464050,270.061005 205.931168,268.117126 203.508514,265.814880 
	C217.747147,274.387054 231.570160,271.043152 245.658691,264.424316 
	C241.930389,266.618958 237.854950,268.808472 233.394714,271.008453 
	C229.612869,271.679840 226.215805,272.340729 222.008041,273.003052 
	C220.133896,273.007050 219.070450,273.009613 218.007004,273.012207 
	C215.936798,272.676270 213.866608,272.340363 211.396667,272.004639 
z"/>
<path fill="#FF0344" opacity="1.000000" stroke="none" 
	d="
M218.066025,273.357727 
	C219.070450,273.009613 220.133896,273.007050 221.596100,273.005524 
	C221.161377,275.774261 219.810074,275.665588 218.066025,273.357727 
z"/>
<path fill="#FF2F5C" opacity="1.000000" stroke="none" 
	d="
M213.937561,69.614899 
	C196.225769,73.635590 178.456512,77.316689 160.685165,80.987762 
	C158.743378,81.388885 156.789627,81.732185 154.420959,82.049225 
	C155.403580,81.136986 156.708359,79.807419 158.224808,79.490402 
	C176.094650,75.754593 193.994110,72.160011 211.898468,68.591934 
	C212.490097,68.474030 213.216110,69.030350 213.937561,69.614899 
z"/>
<path fill="#FF174F" opacity="1.000000" stroke="none" 
	d="
M132.965363,89.060730 
	C132.587402,92.275856 131.274811,95.460083 131.227524,98.662994 
	C130.999023,114.137688 131.110916,129.617416 130.685333,145.556885 
	C129.856628,146.023621 129.444687,146.028839 129.032745,146.034058 
	C129.019821,145.581207 129.006912,145.128357 128.984558,144.335754 
	C128.981476,139.639389 128.987823,135.282745 128.987823,130.461060 
	C128.985901,126.634468 128.990356,123.272942 128.987015,119.452774 
	C128.985703,113.307335 128.992188,107.620544 128.990692,101.465584 
	C129.322296,97.627975 129.661880,94.258537 130.016632,90.482193 
	C130.892517,89.729652 131.753220,89.384041 132.965363,89.060730 
z"/>
<path fill="#FF174F" opacity="1.000000" stroke="none" 
	d="
M138.930145,84.088058 
	C138.118683,85.063591 136.923843,86.053406 135.403427,87.175323 
	C136.234161,86.239059 137.390457,85.170700 138.930145,84.088058 
z"/>
<path fill="#FF104C" opacity="1.000000" stroke="none" 
	d="
M259.991577,115.999504 
	C259.918640,102.804947 259.860992,89.610283 259.759155,76.415947 
	C259.740112,73.947662 259.544220,71.480751 259.381409,68.551178 
	C259.612061,68.072945 259.891235,68.056740 260.589355,68.018677 
	C261.005127,71.689972 261.001953,75.383133 261.008606,79.536499 
	C261.014496,85.019035 261.010529,90.041351 261.017670,95.530045 
	C261.025360,101.683342 261.021942,107.370247 261.030823,113.523979 
	C261.024963,114.442215 261.006775,114.893639 260.731995,115.676056 
	C260.475372,116.007065 259.991547,115.999504 259.991577,115.999504 
z"/>
<path fill="#FF0034" opacity="1.000000" stroke="none" 
	d="
M254.891525,255.648865 
	C258.562622,248.478546 259.745575,240.712494 259.712952,232.601471 
	C259.640747,214.656586 259.729034,196.711075 260.115753,178.382111 
	C260.479614,177.998413 260.977386,178.005432 260.977386,178.005432 
	C260.988464,181.363190 260.999542,184.720932 261.019684,188.535797 
	C261.024811,193.349564 261.020844,197.706238 261.027161,202.526352 
	C261.029144,206.021957 261.020874,209.054092 261.020111,212.539658 
	C261.020935,215.694046 261.014252,218.395004 261.011475,221.545502 
	C260.377777,231.067566 259.740173,240.140121 259.059875,249.606140 
	C257.764130,251.886185 256.511139,253.772766 254.891525,255.648865 
z"/>
<path fill="#FF003A" opacity="1.000000" stroke="none" 
	d="
M129.029205,146.495239 
	C129.444687,146.028839 129.856628,146.023621 130.577881,146.015686 
	C130.952667,166.037811 131.018158,186.062653 130.723206,206.856171 
	C130.253983,215.102997 130.145203,222.581146 130.036438,230.059296 
	C129.714310,230.736115 129.392181,231.412933 128.841156,232.259186 
	C128.739670,230.557877 128.867111,228.687134 128.992386,226.406982 
	C128.991913,224.283325 128.993591,222.569077 128.991531,220.426239 
	C128.990356,218.283203 128.992920,216.568787 128.990967,214.425659 
	C128.989899,210.635529 128.993362,207.274109 128.991119,203.454163 
	C128.990448,198.639389 128.995483,194.283127 128.993912,189.461914 
	C128.993301,184.640533 128.999283,180.284119 128.997711,175.462891 
	C128.997162,170.309113 129.004150,165.620132 129.002747,160.464966 
	C129.004791,155.651321 129.015228,151.303879 129.029205,146.495239 
z"/>
<path fill="#FF0034" opacity="1.000000" stroke="none" 
	d="
M82.179840,252.448883 
	C78.404099,259.648346 76.983231,267.139709 79.069519,275.584015 
	C75.717430,272.720581 75.466949,268.608948 76.404228,264.491150 
	C77.237267,260.831299 78.721367,257.319611 79.959198,253.371857 
	C80.621552,252.781738 81.242821,252.562271 82.179840,252.448883 
z"/>
<path fill="#FF003A" opacity="1.000000" stroke="none" 
	d="
M125.847427,234.164856 
	C125.042381,234.778305 123.857468,235.319366 122.337181,235.839859 
	C123.157059,235.243683 124.312317,234.668076 125.847427,234.164856 
z"/>
<path fill="#FF0034" opacity="1.000000" stroke="none" 
	d="
M82.897064,251.169312 
	C83.060249,251.378098 82.967400,251.715195 82.662437,252.204926 
	C82.513885,252.004242 82.577454,251.650925 82.897064,251.169312 
z"/>
<path fill="#FF003A" opacity="1.000000" stroke="none" 
	d="
M127.117508,233.435867 
	C127.177773,233.738297 126.943054,233.984344 126.446732,234.266754 
	C126.397583,233.995239 126.610054,233.687363 127.117508,233.435867 
z"/>
<path fill="#FF003A" opacity="1.000000" stroke="none" 
	d="
M128.152008,232.478302 
	C128.376694,232.857285 128.201996,233.103699 127.715683,233.366119 
	C127.617943,233.105896 127.734131,232.760422 128.152008,232.478302 
z"/>
<path fill="#FF0034" opacity="1.000000" stroke="none" 
	d="
M252.797318,258.453430 
	C252.975693,257.546631 253.522232,256.750244 254.306000,255.783051 
	C254.083969,256.596100 253.624725,257.579987 252.797318,258.453430 
z"/>
<path fill="#FF0034" opacity="1.000000" stroke="none" 
	d="
M249.508789,261.947327 
	C249.462860,261.581848 249.719986,261.166077 250.202850,260.621857 
	C250.223038,260.961243 250.017456,261.429138 249.508789,261.947327 
z"/>
<path fill="#FF0034" opacity="1.000000" stroke="none" 
	d="
M250.840897,260.537933 
	C250.609177,260.166382 250.781738,259.913666 251.259064,259.626038 
	C251.363159,259.881866 251.256927,260.237030 250.840897,260.537933 
z"/>
<path fill="#FF0034" opacity="1.000000" stroke="none" 
	d="
M251.828049,259.541412 
	C251.582550,259.193665 251.732895,258.948822 252.158661,258.648224 
	C252.276306,258.889191 252.206223,259.239807 251.828049,259.541412 
z"/>
<path fill="#FF0042" opacity="1.000000" stroke="none" 
	d="
M260.986633,177.604172 
	C260.977386,178.005432 260.479614,177.998413 260.230713,177.995117 
	C259.922424,157.634857 259.863068,137.277908 259.897614,116.460236 
	C259.991547,115.999504 260.475372,116.007065 260.716736,116.014465 
	C260.976990,123.033455 260.995911,130.045044 261.029327,137.524139 
	C261.034180,144.013748 261.024536,150.035812 261.027435,156.525238 
	C261.031647,162.347992 261.023346,167.703400 261.025787,173.525467 
	C261.022980,175.062393 261.009430,176.132645 260.986633,177.604172 
z"/>
<path fill="#FF2B5A" opacity="1.000000" stroke="none" 
	d="
M197.991684,129.026367 
	C204.075317,127.380852 210.158951,125.735329 216.924316,124.373177 
	C218.742462,124.759964 219.917862,125.102921 221.008621,124.925529 
	C225.852036,124.137848 230.685120,123.270119 235.495819,122.301659 
	C242.395432,120.912651 243.658157,121.943001 244.095612,128.887802 
	C244.185791,130.319290 245.466324,131.675797 246.198181,133.066864 
	C246.222641,137.877167 246.247086,142.687469 245.574905,147.910065 
	C244.598450,148.748840 244.318604,149.175323 244.038788,149.601807 
	C244.562576,150.684708 245.086365,151.767593 244.871765,153.007263 
	C240.612869,149.533798 235.807770,149.190414 231.396973,149.253891 
	C222.517578,149.381714 213.651077,150.374542 204.777557,150.985962 
	C203.784912,151.054352 202.778473,151.007370 201.783356,150.940598 
	C197.330368,150.641769 192.883484,150.218826 188.426376,150.021790 
	C180.208908,149.658508 171.981262,149.114273 163.766647,149.236526 
	C157.848434,149.324615 151.944504,150.371094 146.023987,150.540894 
	C146.018158,147.391403 146.022537,144.691071 146.291138,141.764313 
	C146.475967,140.890350 146.396591,140.242813 146.317215,139.595276 
	C146.317215,139.595276 146.455460,139.473328 146.951126,139.628143 
	C154.228378,138.518845 161.043549,137.410202 167.783676,135.954178 
	C177.880676,133.772980 187.924973,131.347809 197.991684,129.026367 
z"/>
<path fill="#FF2355" opacity="1.000000" stroke="none" 
	d="
M146.034180,150.990067 
	C151.944504,150.371094 157.848434,149.324615 163.766647,149.236526 
	C171.981262,149.114273 180.208908,149.658508 188.426376,150.021790 
	C192.883484,150.218826 197.330368,150.641769 201.783356,150.940598 
	C202.778473,151.007370 203.784912,151.054352 204.777557,150.985962 
	C213.651077,150.374542 222.517578,149.381714 231.396973,149.253891 
	C235.807770,149.190414 240.612869,149.533798 244.584137,153.409576 
	C245.008896,155.627396 244.982910,157.599686 244.537170,160.376770 
	C244.083603,164.455627 244.049744,167.729660 243.651367,170.960419 
	C240.371475,169.727402 237.540649,167.927643 234.518433,167.508865 
	C231.068878,167.030869 227.451660,167.867355 223.902435,167.983398 
	C215.278488,168.265396 206.650879,168.676315 198.026245,168.643341 
	C183.295746,168.587051 168.566864,168.176834 153.836151,168.050476 
	C151.233322,168.028152 148.624847,168.664078 146.010574,168.535934 
	C145.986588,164.388870 145.970993,160.701889 145.971100,156.584625 
	C146.002594,154.432922 146.018387,152.711487 146.034180,150.990067 
z"/>
<path fill="#FF104C" opacity="1.000000" stroke="none" 
	d="
M222.020630,215.717407 
	C220.591217,216.140442 219.161804,216.563477 217.118530,216.704422 
	C207.364441,216.281570 198.224609,216.062424 189.083923,216.018021 
	C174.729233,215.948288 160.373962,215.996368 146.013931,215.531860 
	C146.013351,211.044052 146.017792,207.018906 146.431305,202.943024 
	C147.792923,202.612350 148.750153,202.075058 149.697327,202.092224 
	C159.383667,202.267731 169.067505,202.584381 178.753906,202.753311 
	C183.978699,202.844421 189.208969,202.801804 194.433258,202.675095 
	C197.895493,202.591125 201.349335,202.109344 204.810776,202.056015 
	C211.548874,201.952225 218.302307,201.767670 225.025711,202.098022 
	C231.364502,202.409485 237.672852,203.339844 243.996811,204.415756 
	C244.044220,205.947693 244.089432,207.061829 244.134628,208.175964 
	C244.134628,208.175964 244.068665,208.074020 243.772354,208.088043 
	C243.013779,208.782364 242.551529,209.462677 242.089264,210.142975 
	C242.089264,210.142975 242.047989,210.046463 241.683136,210.041351 
	C236.494186,211.031494 231.634628,211.886780 226.864822,213.096100 
	C225.139465,213.533539 223.629105,214.818939 222.020630,215.717407 
z"/>
<path fill="#FF0649" opacity="1.000000" stroke="none" 
	d="
M146.018936,215.994553 
	C160.373962,215.996368 174.729233,215.948288 189.083923,216.018021 
	C198.224609,216.062424 207.364441,216.281570 216.745453,216.695251 
	C213.955460,218.012634 210.924683,219.057114 207.262939,220.190262 
	C206.470581,220.612305 206.309189,220.945648 206.147797,221.278992 
	C206.147797,221.278992 206.140121,221.152557 205.842041,221.146317 
	C205.165253,221.606171 204.786530,222.072266 204.407806,222.538361 
	C204.407791,222.538361 204.385910,222.202286 204.043930,222.223633 
	C202.233719,223.939407 200.765503,225.633835 199.297272,227.328247 
	C199.297272,227.328247 199.215439,227.205383 198.983124,227.267792 
	C198.631546,227.696579 198.512299,228.062973 198.393036,228.429367 
	C198.393036,228.429367 198.408981,228.271240 198.072311,228.311081 
	C197.362778,229.360825 196.989899,230.370743 196.617020,231.380646 
	C196.617020,231.380646 196.550323,231.480560 196.229233,231.416779 
	C195.275375,231.576202 194.642624,231.799423 194.009872,232.022644 
	C193.563232,231.410889 193.107239,230.259415 192.671341,230.266968 
	C183.730423,230.422089 174.793076,230.774918 165.852295,230.948242 
	C159.509720,231.071198 153.163147,230.987274 146.413605,230.529129 
	C146.012207,225.373230 146.015579,220.683884 146.018936,215.994553 
z"/>
<path fill="#FF0034" opacity="1.000000" stroke="none" 
	d="
M146.013931,215.531860 
	C146.015579,220.683884 146.012207,225.373230 146.013275,230.527908 
	C146.014023,239.491287 146.057098,247.989792 145.968384,256.486938 
	C145.949997,258.247528 145.442047,260.003021 144.750824,261.994751 
	C144.379044,227.460754 144.416153,192.692856 144.800293,157.478119 
	C145.147354,157.031265 145.551193,157.013748 145.551193,157.013748 
	C145.551193,157.013748 145.955414,157.014923 145.955414,157.014923 
	C145.970993,160.701889 145.986588,164.388870 146.000076,169.004608 
	C146.006561,175.953003 146.015137,181.972641 146.013458,188.459106 
	C146.009537,193.615234 146.015884,198.304504 146.022217,202.993774 
	C146.017792,207.018906 146.013351,211.044052 146.013931,215.531860 
z"/>
<path fill="#FF1F52" opacity="1.000000" stroke="none" 
	d="
M197.540878,128.968704 
	C187.924973,131.347809 177.880676,133.772980 167.783676,135.954178 
	C161.043549,137.410202 154.228378,138.518845 147.030396,139.581116 
	C148.209869,138.626892 149.733276,137.531418 151.413116,137.176651 
	C164.324158,134.449936 177.256088,131.818512 190.206604,129.285721 
	C192.440094,128.848907 194.792557,129.020477 197.540878,128.968704 
z"/>
<path fill="#FF1D52" opacity="1.000000" stroke="none" 
	d="
M246.307816,132.692352 
	C245.466324,131.675797 244.185791,130.319290 244.095612,128.887802 
	C243.658157,121.943001 242.395432,120.912651 235.495819,122.301659 
	C230.685120,123.270119 225.852036,124.137848 221.008621,124.925529 
	C219.917862,125.102921 218.742462,124.759964 217.323456,124.392654 
	C224.005310,122.676491 230.950409,121.121857 237.939743,119.801483 
	C244.575134,118.547989 246.333771,120.084412 246.474030,126.854828 
	C246.511734,128.674652 246.439301,130.496765 246.307816,132.692352 
z"/>
<path fill="#FF003A" opacity="1.000000" stroke="none" 
	d="
M244.512604,208.012024 
	C244.089432,207.061829 244.044220,205.947693 244.000809,203.983368 
	C244.308823,198.415115 244.615051,193.697052 244.936920,188.520416 
	C244.640335,182.375793 244.328110,176.689743 244.015900,171.003693 
	C244.049744,167.729660 244.083603,164.455627 244.224792,160.650620 
	C244.986053,160.772766 246.207214,161.423157 246.210373,162.079422 
	C246.278763,176.293213 246.237991,190.507874 246.115280,204.721481 
	C246.106262,205.767120 245.317062,206.806030 244.512604,208.012024 
z"/>
<path fill="#FF0034" opacity="1.000000" stroke="none" 
	d="
M193.999405,232.421448 
	C194.642624,231.799423 195.275375,231.576202 196.228119,231.476837 
	C192.371399,240.581238 192.221878,249.443146 197.473419,258.514801 
	C195.742554,255.253906 192.693024,251.754456 192.287140,247.971359 
	C191.757919,243.038635 193.324280,237.881088 193.999405,232.421448 
z"/>
<path fill="#FF0034" opacity="1.000000" stroke="none" 
	d="
M222.407990,215.722961 
	C223.629105,214.818939 225.139465,213.533539 226.864822,213.096100 
	C231.634628,211.886780 236.494186,211.031494 241.729904,210.065155 
	C238.585526,211.416275 235.082672,212.915726 231.456360,214.003586 
	C228.649460,214.845596 225.688049,215.172562 222.407990,215.722961 
z"/>
<path fill="#FF0344" opacity="1.000000" stroke="none" 
	d="
M145.971100,156.584625 
	C145.955414,157.014923 145.551193,157.013748 145.551193,157.013748 
	C145.551193,157.013748 145.147354,157.031265 144.944931,157.034851 
	C144.730850,152.283417 144.719177,147.528412 145.118286,142.385620 
	C145.529037,141.997833 146.026932,141.990738 146.026917,141.990738 
	C146.022537,144.691071 146.018158,147.391403 146.023987,150.540894 
	C146.018387,152.711487 146.002594,154.432922 145.971100,156.584625 
z"/>
<path fill="#FF174F" opacity="1.000000" stroke="none" 
	d="
M130.317841,229.741974 
	C130.145203,222.581146 130.253983,215.102997 130.642838,207.319809 
	C130.815018,214.484741 130.707138,221.954697 130.317841,229.741974 
z"/>
<path fill="#FF0034" opacity="1.000000" stroke="none" 
	d="
M199.581329,227.172165 
	C200.765503,225.633835 202.233719,223.939407 204.062744,222.395508 
	C202.904144,224.036057 201.384750,225.526062 199.581329,227.172165 
z"/>
<path fill="#FF0034" opacity="1.000000" stroke="none" 
	d="
M196.828827,231.175323 
	C196.989899,230.370743 197.362778,229.360825 198.123413,228.371918 
	C198.020981,229.251968 197.530792,230.110992 196.828827,231.175323 
z"/>
<path fill="#FF1F52" opacity="1.000000" stroke="none" 
	d="
M146.291138,141.764313 
	C146.026932,141.990738 145.529037,141.997833 145.280090,142.002228 
	C145.303024,141.309052 145.574905,140.611465 146.082001,139.754578 
	C146.396591,140.242813 146.475967,140.890350 146.291138,141.764313 
z"/>
<path fill="#FF0034" opacity="1.000000" stroke="none" 
	d="
M242.373199,210.040146 
	C242.551529,209.462677 243.013779,208.782364 243.828827,208.110367 
	C243.673431,208.724884 243.165268,209.331100 242.373199,210.040146 
z"/>
<path fill="#FF0034" opacity="1.000000" stroke="none" 
	d="
M199.428177,261.232605 
	C199.061218,261.138367 198.581711,260.768097 198.099915,260.037323 
	C198.503616,260.103424 198.909622,260.529999 199.428177,261.232605 
z"/>
<path fill="#FF0034" opacity="1.000000" stroke="none" 
	d="
M204.684967,222.441925 
	C204.786530,222.072266 205.165253,221.606171 205.898956,221.174088 
	C205.823349,221.587234 205.392746,221.966354 204.684967,222.441925 
z"/>
<path fill="#FF0034" opacity="1.000000" stroke="none" 
	d="
M200.355408,262.359955 
	C200.085281,262.451355 199.738785,262.308960 199.453781,261.858337 
	C199.854416,261.629944 200.109009,261.821960 200.355408,262.359955 
z"/>
<path fill="#FF0034" opacity="1.000000" stroke="none" 
	d="
M201.330994,263.352722 
	C201.070602,263.461334 200.717804,263.328094 200.374390,262.883179 
	C200.668716,262.751312 200.953644,262.931061 201.330994,263.352722 
z"/>
<path fill="#FF0034" opacity="1.000000" stroke="none" 
	d="
M202.331421,264.319153 
	C202.073013,264.433807 201.719482,264.312988 201.376129,263.880829 
	C201.669632,263.740906 201.952942,263.912292 202.331421,264.319153 
z"/>
<path fill="#FF0034" opacity="1.000000" stroke="none" 
	d="
M203.332947,265.189331 
	C203.083054,265.323608 202.730530,265.249695 202.402664,264.864441 
	C202.757339,264.578857 203.024994,264.721497 203.332947,265.189331 
z"/>
<path fill="#FF0034" opacity="1.000000" stroke="none" 
	d="
M206.414200,221.174988 
	C206.309189,220.945648 206.470581,220.612305 206.889542,220.156769 
	C206.991608,220.380051 206.836105,220.725525 206.414200,221.174988 
z"/>
<path fill="#FF003A" opacity="1.000000" stroke="none" 
	d="
M244.531891,149.675140 
	C244.318604,149.175323 244.598450,148.748840 245.245758,148.188934 
	C245.417160,148.619858 245.221085,149.184174 244.531891,149.675140 
z"/>
<path fill="#FF0034" opacity="1.000000" stroke="none" 
	d="
M198.638199,228.305878 
	C198.512299,228.062973 198.631546,227.696579 199.056885,227.270599 
	C199.203094,227.534805 199.043228,227.858597 198.638199,228.305878 
z"/>
<path fill="#FF1F52" opacity="1.000000" stroke="none" 
	d="
M243.651367,170.960419 
	C244.328110,176.689743 244.640335,182.375793 244.551422,188.519089 
	C235.804382,184.560028 226.747299,186.995911 218.071442,186.668686 
	C204.024429,186.138855 189.927567,186.852554 175.853729,187.138077 
	C165.908707,187.339828 155.966934,187.701797 146.023712,187.992264 
	C146.015137,181.972641 146.006561,175.953003 146.008484,169.464706 
	C148.624847,168.664078 151.233322,168.028152 153.836151,168.050476 
	C168.566864,168.176834 183.295746,168.587051 198.026245,168.643341 
	C206.650879,168.676315 215.278488,168.265396 223.902435,167.983398 
	C227.451660,167.867355 231.068878,167.030869 234.518433,167.508865 
	C237.540649,167.927643 240.371475,169.727402 243.651367,170.960419 
z"/>
<path fill="#FF174F" opacity="1.000000" stroke="none" 
	d="
M146.013458,188.459106 
	C155.966934,187.701797 165.908707,187.339828 175.853729,187.138077 
	C189.927567,186.852554 204.024429,186.138855 218.071442,186.668686 
	C226.747299,186.995911 235.804382,184.560028 244.535782,188.977661 
	C244.615051,193.697052 244.308823,198.415115 243.998596,203.565582 
	C237.672852,203.339844 231.364502,202.409485 225.025711,202.098022 
	C218.302307,201.767670 211.548874,201.952225 204.810776,202.056015 
	C201.349335,202.109344 197.895493,202.591125 194.433258,202.675095 
	C189.208969,202.801804 183.978699,202.844421 178.753906,202.753311 
	C169.067505,202.584381 159.383667,202.267731 149.697327,202.092224 
	C148.750153,202.075058 147.792923,202.612350 146.431290,202.943024 
	C146.015884,198.304504 146.009537,193.615234 146.013458,188.459106 
z"/>
</svg>