<svg version="1.1" id="Layer_1" xmlns="http://www.w3.org/2000/svg" xmlns:xlink="http://www.w3.org/1999/xlink" x="0px" y="0px"
	 width="100%" viewBox="0 0 447 447" enable-background="new 0 0 447 447" xml:space="preserve">
<path fill="#FEFFFE" opacity="1.000000" stroke="none" 
	d="
M237.000000,1.000000 
	C307.260193,1.000000 377.520386,1.000000 448.000000,1.000000 
	C448.000000,70.687408 448.000000,140.375046 447.764130,210.525986 
	C447.528259,210.989288 447.056396,210.990646 446.949249,210.580505 
	C444.542603,177.139984 435.842651,145.930435 419.561127,117.051315 
	C390.098206,64.791878 346.706055,29.567696 289.439941,11.468004 
	C272.349976,6.066500 254.778046,3.505804 237.005463,1.711071 
	C237.003433,1.474049 237.000000,1.000000 237.000000,1.000000 
z"/>
<path fill="#FEFFFE" opacity="1.000000" stroke="none" 
	d="
M1.000000,210.000000 
	C1.000000,140.405945 1.000000,70.811897 1.000000,1.000000 
	C71.020744,1.000000 141.041718,1.000000 211.529663,1.237433 
	C211.996628,1.474866 211.992615,1.949727 211.579651,2.045758 
	C181.807388,4.045771 153.688553,10.925546 127.347977,24.104549 
	C69.869392,52.862869 31.186220,97.879929 11.527175,159.158218 
	C6.216257,175.712646 3.687429,192.772995 1.727588,209.994888 
	C1.485053,209.995544 1.000000,210.000000 1.000000,210.000000 
z"/>
<path fill="#FEFFFE" opacity="1.000000" stroke="none" 
	d="
M448.000000,239.000000 
	C448.000000,308.594055 448.000000,378.188110 448.000000,448.000000 
	C377.979248,448.000000 307.958282,448.000000 237.473999,447.785583 
	C237.010666,447.571167 237.024704,447.142426 237.444473,447.052612 
	C254.999817,445.761780 271.942993,443.265442 288.311401,437.979401 
	C362.455811,414.034943 412.086334,365.118927 437.026550,291.274902 
	C442.749878,274.329010 445.344025,256.744293 447.242767,238.999161 
	C447.663452,238.999146 447.831726,238.999573 448.000000,239.000000 
z"/>
<path fill="#FEFFFE" opacity="1.000000" stroke="none" 
	d="
M212.000000,448.000000 
	C141.739975,448.000000 71.479950,448.000000 1.000000,448.000000 
	C1.000000,378.645935 1.000000,309.291626 1.242497,239.470917 
	C1.484994,239.004532 1.970008,239.005814 2.085152,239.408417 
	C3.428992,249.030060 4.078886,258.370209 5.978711,267.448822 
	C20.118839,335.019714 57.467194,385.824982 117.425987,419.856079 
	C146.690033,436.465607 178.518311,444.766815 211.983826,447.343506 
	C211.990158,447.562317 212.000000,448.000000 212.000000,448.000000 
z"/>
<path fill="#EAFAEE" opacity="1.000000" stroke="none" 
	d="
M211.992615,1.949727 
	C211.992615,1.949727 211.996628,1.474866 211.998322,1.237433 
	C220.020905,1.000000 228.041809,1.000000 236.531357,1.000000 
	C237.000000,1.000000 237.003433,1.474049 236.551804,1.783150 
	C228.064316,2.044744 220.028473,1.997235 211.992615,1.949727 
z"/>
<path fill="#E6F9EB" opacity="1.000000" stroke="none" 
	d="
M1.970008,239.005814 
	C1.970008,239.005814 1.484994,239.004532 1.242497,239.002258 
	C1.000000,229.645767 1.000000,220.291550 1.000000,210.468658 
	C1.000000,210.000000 1.485053,209.995544 1.801070,210.459320 
	C2.068061,220.283997 2.019035,229.644897 1.970008,239.005814 
z"/>
<path fill="#E7FAEC" opacity="1.000000" stroke="none" 
	d="
M448.000000,238.531342 
	C447.831726,238.999573 447.663452,238.999146 447.170288,238.534851 
	C446.915741,229.044189 446.986053,220.017410 447.056396,210.990646 
	C447.056396,210.990646 447.528259,210.989288 447.764130,210.994644 
	C448.000000,220.020889 448.000000,229.041794 448.000000,238.531342 
z"/>
<path fill="#E1F8E7" opacity="1.000000" stroke="none" 
	d="
M212.468643,448.000000 
	C212.000000,448.000000 211.990158,447.562317 212.449738,447.275421 
	C220.947769,447.039825 228.986237,447.091125 237.024704,447.142426 
	C237.024704,447.142426 237.010666,447.571167 237.005341,447.785583 
	C228.979095,448.000000 220.958191,448.000000 212.468643,448.000000 
z"/>
<path fill="#1ED760" opacity="1.000000" stroke="none" 
	d="
M237.444473,447.052612 
	C228.986237,447.091125 220.947769,447.039825 212.443390,447.056610 
	C178.518311,444.766815 146.690033,436.465607 117.425987,419.856079 
	C57.467194,385.824982 20.118839,335.019714 5.978711,267.448822 
	C4.078886,258.370209 3.428992,249.030060 2.085152,239.408417 
	C2.019035,229.644897 2.068061,220.283997 2.043606,210.458649 
	C3.687429,192.772995 6.216257,175.712646 11.527175,159.158218 
	C31.186220,97.879929 69.869392,52.862869 127.347977,24.104549 
	C153.688553,10.925546 181.807388,4.045771 211.579651,2.045758 
	C220.028473,1.997235 228.064316,2.044744 236.553833,2.020172 
	C254.778046,3.505804 272.349976,6.066500 289.439941,11.468004 
	C346.706055,29.567696 390.098206,64.791878 419.561127,117.051315 
	C435.842651,145.930435 444.542603,177.139984 446.949249,210.580505 
	C446.986053,220.017410 446.915741,229.044189 446.917877,238.535278 
	C445.344025,256.744293 442.749878,274.329010 437.026550,291.274902 
	C412.086334,365.118927 362.455811,414.034943 288.311401,437.979401 
	C271.942993,443.265442 254.999817,445.761780 237.444473,447.052612 
M225.898560,233.782776 
	C229.655075,234.251144 233.500900,234.355301 237.152740,235.250595 
	C253.435669,239.242523 270.064423,242.330673 285.796661,247.917923 
	C301.205322,253.390274 315.802948,261.243317 330.525269,268.519409 
	C341.484833,273.935852 353.617767,268.632782 356.074860,256.747528 
	C357.800262,248.401505 354.459473,242.110992 345.501404,236.813599 
	C322.728821,223.346924 298.352570,213.805389 272.821899,207.076172 
	C251.210022,201.379868 229.180740,198.331985 206.618805,195.857437 
	C204.072922,195.921204 201.527039,195.984985 198.061661,196.235367 
	C190.384827,196.182343 182.707977,196.129318 174.517136,195.469223 
	C172.367020,195.834122 170.216919,196.199005 167.306107,196.854446 
	C154.762115,198.307343 142.131058,199.249344 129.700500,201.367859 
	C118.922119,203.204803 108.294373,206.101364 97.746819,209.053940 
	C90.955727,210.954956 86.810646,215.916016 85.845512,223.026718 
	C84.830467,230.505219 87.748283,236.228699 93.964638,240.539688 
	C99.047920,244.064896 104.224503,243.415115 109.639175,241.809326 
	C128.042877,236.351517 146.835510,233.107422 166.194458,232.375626 
	C166.462357,232.258499 166.730270,232.141357 167.735489,231.879242 
	C168.483994,231.901764 169.232483,231.924286 170.563065,232.553024 
	C180.330154,232.699326 190.097015,232.878555 199.864655,232.944199 
	C200.912979,232.951233 201.965744,232.297287 203.676834,231.835205 
	C204.118286,231.892487 204.559723,231.949768 205.290588,232.447403 
	C205.858078,232.316284 206.425583,232.185181 207.666748,231.951889 
	C208.110092,232.035324 208.553436,232.118759 209.202881,232.933746 
	C212.130066,232.971222 215.057266,233.008698 218.665924,232.948776 
	C219.109436,233.050415 219.552933,233.152054 220.173492,233.931259 
	C221.800690,233.904205 223.427872,233.877136 225.898560,233.782776 
M173.146378,119.821014 
	C164.037277,120.539650 154.821152,120.614861 145.840927,122.108437 
	C126.040733,125.401596 106.243309,128.895233 86.671700,133.312592 
	C74.216362,136.123779 67.903984,148.022934 71.285393,159.327484 
	C74.770782,170.979645 86.370018,176.702408 98.717529,173.198517 
	C106.057137,171.115738 113.481117,169.172943 120.990501,167.888046 
	C129.222260,166.479492 137.603668,165.962738 145.904633,164.934387 
	C150.274704,164.392990 154.612259,163.589218 159.507248,163.516571 
	C162.670364,163.077393 165.833481,162.638214 169.728531,161.978394 
	C170.487869,161.990158 171.247208,162.001923 172.598373,162.600937 
	C184.844269,162.712341 197.090103,162.836441 209.336258,162.894043 
	C209.891251,162.896652 210.449066,162.298645 211.803131,161.840500 
	C212.869873,161.961090 213.936600,162.081696 215.216171,162.948532 
	C218.818069,162.943954 222.419968,162.939377 226.918427,162.820145 
	C233.195114,163.491791 239.484192,164.064850 245.746490,164.851181 
	C284.846893,169.760818 322.375244,179.623383 356.816010,199.567200 
	C366.637970,205.254837 379.059875,201.629257 384.768250,192.184128 
	C390.731781,182.316788 387.988495,170.290314 378.066589,163.789825 
	C374.182983,161.245422 370.047272,159.054062 365.903229,156.943802 
	C319.797485,133.465744 270.273193,123.609375 219.136124,120.205284 
	C216.164062,120.007439 213.199066,119.703842 209.689804,118.712944 
	C209.086105,118.487076 208.483368,118.067184 207.878586,118.064232 
	C197.498932,118.013557 187.118652,117.976303 176.739761,118.070778 
	C175.836945,118.078995 174.942719,119.029343 173.146378,119.821014 
M205.046265,297.084076 
	C209.035065,297.417419 213.032120,297.673157 217.011368,298.096313 
	C249.019501,301.499878 279.162170,310.646240 306.893341,327.264160 
	C314.498596,331.821655 322.699829,329.933838 326.810455,322.882263 
	C330.944946,315.789795 328.648102,307.831726 321.014496,303.254272 
	C293.855438,286.968567 264.525848,276.790558 233.248505,272.042542 
	C205.390839,267.813629 177.465637,267.947296 149.607712,271.410004 
	C134.950958,273.231812 120.420250,276.208771 105.922302,279.112000 
	C97.791206,280.740234 93.269180,288.475952 95.181824,296.077179 
	C97.037888,303.453552 104.154457,307.386017 112.011139,306.167084 
	C132.538376,302.982391 153.065460,299.678253 173.695847,297.327728 
	C183.726791,296.184875 193.988647,297.068542 205.046265,297.084076 
M170.414078,118.477806 
	C170.414078,118.477806 170.523758,118.414116 170.414078,118.477806 
M213.585999,118.512138 
	C213.585999,118.512138 213.475769,118.575043 213.585999,118.512138 
z"/>
<path fill="#FDFFFE" opacity="1.000000" stroke="none" 
	d="
M158.964508,162.903961 
	C154.612259,163.589218 150.274704,164.392990 145.904633,164.934387 
	C137.603668,165.962738 129.222260,166.479492 120.990501,167.888046 
	C113.481117,169.172943 106.057137,171.115738 98.717529,173.198517 
	C86.370018,176.702408 74.770782,170.979645 71.285393,159.327484 
	C67.903984,148.022934 74.216362,136.123779 86.671700,133.312592 
	C106.243309,128.895233 126.040733,125.401596 145.840927,122.108437 
	C154.821152,120.614861 164.037277,120.539650 174.004791,119.772453 
	C186.652390,119.632416 198.441589,119.540947 210.230774,119.449471 
	C213.199066,119.703842 216.164062,120.007439 219.136124,120.205284 
	C270.273193,123.609375 319.797485,133.465744 365.903229,156.943802 
	C370.047272,159.054062 374.182983,161.245422 378.066589,163.789825 
	C387.988495,170.290314 390.731781,182.316788 384.768250,192.184128 
	C379.059875,201.629257 366.637970,205.254837 356.816010,199.567200 
	C322.375244,179.623383 284.846893,169.760818 245.746490,164.851181 
	C239.484192,164.064850 233.195114,163.491791 226.104828,162.711609 
	C221.861938,162.469482 218.432632,162.335892 215.003342,162.202286 
	C213.936600,162.081696 212.869873,161.961090 211.020569,161.783676 
	C197.494202,161.822464 184.750366,161.918091 172.006546,162.013702 
	C171.247208,162.001923 170.487869,161.990158 168.926544,162.011658 
	C165.071213,162.331268 162.017853,162.617615 158.964508,162.903961 
z"/>
<path fill="#FDFFFD" opacity="1.000000" stroke="none" 
	d="
M205.001175,232.007050 
	C204.559723,231.949768 204.118286,231.892487 202.958313,231.771561 
	C191.486847,231.787552 180.733917,231.867188 169.980988,231.946808 
	C169.232483,231.924286 168.483994,231.901764 167.116119,231.897247 
	C166.332977,231.964584 166.169205,232.013931 166.005447,232.063263 
	C146.835510,233.107422 128.042877,236.351517 109.639175,241.809326 
	C104.224503,243.415115 99.047920,244.064896 93.964638,240.539688 
	C87.748283,236.228699 84.830467,230.505219 85.845512,223.026718 
	C86.810646,215.916016 90.955727,210.954956 97.746819,209.053940 
	C108.294373,206.101364 118.922119,203.204803 129.700500,201.367859 
	C142.131058,199.249344 154.762115,198.307343 168.122879,196.747757 
	C170.970154,196.452805 173.000641,196.264557 175.031143,196.076294 
	C182.707977,196.129318 190.384827,196.182343 198.956512,196.229568 
	C202.213516,196.356461 204.575653,196.489151 206.937805,196.621841 
	C229.180740,198.331985 251.210022,201.379868 272.821899,207.076172 
	C298.352570,213.805389 322.728821,223.346924 345.501404,236.813599 
	C354.459473,242.110992 357.800262,248.401505 356.074860,256.747528 
	C353.617767,268.632782 341.484833,273.935852 330.525269,268.519409 
	C315.802948,261.243317 301.205322,253.390274 285.796661,247.917923 
	C270.064423,242.330673 253.435669,239.242523 237.152740,235.250595 
	C233.500900,234.355301 229.655075,234.251144 225.157715,233.638107 
	C222.943405,233.413513 221.469925,233.333603 219.996445,233.253693 
	C219.552933,233.152054 219.109436,233.050415 217.964294,232.847336 
	C214.507370,232.564667 211.752075,232.383438 208.996780,232.202209 
	C208.553436,232.118759 208.110092,232.035324 207.002579,231.919983 
	C205.892670,231.927750 205.446915,231.967407 205.001175,232.007050 
z"/>
<path fill="#FDFEFD" opacity="1.000000" stroke="none" 
	d="
M204.596115,297.059448 
	C193.988647,297.068542 183.726791,296.184875 173.695847,297.327728 
	C153.065460,299.678253 132.538376,302.982391 112.011139,306.167084 
	C104.154457,307.386017 97.037888,303.453552 95.181824,296.077179 
	C93.269180,288.475952 97.791206,280.740234 105.922302,279.112000 
	C120.420250,276.208771 134.950958,273.231812 149.607712,271.410004 
	C177.465637,267.947296 205.390839,267.813629 233.248505,272.042542 
	C264.525848,276.790558 293.855438,286.968567 321.014496,303.254272 
	C328.648102,307.831726 330.944946,315.789795 326.810455,322.882263 
	C322.699829,329.933838 314.498596,331.821655 306.893341,327.264160 
	C279.162170,310.646240 249.019501,301.499878 217.011368,298.096313 
	C213.032120,297.673157 209.035065,297.417419 204.596115,297.059448 
z"/>
<path fill="#1FD865" opacity="1.000000" stroke="none" 
	d="
M172.302460,162.307312 
	C184.750366,161.918091 197.494202,161.822464 210.621796,161.853607 
	C210.449066,162.298645 209.891251,162.896652 209.336258,162.894043 
	C197.090103,162.836441 184.844269,162.712341 172.302460,162.307312 
z"/>
<path fill="#24D864" opacity="1.000000" stroke="none" 
	d="
M170.272034,232.249924 
	C180.733917,231.867188 191.486847,231.787552 202.628113,231.828949 
	C201.965744,232.297287 200.912979,232.951233 199.864655,232.944199 
	C190.097015,232.878555 180.330154,232.699326 170.272034,232.249924 
z"/>
<path fill="#08D658" opacity="1.000000" stroke="none" 
	d="
M209.960297,119.081207 
	C198.441589,119.540947 186.652390,119.632416 174.453857,119.632980 
	C174.942719,119.029343 175.836945,118.078995 176.739761,118.070778 
	C187.118652,117.976303 197.498932,118.013557 207.878586,118.064232 
	C208.483368,118.067184 209.086105,118.487076 209.960297,119.081207 
z"/>
<path fill="#1FD865" opacity="1.000000" stroke="none" 
	d="
M215.109756,162.575409 
	C218.432632,162.335892 221.861938,162.469482 225.656555,162.768951 
	C222.419968,162.939377 218.818069,162.943954 215.109756,162.575409 
z"/>
<path fill="#1FD865" opacity="1.000000" stroke="none" 
	d="
M159.235870,163.210266 
	C162.017853,162.617615 165.071213,162.331268 168.560577,162.121979 
	C165.833481,162.638214 162.670364,163.077393 159.235870,163.210266 
z"/>
<path fill="#24D864" opacity="1.000000" stroke="none" 
	d="
M209.099823,232.567978 
	C211.752075,232.383438 214.507370,232.564667 217.623566,232.896027 
	C215.057266,233.008698 212.130066,232.971222 209.099823,232.567978 
z"/>
<path fill="#24D864" opacity="1.000000" stroke="none" 
	d="
M220.084961,233.592468 
	C221.469925,233.333603 222.943405,233.413513 224.735977,233.671753 
	C223.427872,233.877136 221.800690,233.904205 220.084961,233.592468 
z"/>
<path fill="#02D44F" opacity="1.000000" stroke="none" 
	d="
M206.778305,196.239639 
	C204.575653,196.489151 202.213516,196.356461 199.416260,196.136261 
	C201.527039,195.984985 204.072922,195.921204 206.778305,196.239639 
z"/>
<path fill="#02D44F" opacity="1.000000" stroke="none" 
	d="
M174.774139,195.772766 
	C173.000641,196.264557 170.970154,196.452805 168.503235,196.602478 
	C170.216919,196.199005 172.367020,195.834122 174.774139,195.772766 
z"/>
<path fill="#24D864" opacity="1.000000" stroke="none" 
	d="
M205.145874,232.227234 
	C205.446915,231.967407 205.892670,231.927750 206.665741,231.971069 
	C206.425583,232.185181 205.858078,232.316284 205.145874,232.227234 
z"/>
<path fill="#24D864" opacity="1.000000" stroke="none" 
	d="
M166.099945,232.219452 
	C166.169205,232.013931 166.332977,231.964584 166.747467,231.969742 
	C166.730270,232.141357 166.462357,232.258499 166.099945,232.219452 
z"/>
<path fill="#08D658" opacity="1.000000" stroke="none" 
	d="
M170.468918,118.445961 
	C170.523758,118.414116 170.414078,118.477806 170.468918,118.445961 
z"/>
<path fill="#08D658" opacity="1.000000" stroke="none" 
	d="
M213.530884,118.543594 
	C213.475769,118.575043 213.585999,118.512138 213.530884,118.543594 
z"/>
</svg>